<mxfile host="65bd71144e">
    <diagram id="qyOgg6iMNDOcMThpS2uZ" name="Page-1">
        <mxGraphModel dx="823" dy="1404" grid="1" gridSize="10" guides="1" tooltips="1" connect="1" arrows="1" fold="1" page="1" pageScale="1" pageWidth="850" pageHeight="1100" background="#ffffff" math="0" shadow="0">
            <root>
                <mxCell id="0"/>
                <mxCell id="1" parent="0"/>
                <mxCell id="R7Ilkwoh4phyt-hekFA_-3" value="Serverless" style="shape=image;verticalLabelPosition=bottom;labelBackgroundColor=#ffffff;verticalAlign=top;aspect=fixed;imageAspect=0;image=data:image/svg+xml,PHN2ZyB4bWxucz0iaHR0cDovL3d3dy53My5vcmcvMjAwMC9zdmciIGhlaWdodD0iNjguNDcyNzc4MzIwMzEyNSIgd2lkdGg9IjEwMCIgZmlsbD0iIzAwMDAwMCIgdmlld0JveD0iMTAgMjUuNzc3MjE3ODY0OTkwMjM0IDEwMCA2OC40NzI3NzgzMjAzMTI1IiB4PSIwcHgiIHk9IjBweCI+PHRpdGxlPjI3MCBTZXJ2ZXJsZXNzPC90aXRsZT48Y2lyY2xlIGN4PSI4NyIgY3k9IjcxLjI1IiByPSIxIi8+PGNpcmNsZSBjeD0iOTUiIGN5PSI4Ny4yNSIgcj0iMSIvPjxjaXJjbGUgY3g9Ijg3IiBjeT0iODcuMjUiIHI9IjEiLz48Y2lyY2xlIGN4PSI5MSIgY3k9Ijg3LjI1IiByPSIxIi8+PGNpcmNsZSBjeD0iOTUiIGN5PSI3OS4yNSIgcj0iMSIvPjxjaXJjbGUgY3g9IjkxIiBjeT0iNzkuMjUiIHI9IjEiLz48cGF0aCBkPSJNNzAsODguMjVhNCw0LDAsMCwwLDEsMi42bDEuNDItMS40MmEyLDIsMCwwLDEtLjQtMS4xOXYtMmEyLDIsMCwwLDEsMi0yaDMuNTlsMi0ySDc0YTIsMiwwLDAsMS0yLTJ2LTJhMiwyLDAsMCwxLDItMkg4NS41OWwyLTJINzRhMiwyLDAsMCwxLTItMnYtMmEyLDIsMCwwLDEsMi0ySDkzLjU5bDItMkg3NGE0LDQsMCwwLDAtNCw0djJhNCw0LDAsMCwwLDEuMzgsMywyLjY1LDIuNjUsMCwwLDAtLjM3LjM4LDIuNzIsMi43MiwwLDAsMC0uMzQuNDJBNCw0LDAsMCwwLDcwLDc4YS41Ni41NiwwLDAsMCwwLC4xMy41Ny41NywwLDAsMCwwLC4xM3YyYTQsNCwwLDAsMCwxLjM4LDMsNCw0LDAsMCwwLTEuMzgsM1oiLz48cGF0aCBkPSJNOTcuODgsNjkuNjFhMiwyLDAsMCwxLC4xMi42NHYyYTIsMiwwLDAsMS0yLDJIOTMuMjRsLTIsMkg5NmEyLDIsMCwwLDEsMiwydjJhMiwyLDAsMCwxLTIsMkg4NS4yNGwtMiwySDk2YTIsMiwwLDAsMSwyLDJ2MmEyLDIsMCwwLDEtMiwySDc3LjI0bC0yLDJIOTZhNCw0LDAsMCwwLDQtNHYtMmE0LDQsMCwwLDAtMS4zOC0zLDQsNCwwLDAsMCwxLjM4LTN2LTJhLjU3LjU3LDAsMCwwLDAtLjEzczAtLjA4LDAtLjEyaDBBNCw0LDAsMCwwLDk5LjMzLDc2aDBjLS4xLS4xNS0uMjEtLjI5LS4zMi0uNDNhMi42NSwyLjY1LDAsMCwwLS4zNy0uMzgsNCw0LDAsMCwwLDEuMzgtM3YtMmE0LDQsMCwwLDAtLjYzLTIuMTNaIi8+PHBhdGggZD0iTTg3Ljk0LDc5LjU1bC0uNjMuNjNBMSwxLDAsMCwwLDg3Ljk0LDc5LjU1WiIvPjxwYXRoIGQ9Ik05NS45NCw3MS41NWwtLjYzLjYzQTEsMSwwLDAsMCw5NS45NCw3MS41NVoiLz48cGF0aCBkPSJNOTAsNzEuMjVhMSwxLDAsMCwwLC4xMy40NmwxLjMzLTEuMzNhMSwxLDAsMCwwLS40Ni0uMTNBMSwxLDAsMCwwLDkwLDcxLjI1WiIvPjxwb2x5Z29uIHBvaW50cz0iOTkgNjQuMjUgNjkgOTQuMjUgNzEuODMgOTQuMjUgMTAxLjgzIDY0LjI1IDk5IDY0LjI1Ii8+PHBhdGggZD0iTTk0LDUzLjc1SDkyQTE4LDE4LDAsMCwwLDY2Ljg5LDM3LjIxLDIzLDIzLDAsMCwwLDI0LjU3LDUzLjgyLDE2LDE2LDAsMCwwLDEwLDY5Ljc1aDBhMTYsMTYsMCwwLDAsMTYsMTZINjhhNS45Miw1LjkyLDAsMCwxLC41My0ySDI2YTE0LDE0LDAsMCwxLTEuMjUtMjcuOTRsMi4yOC0uMi0uNS0yLjIzQTIxLDIxLDAsMCwxLDY1LjE2LDM4LjIybC44OSwxLjUzLDEuNjMtLjdBMTYsMTYsMCwwLDEsOTAsNTMuNzV2Mmg0YTE0LDE0LDAsMCwxLDcuODksMjUuNTUsNiw2LDAsMCwxLS43MSwxLjk1LDYsNiwwLDAsMSwuMzIuNjNBMTYsMTYsMCwwLDAsMTEwLDY5Ljc1aDBBMTYsMTYsMCwwLDAsOTQsNTMuNzVaIi8+PC9zdmc+;fontSize=24;fontStyle=1" parent="1" vertex="1">
                    <mxGeometry x="70" y="298" width="100" height="68" as="geometry"/>
                </mxCell>
                <mxCell id="R7Ilkwoh4phyt-hekFA_-4" value="Platform&#10;as a Service" style="shape=image;verticalLabelPosition=bottom;labelBackgroundColor=#ffffff;verticalAlign=top;aspect=fixed;imageAspect=0;image=data:image/svg+xml,PHN2ZyB4bWxuczpkYz0iaHR0cDovL3B1cmwub3JnL2RjL2VsZW1lbnRzLzEuMS8iIHhtbG5zOmNjPSJodHRwOi8vY3JlYXRpdmVjb21tb25zLm9yZy9ucyMiIHhtbG5zOnJkZj0iaHR0cDovL3d3dy53My5vcmcvMTk5OS8wMi8yMi1yZGYtc3ludGF4LW5zIyIgeG1sbnM6c3ZnPSJodHRwOi8vd3d3LnczLm9yZy8yMDAwL3N2ZyIgeG1sbnM9Imh0dHA6Ly93d3cudzMub3JnLzIwMDAvc3ZnIiB4bWxuczpzb2RpcG9kaT0iaHR0cDovL3NvZGlwb2RpLnNvdXJjZWZvcmdlLm5ldC9EVEQvc29kaXBvZGktMC5kdGQiIHhtbG5zOmlua3NjYXBlPSJodHRwOi8vd3d3Lmlua3NjYXBlLm9yZy9uYW1lc3BhY2VzL2lua3NjYXBlIiBoZWlnaHQ9Ijc0LjYwMzQxNjQ0Mjg3MTEiIHdpZHRoPSI4NC4zMzI3NDg0MTMwODU5NCIgZmlsbD0iIzAwMDAwMCIgdmVyc2lvbj0iMS4xIiB4PSIwcHgiIHk9IjBweCIgdmlld0JveD0iNy4yNDc5MDcxNjE3MTI2NDY1IDE2LjI1NjU1NTU1NzI1MDk3NyA4NC4zMzI3NDg0MTMwODU5NCA3NC42MDM0MTY0NDI4NzExIiBlbmFibGUtYmFja2dyb3VuZD0ibmV3IDAgMCAxMDAgMTAwIiB4bWw6c3BhY2U9InByZXNlcnZlIiBpZD0ic3ZnMTAiIHNvZGlwb2RpOmRvY25hbWU9InBhYXMuc3ZnIiBpbmtzY2FwZTp2ZXJzaW9uPSIxLjAuMi0yIChlODZjODcwODc5LCAyMDIxLTAxLTE1KSI+PG1ldGFkYXRhIGlkPSJtZXRhZGF0YTE2Ij48cmRmOnJkZj48Y2M6d29yayByZGY6YWJvdXQ9IiI+PGRjOmZvcm1hdD5pbWFnZS9zdmcreG1sPC9kYzpmb3JtYXQ+PGRjOnR5cGUgcmRmOnJlc291cmNlPSJodHRwOi8vcHVybC5vcmcvZGMvZGNtaXR5cGUvU3RpbGxJbWFnZSIvPjxkYzp0aXRsZS8+PC9jYzp3b3JrPjwvcmRmOnJkZj48L21ldGFkYXRhPjxkZWZzIGlkPSJkZWZzMTQiLz48c29kaXBvZGk6bmFtZWR2aWV3IHBhZ2Vjb2xvcj0iI2ZmZmZmZiIgYm9yZGVyY29sb3I9IiM2NjY2NjYiIGJvcmRlcm9wYWNpdHk9IjEiIG9iamVjdHRvbGVyYW5jZT0iMTAiIGdyaWR0b2xlcmFuY2U9IjEwIiBndWlkZXRvbGVyYW5jZT0iMTAiIGlua3NjYXBlOnBhZ2VvcGFjaXR5PSIwIiBpbmtzY2FwZTpwYWdlc2hhZG93PSIyIiBpbmtzY2FwZTp3aW5kb3ctd2lkdGg9IjE5MjAiIGlua3NjYXBlOndpbmRvdy1oZWlnaHQ9IjEwMTciIGlkPSJuYW1lZHZpZXcxMiIgc2hvd2dyaWQ9ImZhbHNlIiBpbmtzY2FwZTp6b29tPSIzLjAwNTIwMzgiIGlua3NjYXBlOmN4PSIxOTQuNDYzNyIgaW5rc2NhcGU6Y3k9Ijg1Ljc3MDU0NiIgaW5rc2NhcGU6d2luZG93LXg9Ii04IiBpbmtzY2FwZTp3aW5kb3cteT0iMjgwIiBpbmtzY2FwZTp3aW5kb3ctbWF4aW1pemVkPSIxIiBpbmtzY2FwZTpjdXJyZW50LWxheWVyPSJzdmcxMCIvPjxnIGlkPSJnOCIgdHJhbnNmb3JtPSJtYXRyaXgoMC41ODAwMDc5MywwLDAsMC41ODAwMDc5MywyMi45Mjg2ODMsNDAuMzk5MjgzKSI+PHJlY3QgeD0iMjYuOTM4IiB5PSIxMy4wMDMiIHRyYW5zZm9ybT0ibWF0cml4KDEsMC4wMDE5LC0wLjAwMTksMSwwLjAzNSwtMC4wNTQyKSIgd2lkdGg9IjMuMDc2OTk5OSIgaGVpZ2h0PSIxMC43MDEiIGlkPSJyZWN0MiIvPjxwYXRoIGQ9Im0gMTkuODcxLDMyLjgyNCBoIDU1LjAxIHYgNS43MjkgSCA2Ny41NDQgViA0OC45NjIgSCA4NS4yOTIgViAzOC41NTMgaCAtNy4zMzQgdiAtNS43MjkgaCA3LjY0MyBMIDc5LjYxLDIxLjk1NyBIIDQzLjUzMSB2IDMuMDU4IGggMzQuMjU2IGwgMi42MTgsNC43NSBIIDE5Ljg3MSBWIDIzLjQ4NiAyMC4zODQgSCA1IHYgMTIuNDM5IGggMTEuNzkzIDMuMDc4IHogTSA4Mi4yMTUsNDUuOTAzIEggNzAuNjIxIFYgNDEuNjExIEggODIuMjE1IFogTSA4LjA3NywyOS43NjUgdiAtNi4zMjIgaCA4LjcxNiB2IDAuMDQzIDYuMjc5IHoiIGlkPSJwYXRoNCIvPjxwYXRoIGQ9Ik0gNjcuNDk1LDY4LjMyOSBWIDU5LjYwNSA1OC4wNzYgSCAzNS41MSBsIC0xLjE4NCwtMjIuMzQ1IC0zLjA3MywwLjE2MSAxLjE3NiwyMi4xODQgSCAyNi4xMjMgTCAyNy4yOTgsMzUuODkyIDI0LjIyNSwzNS43MzEgMjMuMDQxLDU4LjA3NiBIIDkuNDExIFYgODcgSCA5NSBWIDY4LjMyOSBaIG0gLTMuMDc3LDMuMDU5IFYgODMuOTQyIEggMzkuOTkyIHYgLTUuOTEzIGggOC4zNDYgViA3NC45NyBoIC04LjM0NiB2IC02LjcyOSBoIDguMzQ2IHYgLTMuMDU5IGggLTguMzQ2IHYgLTQuMDQ4IGggMjQuNDI2IHogbSAtNTEuOTMsNi42NCBoIDguMzQ1IFYgNzQuOTcgaCAtOC4zNDUgdiAtNi43MjkgaCA4LjM0NSBWIDY1LjE4MiBIIDEyLjQ4OCBWIDYxLjEzNCBIIDM2LjkxNSBWIDgzLjk0MSBIIDEyLjQ4OCBaIG0gNzkuNDM1LDUuOTEzIEggNjcuNDk1IHYgLTUuOTEzIGggOC4zNDYgViA3NC45NyBoIC04LjM0NiB2IC0zLjU4MiBoIDI0LjQyOCB6IiBpZD0icGF0aDYiLz48L2c+PGcgc3R5bGU9ImZpbGw6IzAwMDAwMCIgaWQ9Imc5NDkiIHRyYW5zZm9ybT0ibWF0cml4KDEuMDAzOTYxMywwLDAsMS4wMDM5NjEzLC0wLjc4Mzc4Mjc5LC01LjgzMDU5MjkpIj48cGF0aCBzdHlsZT0iY29sb3I6IzAwMDAwMDt0ZXh0LWluZGVudDowO3RleHQtdHJhbnNmb3JtOm5vbmU7ZGlyZWN0aW9uOmx0cjtiYXNlbGluZS1zaGlmdDpiYXNlbGluZTtlbmFibGUtYmFja2dyb3VuZDphY2N1bXVsYXRlIiBkPSJNIDQyLDIyIEMgMjkuODUyOTk5LDIyIDIxLjEyMzA5OSwzMi4wOTk4IDIwLjg3NSw0Mi44NzUgMTMuNDUzOCw0NS4wOTggNy45OTk5OTk1LDUxLjg2NzEyIDcuOTk5OTk5NSw2MC4wMDAwMiBjIDAsOS45MjkzIDguMDcwNzAwNSwxOCAxOC4wMDAwMDA1LDE4IGggNDggYyAxMC42MDYsMCAxOCwtNy4xMjM2IDE4LC0xNiBDIDkyLDU0LjgxOTYyIDg3LjExNzEsNDcuODQ1ODIgNzkuOTA2MjAxLDQ2LjIxODcgNzkuNjYwMzAxLDQwLjMzNTkgNzYuODYyMzAxLDM1Ljk0MjQgNzMsMzMuNjI1IDY5LjIxMjUwMSwzMS4zNTI1IDY0LjUzNDksMzEuMDc2MSA2MC40MDYyLDMyLjgxMjUgNTcuMDk2MSwyNi44NDQ0IDUwLjU3NTIsMjIgNDIsMjIgWiBtIDAsMiBjIDguMTU3NSwwIDE0LjI1MDksNC43NTE3IDE3LjA5MzgsMTAuNDM3NSBhIDEuMDAwMSwxLjAwMDEgMCAwIDAgMS4zNDM3LDAuNDM3NSBDIDY0LjEyNDUsMzMuMDMxNSA2OC41NDE0LDMzLjI2ODYgNzIsMzUuMzQzNyA3NS40NTg2LDM3LjQxODkgNzgsNDEuMzA1NiA3OCw0NyBhIDEuMDAwMSwxLjAwMDEgMCAwIDAgMC44NDM4LDAuOTY4NzIgQyA4NS4zOTUyLDQ5LjA2ODAyIDkwLDU1LjUwMzkyIDkwLDYyLjAwMDAyIGMgMCw3Ljc4MjkgLTYuMjY4NTk5LDE0IC0xNiwxNCBIIDI2IGMgLTguODQ4NTAxLDAgLTE2LjAwMDAwMDUsLTcuMTUxNiAtMTYuMDAwMDAwNSwtMTYgQyA5Ljk5OTk5OTUsNTIuNTEyODIgMTUuMTMzMiw0Ni4yNTQ1IDIyLjA2MjUsNDQuNSBhIDEuMDAwMSwxLjAwMDEgMCAwIDAgMC43NSwtMSBDIDIyLjcxNzUsMzMuNTY5MiAzMC43MzgxLDI0IDQyLDI0IFoiIGZpbGw9IiMwMDAwMDAiIGZpbGwtb3BhY2l0eT0iMSIgc3Ryb2tlPSJub25lIiBtYXJrZXI9Im5vbmUiIHZpc2liaWxpdHk9InZpc2libGUiIGRpc3BsYXk9ImlubGluZSIgb3ZlcmZsb3c9InZpc2libGUiIGlkPSJwYXRoOTM1Ii8+PC9nPjwvc3ZnPg==;fontSize=24;fontStyle=1" parent="1" vertex="1">
                    <mxGeometry x="70" y="420" width="100" height="89.29" as="geometry"/>
                </mxCell>
                <mxCell id="R7Ilkwoh4phyt-hekFA_-6" value="Infrastructure&#10;as a Service" style="shape=image;verticalLabelPosition=bottom;labelBackgroundColor=#ffffff;verticalAlign=top;aspect=fixed;imageAspect=0;image=data:image/svg+xml,PHN2ZyB4bWxucz0iaHR0cDovL3d3dy53My5vcmcvMjAwMC9zdmciIGhlaWdodD0iNjAuMDA0MjQ1NzU4MDU2NjQiIHdpZHRoPSI2MCIgZmlsbD0iIzAwMDAwMCIgZGF0YS1uYW1lPSJMYXllciAxIiB2aWV3Qm94PSIyIDEuOTk2ODA4NTI4OTAwMTQ2NSA2MCA2MC4wMDQyNDU3NTgwNTY2NCIgeD0iMHB4IiB5PSIwcHgiPjxyZWN0IHg9IjI1IiB5PSI0OSIgd2lkdGg9IjIiIGhlaWdodD0iMiIvPjxyZWN0IHg9IjI4IiB5PSI0OSIgd2lkdGg9IjIiIGhlaWdodD0iMiIvPjxyZWN0IHg9IjE4IiB5PSI0MiIgd2lkdGg9IjYiIGhlaWdodD0iMiIvPjxyZWN0IHg9IjI1IiB5PSI0MiIgd2lkdGg9IjIiIGhlaWdodD0iMiIvPjxyZWN0IHg9IjI4IiB5PSI0MiIgd2lkdGg9IjIiIGhlaWdodD0iMiIvPjxyZWN0IHg9IjE4IiB5PSIzNSIgd2lkdGg9IjYiIGhlaWdodD0iMiIvPjxyZWN0IHg9IjI1IiB5PSIzNSIgd2lkdGg9IjIiIGhlaWdodD0iMiIvPjxyZWN0IHg9IjI4IiB5PSIzNSIgd2lkdGg9IjIiIGhlaWdodD0iMiIvPjxyZWN0IHg9IjE4IiB5PSIyOCIgd2lkdGg9IjYiIGhlaWdodD0iMiIvPjxyZWN0IHg9IjI1IiB5PSIyOCIgd2lkdGg9IjIiIGhlaWdodD0iMiIvPjxyZWN0IHg9IjI4IiB5PSIyOCIgd2lkdGg9IjIiIGhlaWdodD0iMiIvPjxyZWN0IHg9IjE4IiB5PSIyMSIgd2lkdGg9IjYiIGhlaWdodD0iMiIvPjxyZWN0IHg9IjI1IiB5PSIyMSIgd2lkdGg9IjIiIGhlaWdodD0iMiIvPjxyZWN0IHg9IjI4IiB5PSIyMSIgd2lkdGg9IjIiIGhlaWdodD0iMiIvPjxyZWN0IHg9IjE4IiB5PSIxNCIgd2lkdGg9IjYiIGhlaWdodD0iMiIvPjxyZWN0IHg9IjI1IiB5PSIxNCIgd2lkdGg9IjIiIGhlaWdodD0iMiIvPjxyZWN0IHg9IjI4IiB5PSIxNCIgd2lkdGg9IjIiIGhlaWdodD0iMiIvPjxwYXRoIGQ9Ik0xMiw4aDdWNkgxMWExLDEsMCwwLDAtMSwxdjloMloiLz48cGF0aCBkPSJNNDQsNTZIMzd2Mmg4YTEsMSwwLDAsMCwxLTFWNDhINDRaIi8+PHBhdGggZD0iTTU3Ljg1OCw3SDYyVjVINTcuODU4QTMuOTkyLDMuOTkyLDAsMSwwLDUzLDkuODU4djQuMjg0YTMuOTgxLDMuOTgxLDAsMCwwLDAsNy43MTZ2Ni4yODRBNCw0LDAsMCwwLDUwLjE0MiwzMUg0MlYxOGgzYTUsNSwwLDEsMC0uMDc2LTEwaC0uMDA3bC0uMzI3LjAyOGE0Ljk1LDQuOTUsMCwwLDAtNS4zNzMtMi45NjQsNS45NzgsNS45NzgsMCwwLDAtMTAuODY3Ljk0NUMyOC4yMyw2LDI4LjExNCw2LDI4LDZhNi4wMSw2LjAxLDAsMCwwLTUuNjQyLDRIMTVhMSwxLDAsMCwwLTEsMVYyMWE1Ljk3OCw1Ljk3OCwwLDAsMC01LjY1LDQuMDEyQzguMjMsMjUsOC4xMTQsMjUsOCwyNUE2LDYsMCwwLDAsOCwzN2g2djlhNS45NzgsNS45NzgsMCwwLDAtNS42NSw0LjAxMkM4LjIzLDUwLDguMTE0LDUwLDgsNTBBNiw2LDAsMCwwLDgsNjJIMjVhNS4wMDYsNS4wMDYsMCwwLDAsNS01LDQuOTQ4LDQuOTQ4LDAsMCwwLTEuMDI2LTNINDFhMSwxLDAsMCwwLDEtMVYzM2g4LjE0MkE0LDQsMCwwLDAsNTMsMzUuODU4djYuMjg0YTMuOTgxLDMuOTgxLDAsMCwwLDAsNy43MTZ2NC4yODRBMy45OTIsMy45OTIsMCwxLDAsNTcuODU4LDU5SDYyVjU3SDU3Ljg1OEE0LDQsMCwwLDAsNTUsNTQuMTQyVjQ5Ljg1OEE0LDQsMCwwLDAsNTcuODU4LDQ3SDYyVjQ1SDU3Ljg1OEE0LDQsMCwwLDAsNTUsNDIuMTQyVjM1Ljg1OEE0LDQsMCwwLDAsNTcuODU4LDMzSDYyVjMxSDU3Ljg1OEE0LDQsMCwwLDAsNTUsMjguMTQyVjIxLjg1OEE0LDQsMCwwLDAsNTcuODU4LDE5SDYyVjE3SDU3Ljg1OEE0LDQsMCwwLDAsNTUsMTQuMTQyVjkuODU4QTQsNCwwLDAsMCw1Ny44NTgsN1pNNDAsNDVIMTZWNDBINDBabTAtMjFIMTZWMTlINDBaTTE2LDMzSDQwdjVIMTZabTAtMlYyNkg0MHY1Wk0yOCw4YTQuMDMxLDQuMDMxLDAsMCwxLC44NzEuMTA4LDEsMSwwLDAsMCwxLjItLjhBMy45ODIsMy45ODIsMCwwLDEsMzcuNzMsNi42LDEsMSwwLDAsMCwzOSw3LjE4OCwyLjk0NSwyLjk0NSwwLDAsMSw0Mi45MTQsOS4zMmExLDEsMCwwLDAsMS4wNTcuNzY5TDQ1LDEwYTMsMywwLDAsMSwwLDZINDJWMTFhMSwxLDAsMCwwLTEtMUgyNC41NDNBNC4wMTEsNC4wMTEsMCwwLDEsMjgsOFptMTIsNHY1SDE2VjEyWk04LDM1YTQsNCwwLDEsMSwuODcxLTcuODkyLDEsMSwwLDAsMCwxLjItLjhBMy45ODUsMy45ODUsMCwwLDEsMTQsMjNWMzVaTTI1LDYwSDhhNCw0LDAsMSwxLC44NzEtNy44OTIsMSwxLDAsMCwwLDEuMi0uOEEzLjk4MiwzLjk4MiwwLDAsMSwxNy43Myw1MC42YTEsMSwwLDAsMCwxLjI3LjU5MSwyLjk0NSwyLjk0NSwwLDAsMSwzLjkxNCwyLjEzMiwxLDEsMCwwLDAsMS4wNTcuNzY5TDI1LjAzOSw1NEEzLDMsMCwwLDEsMjUsNjBabTE1LThIMjQuNTc0YTQuOTUyLDQuOTUyLDAsMCwwLTUuMzU3LTIuOTMzQTYuMDM0LDYuMDM0LDAsMCwwLDE3LjI3MSw0N0g0MFpNNTIsNmEyLDIsMCwxLDEsMiwyQTIsMiwwLDAsMSw1Miw2Wm00LDUyYTIsMiwwLDEsMS0yLTJBMiwyLDAsMCwxLDU2LDU4Wm0wLTEyYTIsMiwwLDEsMS0yLTJBMiwyLDAsMCwxLDU2LDQ2Wm0wLTE0YTIsMiwwLDEsMS0yLTJBMiwyLDAsMCwxLDU2LDMyWm0wLTE0YTIsMiwwLDEsMS0yLTJBMiwyLDAsMCwxLDU2LDE4WiIvPjxyZWN0IHg9IjQ0IiB5PSI0NCIgd2lkdGg9IjIiIGhlaWdodD0iMiIvPjxyZWN0IHg9IjEwIiB5PSIxOCIgd2lkdGg9IjIiIGhlaWdodD0iMiIvPjwvc3ZnPg==;fontSize=24;fontStyle=1" parent="1" vertex="1">
                    <mxGeometry x="70" y="750" width="100" height="100" as="geometry"/>
                </mxCell>
                <mxCell id="R7Ilkwoh4phyt-hekFA_-8" value="Software&#10;as a Service" style="shape=image;verticalLabelPosition=bottom;labelBackgroundColor=#ffffff;verticalAlign=top;aspect=fixed;imageAspect=0;image=data:image/svg+xml,PHN2ZyB4bWxucz0iaHR0cDovL3d3dy53My5vcmcvMjAwMC9zdmciIGhlaWdodD0iNjAiIHdpZHRoPSI1OS45OTY3MzA4MDQ0NDMzNiIgZmlsbD0iIzAwMDAwMCIgdmlld0JveD0iMi4wMDMyNjc3NjUwNDUxNjYgMiA1OS45OTY3MzA4MDQ0NDMzNiA2MCIgeD0iMHB4IiB5PSIwcHgiPjxnPjxyZWN0IHg9IjIxIiB5PSI0MiIgd2lkdGg9IjIiIGhlaWdodD0iMiIvPjxyZWN0IHg9IjI1IiB5PSI0MiIgd2lkdGg9IjIiIGhlaWdodD0iMiIvPjxyZWN0IHg9IjI5IiB5PSI0MiIgd2lkdGg9IjIiIGhlaWdodD0iMiIvPjxwYXRoIGQ9Ik0xMywyNmE2LjkxNSw2LjkxNSwwLDAsMCwuNTg2LDIuNzk0bDEuODMyLS44QTQuOTI3LDQuOTI3LDAsMCwxLDE1LDI2YTUuMDA2LDUuMDA2LDAsMCwxLDUtNVYxOUE3LjAwOCw3LjAwOCwwLDAsMCwxMywyNloiLz48cGF0aCBkPSJNNiwzN0g4YTIsMiwwLDAsMSwyLTJWMzNBNCw0LDAsMCwwLDYsMzdaIi8+PHBhdGggZD0iTTYyLDE0VjEwYTEsMSwwLDAsMC0uNzU4LS45N0w1OS45NSw4LjcwN2wuNjg2LTEuMTQyYTEsMSwwLDAsMC0uMTUxLTEuMjIyTDU3LjY1NywzLjUxNWExLDEsMCwwLDAtMS4yMjEtLjE1MWwtMS4xNDMuNjg2TDU0Ljk3LDIuNzU3QTEsMSwwLDAsMCw1NCwySDUwYTEsMSwwLDAsMC0uOTcuNzU3TDQ4LjcwNyw0LjA1bC0xLjE0My0uNjg2YTEsMSwwLDAsMC0xLjIyMS4xNTFMNDMuNTE1LDYuMzQzYTEsMSwwLDAsMC0uMTUxLDEuMjIybC40MzUuNzI0QTEzLjg3MywxMy44NzMsMCwwLDAsNDEsOCwxNC4wNTcsMTQuMDU3LDAsMCwwLDI3LjU4NiwxOC4wNDIsMTEsMTEsMCwwLDAsOS40MjQsMjkuMDIxLDgsOCwwLDAsMCwxMCw0NWg3VjU5YTMsMywwLDAsMCwzLDNINDRhMywzLDAsMCwwLDMtM1Y0NWg3YTgsOCwwLDAsMCwwLTE2aC0uODg1QTEzLjgwNSwxMy44MDUsMCwwLDAsNTUsMjJjMC0uMjU3LS4wMTYtLjUwNi0uMDMtLjc1N2gwbC4zMjMtMS4yOTMsMS4xNDMuNjg2YTEsMSwwLDAsMCwxLjIyMS0uMTUxbDIuODI4LTIuODI4YTEsMSwwLDAsMCwuMTUxLTEuMjIybC0uNjg2LTEuMTQyLDEuMjkyLS4zMjNBMSwxLDAsMCwwLDYyLDE0Wk00NSw0NkgxOVY0MWExLDEsMCwwLDEsMS0xSDMxLjc2NGExLDEsMCwwLDEsLjg5NC41NTNsLjg5NSwxLjc4OUEyLjk4MywyLjk4MywwLDAsMCwzNi4yMzYsNDRINDRhMSwxLDAsMCwxLDEsMVpNNDQsNjBIMjBhMSwxLDAsMCwxLTEtMVY0OEg0NVY1OUExLDEsMCwwLDEsNDQsNjBaTTU0LDMxYTYsNiwwLDAsMSwwLDEySDQ2LjIyQTIuOTg1LDIuOTg1LDAsMCwwLDQ0LDQySDM2LjIzNmExLDEsMCwwLDEtLjg5NC0uNTUzbC0uODk1LTEuNzg5QTIuOTgzLDIuOTgzLDAsMCwwLDMxLjc2NCwzOEgyMGEzLDMsMCwwLDAtMywzdjJIMTBhNiw2LDAsMCwxLDAtMTJoLjg0YTEsMSwwLDAsMCwuOTE2LTEuNEE4Ljg4NSw4Ljg4NSwwLDAsMSwxMSwyNmE5LDksMCwwLDEsMTYuMzI1LTUuMjIsMSwxLDAsMCwwLDEuOC0uNDQyQTEyLjAzOCwxMi4wMzgsMCwwLDEsNDEsMTBjLjMzNywwLC42Ny4wMTcsMSwuMDQ0VjE0YTEsMSwwLDAsMCwuNzU4Ljk3bDEuMjkyLjMyMy0uNjg2LDEuMTQyYTEsMSwwLDAsMCwuMTUxLDEuMjIybDIuODI4LDIuODI4YTEsMSwwLDAsMCwxLjIyMS4xNTFsMS4xNDMtLjY4Ni4zMjMsMS4yOTNBMSwxLDAsMCwwLDUwLDIyaDNhMTEuODc5LDExLjg3OSwwLDAsMS0yLjU1Nyw3LjM4NEExLDEsMCwwLDAsNTEuMjMsMzFabTYtMTcuNzgxLTEuODQ0LjQ2MWExLDEsMCwwLDAtLjYxNSwxLjQ4NWwuOTc5LDEuNjNMNTYuOCwxOC41MTlsLTEuNjMtLjk3OGExLDEsMCwwLDAtMS40ODQuNjE1TDUzLjIxOSwyMEg1MC43ODFsLS40NjItMS44NDRhMSwxLDAsMCwwLTEuNDg0LS42MTVsLTEuNjMuOTc4TDQ1LjQ4LDE2LjhsLjk3OS0xLjYzYTEsMSwwLDAsMC0uNjE1LTEuNDg1TDQ0LDEzLjIxOVYxMC43ODFsMS44NDQtLjQ2MWExLDEsMCwwLDAsLjYxNS0xLjQ4NWwtLjk3OS0xLjYzLDEuNzI1LTEuNzI0LDEuNjMuOTc4YTEsMSwwLDAsMCwxLjQ4NC0uNjE1TDUwLjc4MSw0aDIuNDM4bC40NjIsMS44NDRhMSwxLDAsMCwwLDEuNDg0LjYxNWwxLjYzLS45NzhMNTguNTIsNy4yMDVsLS45NzksMS42M2ExLDEsMCwwLDAsLjYxNSwxLjQ4NUw2MCwxMC43ODFaIi8+PHBhdGggZD0iTTUyLDhhNCw0LDAsMSwwLDQsNEE0LDQsMCwwLDAsNTIsOFptMCw2YTIsMiwwLDEsMSwyLTJBMiwyLDAsMCwxLDUyLDE0WiIvPjxwYXRoIGQ9Ik0zMi42LDIyLjJhMSwxLDAsMCwwLTEuMiwwbC04LDZBMSwxLDAsMCwwLDI0LDMwaDR2NWExLDEsMCwwLDAsMSwxaDZhMSwxLDAsMCwwLDEtMVYzMGg0YTEsMSwwLDAsMCwuNi0xLjhaTTM1LDI4YTEsMSwwLDAsMC0xLDF2NUgzMFYyOWExLDEsMCwwLDAtMS0xSDI3bDUtMy43NUwzNywyOFoiLz48L2c+PC9zdmc+;fontSize=24;fontStyle=1" parent="1" vertex="1">
                    <mxGeometry x="70" y="120" width="100" height="100" as="geometry"/>
                </mxCell>
                <mxCell id="R7Ilkwoh4phyt-hekFA_-9" value="Managed&#10;Containers" style="shape=image;verticalLabelPosition=bottom;labelBackgroundColor=#ffffff;verticalAlign=top;aspect=fixed;imageAspect=0;image=data:image/svg+xml,PHN2ZyB4bWxuczpkYz0iaHR0cDovL3B1cmwub3JnL2RjL2VsZW1lbnRzLzEuMS8iIHhtbG5zOmNjPSJodHRwOi8vY3JlYXRpdmVjb21tb25zLm9yZy9ucyMiIHhtbG5zOnJkZj0iaHR0cDovL3d3dy53My5vcmcvMTk5OS8wMi8yMi1yZGYtc3ludGF4LW5zIyIgeG1sbnM6c3ZnPSJodHRwOi8vd3d3LnczLm9yZy8yMDAwL3N2ZyIgeG1sbnM9Imh0dHA6Ly93d3cudzMub3JnLzIwMDAvc3ZnIiB4bWxuczpzb2RpcG9kaT0iaHR0cDovL3NvZGlwb2RpLnNvdXJjZWZvcmdlLm5ldC9EVEQvc29kaXBvZGktMC5kdGQiIHhtbG5zOmlua3NjYXBlPSJodHRwOi8vd3d3Lmlua3NjYXBlLm9yZy9uYW1lc3BhY2VzL2lua3NjYXBlIiBoZWlnaHQ9Ijk5LjI2NDcyNDczMTQ0NTMxIiB3aWR0aD0iMTExLjQxMTc2NjA1MjI0NjEiIGZpbGw9IiMwMDAwMDAiIHZlcnNpb249IjEuMSIgeD0iMHB4IiB5PSIwcHgiIHZpZXdCb3g9IjQuNzc2NDcwNjYxMTYzMzMgOC43NTI5Mjk2ODc1IDExMS40MTE3NjYwNTIyNDYxIDk5LjI2NDcyNDczMTQ0NTMxIiBzdHlsZT0iZW5hYmxlLWJhY2tncm91bmQ6bmV3IDAgMCAxMjAgMTIwOyIgeG1sOnNwYWNlPSJwcmVzZXJ2ZSIgaWQ9InN2ZzMwIiBzb2RpcG9kaTpkb2NuYW1lPSJjb250YWluZXJzLnN2ZyIgaW5rc2NhcGU6dmVyc2lvbj0iMS4wLjItMiAoZTg2Yzg3MDg3OSwgMjAyMS0wMS0xNSkiPjxtZXRhZGF0YSBpZD0ibWV0YWRhdGEzNiI+PHJkZjpyZGY+PGNjOndvcmsgcmRmOmFib3V0PSIiPjxkYzpmb3JtYXQ+aW1hZ2Uvc3ZnK3htbDwvZGM6Zm9ybWF0PjxkYzp0eXBlIHJkZjpyZXNvdXJjZT0iaHR0cDovL3B1cmwub3JnL2RjL2RjbWl0eXBlL1N0aWxsSW1hZ2UiLz48ZGM6dGl0bGUvPjwvY2M6d29yaz48L3JkZjpyZGY+PC9tZXRhZGF0YT48ZGVmcyBpZD0iZGVmczM0Ii8+PHNvZGlwb2RpOm5hbWVkdmlldyBwYWdlY29sb3I9IiNmZmZmZmYiIGJvcmRlcmNvbG9yPSIjNjY2NjY2IiBib3JkZXJvcGFjaXR5PSIxIiBvYmplY3R0b2xlcmFuY2U9IjEwIiBncmlkdG9sZXJhbmNlPSIxMCIgZ3VpZGV0b2xlcmFuY2U9IjEwIiBpbmtzY2FwZTpwYWdlb3BhY2l0eT0iMCIgaW5rc2NhcGU6cGFnZXNoYWRvdz0iMiIgaW5rc2NhcGU6d2luZG93LXdpZHRoPSIxOTIwIiBpbmtzY2FwZTp3aW5kb3ctaGVpZ2h0PSIxMDE3IiBpZD0ibmFtZWR2aWV3MzIiIHNob3dncmlkPSJmYWxzZSIgaW5rc2NhcGU6em9vbT0iNC4yNSIgaW5rc2NhcGU6Y3g9IjIzLjM1MDU5OCIgaW5rc2NhcGU6Y3k9IjY3LjQ3MTc2OCIgaW5rc2NhcGU6d2luZG93LXg9Ii04IiBpbmtzY2FwZTp3aW5kb3cteT0iMjgwIiBpbmtzY2FwZTp3aW5kb3ctbWF4aW1pemVkPSIxIiBpbmtzY2FwZTpjdXJyZW50LWxheWVyPSJzdmczMCIgaW5rc2NhcGU6ZG9jdW1lbnQtcm90YXRpb249IjAiLz48ZyBpZD0iZzI4IiB0cmFuc2Zvcm09InRyYW5zbGF0ZSgtNS4yMjM1Mjk0LDE0LjExNzY0NykiPjxwYXRoIGQ9Ik0gMTA4LDU4IEggODYgViAyOC4xIGMgMCwtMS4xIC0wLjksLTIgLTIsLTIgSCAzNiBjIC0xLjEsMCAtMiwwLjkgLTIsMiBWIDU4IEggMTIgYyAtMS4xLDAgLTIsMC45IC0yLDIgdiAzMS45IGMgMCwxLjEgMC45LDIgMiwyIGggNDggNDggYyAxLjEsMCAyLC0wLjkgMiwtMiBWIDYwIGMgMCwtMS4xIC0wLjksLTIgLTIsLTIgeiBNIDM4LDMwLjEgSCA4MiBWIDU4IEggNjAgMzggWiBNIDE0LDYyIEggMzYgNTggViA4OS45IEggMTQgWiBtIDkyLDI3LjkgSCA2MiBWIDYyIGggMjIgMjIgeiIgaWQ9InBhdGgxMCIvPjwvZz48ZyBzdHlsZT0iZmlsbDojMDAwMDAwIiBpZD0iZzU5IiB0cmFuc2Zvcm09Im1hdHJpeCgwLjYyNzk0MTE4LDAsMCwwLjYyNzk0MTE4LC0zMC45NjQ3MDYsMzQuNzc2NDcxKSI+PHBhdGggY2xhc3M9IkdyYXBoaWNfeDAwMjBfU3R5bGVfeDAwMjBfMiIgZD0ibSAxMzMuMzM5NTgsMjguMDE2MzkzIGMgMCwtMS4xNTU3MzcgLTAuMTEwMDcsLTIuMjU2NDQgLTAuMzg1MjUsLTMuMzU3MTQzIGwgLTEuMTAwNywtNC42Nzc5ODUgYyAtMC4xNjUxMSwtMC43NzA0OTIgLTAuODI1NTMsLTEuMzIwODQ0IC0xLjU5NjAyLC0xLjMyMDg0NCBoIC0yMC4yNTI5MyBjIC0wLjc3MDQ5LDAgLTEuNDMwOTEsMC41NTAzNTIgLTEuNTk2MDEsMS4yNjU4MDggbCAtMS4xMDA3MSw0LjY3Nzk4NiBjIC0wLjI3NTE3LDEuMTU1NzM4IC0wLjM4NTI0LDIuMjU2NDQxIC0wLjM4NTI0LDMuNDEyMTc4IFYgNTIuMjMxODUgYyAwLDAuOTM1NTk3IDAuNzE1NDUsMS42NTEwNTQgMS42NTEwNSwxLjY1MTA1NCBoIDIzLjExNDc1IGMgMC45MzU2LDAgMS42NTEwNiwtMC43MTU0NTcgMS42NTEwNiwtMS42NTEwNTQgViAyOC4wMTYzOTMgYyAwLDAgMCwwIDAsMCAwLDAgMCwwIDAsMCB6IG0gLTIzLjg4NTI1LC03LjgxNDk4OCBjIDAuMDU1LC0wLjI3NTE3NiAwLjI3NTE4LC0wLjQ0MDI4MSAwLjU1MDM1LC0wLjQ0MDI4MSBoIDIwLjI1MjkzIGMgMC4yNzUxOCwwIDAuNDk1MzIsMC4xNjUxMDUgMC41NTAzNSwwLjQ0MDI4MSBsIDEuMTAwNzEsNC42Nzc5ODYgYyAwLjExMDA3LDAuNDk1MzE2IDAuMjIwMTQsMS4wNDU2NjcgMC4yNzUxNywxLjU0MDk4NCAtMC4xNjUxLDAgLTAuMzMwMjEsLTAuMDU1MDQgLTAuNDk1MzIsLTAuMDU1MDQgaCAtMjMuMTE0NzUgYyAtMC4xNjUxLDAgLTAuMzMwMjEsMC4wNTUwNCAtMC40NDAyOCwwLjA1NTA0IDAuMDU1LC0wLjU1MDM1MiAwLjE2NTEsLTEuMDQ1NjY4IDAuMjc1MTgsLTEuNTQwOTg0IHogbSAyMi4yMzQxOSwzMi41ODA3OTYgaCAtMjMuMTE0NzUgYyAtMC4zMzAyMSwwIC0wLjU1MDM1LC0wLjIyMDE0IC0wLjU1MDM1LC0wLjU1MDM1MSBWIDQwLjY3NDQ3MyBoIDYuMDUzODYgYyAwLjMzMDIxLDAgMC41NTAzNSwtMC4yMjAxNCAwLjU1MDM1LC0wLjU1MDM1MSAwLC0wLjMzMDIxMSAtMC4yMjAxNCwtMC41NTAzNTIgLTAuNTUwMzUsLTAuNTUwMzUyIGggLTYuMDUzODYgdiAtNS41MDM1MTIgaCA0LjQwMjgxIGMgMC4zMzAyMSwwIDAuNTUwMzUsLTAuMjIwMTQxIDAuNTUwMzUsLTAuNTUwMzUyIDAsLTAuMzMwMjExIC0wLjIyMDE0LC0wLjU1MDM1MSAtMC41NTAzNSwtMC41NTAzNTEgaCAtNC40MDI4MSB2IC00Ljk1MzE2MiBjIDAsLTAuMzMwMjEgMC4yMjAxNCwtMC41NTAzNTEgMC41NTAzNSwtMC41NTAzNTEgaCAyMy4xMTQ3NSBjIDAuMzMwMjIsMCAwLjU1MDM2LDAuMjIwMTQxIDAuNTUwMzYsMC41NTAzNTEgdiA0Ljk1MzE2MiBoIC0xNC44NTk0OSBjIC0wLjMzMDIxLDAgLTAuNTUwMzUsMC4yMjAxNCAtMC41NTAzNSwwLjU1MDM1MSAwLDAuMzMwMjExIDAuMjIwMTQsMC41NTAzNTIgMC41NTAzNSwwLjU1MDM1MiBoIDE0Ljg1OTQ5IHYgNS41MDM1MTIgaCAtMTQuODU5NDkgYyAtMC4zMzAyMSwwIC0wLjU1MDM1LDAuMjIwMTQxIC0wLjU1MDM1LDAuNTUwMzUyIDAsMC4zMzAyMTEgMC4yMjAxNCwwLjU1MDM1MSAwLjU1MDM1LDAuNTUwMzUxIGggMTQuODU5NDkgdiA1LjUwMzUxMyBoIC0yMi41NjQ0MSBjIC0wLjMzMDIxLDAgLTAuNTUwMzUsMC4yMjAxNCAtMC41NTAzNSwwLjU1MDM1MSAwLDAuMzMwMjExIDAuMjIwMTQsMC41NTAzNTIgMC41NTAzNSwwLjU1MDM1MiBoIDIyLjU2NDQxIHYgNC45NTMxNjEgYyAwLDAuMzMwMjExIC0wLjIyMDE0LDAuNTUwMzUxIC0wLjU1MDM2LDAuNTUwMzUxIHogbSAtMi43NTE3NSwtMjEuNDYzNyB2IC0yLjIwMTQwNSBjIDAsLTAuMzMwMjExIDAuMjIwMTQsLTAuNTUwMzUxIDAuNTUwMzUsLTAuNTUwMzUxIDAuMzMwMjEsMCAwLjU1MDM1LDAuMjIwMTQgMC41NTAzNSwwLjU1MDM1MSB2IDIuMjAxNDA1IGMgMCwwLjMzMDIxMSAtMC4yMjAxNCwwLjU1MDM1MSAtMC41NTAzNSwwLjU1MDM1MSAtMC4zMzAyMSwwIC0wLjU1MDM1LC0wLjIyMDE0IC0wLjU1MDM1LC0wLjU1MDM1MSB6IG0gLTIuMjAxNDEsMCB2IC0yLjIwMTQwNSBjIDAsLTAuMzMwMjExIDAuMjIwMTQsLTAuNTUwMzUxIDAuNTUwMzUsLTAuNTUwMzUxIDAuMzMwMjIsMCAwLjU1MDM2LDAuMjIwMTQgMC41NTAzNiwwLjU1MDM1MSB2IDIuMjAxNDA1IGMgMCwwLjMzMDIxMSAtMC4yMjAxNCwwLjU1MDM1MSAtMC41NTAzNiwwLjU1MDM1MSAtMC4zMzAyMSwwIC0wLjU1MDM1LC0wLjIyMDE0IC0wLjU1MDM1LC0wLjU1MDM1MSB6IG0gLTIuMjAxNCwwIHYgLTIuMjAxNDA1IGMgMCwtMC4zMzAyMTEgMC4yMjAxNCwtMC41NTAzNTEgMC41NTAzNSwtMC41NTAzNTEgMC4zMzAyMSwwIDAuNTUwMzUsMC4yMjAxNCAwLjU1MDM1LDAuNTUwMzUxIHYgMi4yMDE0MDUgYyAwLDAuMzMwMjExIC0wLjIyMDE0LDAuNTUwMzUxIC0wLjU1MDM1LDAuNTUwMzUxIC0wLjMzMDIxLDAgLTAuNTUwMzUsLTAuMjIwMTQgLTAuNTUwMzUsLTAuNTUwMzUxIHogbSAtMi4yMDE0MSwwIHYgLTIuMjAxNDA1IGMgMCwtMC4zMzAyMTEgMC4yMjAxNCwtMC41NTAzNTEgMC41NTAzNSwtMC41NTAzNTEgMC4zMzAyMSwwIDAuNTUwMzYsMC4yMjAxNCAwLjU1MDM2LDAuNTUwMzUxIHYgMi4yMDE0MDUgYyAwLDAuMzMwMjExIC0wLjIyMDE1LDAuNTUwMzUxIC0wLjU1MDM2LDAuNTUwMzUxIC0wLjMzMDIxLDAgLTAuNTUwMzUsLTAuMjIwMTQgLTAuNTUwMzUsLTAuNTUwMzUxIHogbSAtMi4yMDE0LDAgdiAtMi4yMDE0MDUgYyAwLC0wLjMzMDIxMSAwLjIyMDE0LC0wLjU1MDM1MSAwLjU1MDM1LC0wLjU1MDM1MSAwLjMzMDIxLDAgMC41NTAzNSwwLjIyMDE0IDAuNTUwMzUsMC41NTAzNTEgdiAyLjIwMTQwNSBjIDAsMC4zMzAyMTEgLTAuMjIwMTQsMC41NTAzNTEgLTAuNTUwMzUsMC41NTAzNTEgLTAuMzMwMjEsMCAtMC41NTAzNSwtMC4yMjAxNCAtMC41NTAzNSwtMC41NTAzNTEgeiBtIDguODA1NjIsNi42MDQyMTYgdiAtMi4yMDE0MDYgYyAwLC0wLjMzMDIxIDAuMjIwMTQsLTAuNTUwMzUxIDAuNTUwMzUsLTAuNTUwMzUxIDAuMzMwMjEsMCAwLjU1MDM1LDAuMjIwMTQxIDAuNTUwMzUsMC41NTAzNTEgdiAyLjIwMTQwNiBjIDAsMC4zMzAyMSAtMC4yMjAxNCwwLjU1MDM1MSAtMC41NTAzNSwwLjU1MDM1MSAtMC4zMzAyMSwwIC0wLjU1MDM1LC0wLjIyMDE0MSAtMC41NTAzNSwtMC41NTAzNTEgeiBtIC0yLjIwMTQxLDAgdiAtMi4yMDE0MDYgYyAwLC0wLjMzMDIxIDAuMjIwMTQsLTAuNTUwMzUxIDAuNTUwMzUsLTAuNTUwMzUxIDAuMzMwMjIsMCAwLjU1MDM2LDAuMjIwMTQxIDAuNTUwMzYsMC41NTAzNTEgdiAyLjIwMTQwNiBjIDAsMC4zMzAyMSAtMC4yMjAxNCwwLjU1MDM1MSAtMC41NTAzNiwwLjU1MDM1MSAtMC4zMzAyMSwwIC0wLjU1MDM1LC0wLjIyMDE0MSAtMC41NTAzNSwtMC41NTAzNTEgeiBtIC0yLjIwMTQsMCB2IC0yLjIwMTQwNiBjIDAsLTAuMzMwMjEgMC4yMjAxNCwtMC41NTAzNTEgMC41NTAzNSwtMC41NTAzNTEgMC4zMzAyMSwwIDAuNTUwMzUsMC4yMjAxNDEgMC41NTAzNSwwLjU1MDM1MSB2IDIuMjAxNDA2IGMgMCwwLjMzMDIxIC0wLjIyMDE0LDAuNTUwMzUxIC0wLjU1MDM1LDAuNTUwMzUxIC0wLjMzMDIxLDAgLTAuNTUwMzUsLTAuMjIwMTQxIC0wLjU1MDM1LC0wLjU1MDM1MSB6IG0gLTIuMjAxNDEsMCB2IC0yLjIwMTQwNiBjIDAsLTAuMzMwMjEgMC4yMjAxNCwtMC41NTAzNTEgMC41NTAzNSwtMC41NTAzNTEgMC4zMzAyMSwwIDAuNTUwMzYsMC4yMjAxNDEgMC41NTAzNiwwLjU1MDM1MSB2IDIuMjAxNDA2IGMgMCwwLjMzMDIxIC0wLjIyMDE1LDAuNTUwMzUxIC0wLjU1MDM2LDAuNTUwMzUxIC0wLjMzMDIxLDAgLTAuNTUwMzUsLTAuMjIwMTQxIC0wLjU1MDM1LC0wLjU1MDM1MSB6IG0gLTIuMjAxNCwwIHYgLTIuMjAxNDA2IGMgMCwtMC4zMzAyMSAwLjIyMDE0LC0wLjU1MDM1MSAwLjU1MDM1LC0wLjU1MDM1MSAwLjMzMDIxLDAgMC41NTAzNSwwLjIyMDE0MSAwLjU1MDM1LDAuNTUwMzUxIHYgMi4yMDE0MDYgYyAwLDAuMzMwMjEgLTAuMjIwMTQsMC41NTAzNTEgLTAuNTUwMzUsMC41NTAzNTEgLTAuMzMwMjEsMCAtMC41NTAzNSwtMC4yMjAxNDEgLTAuNTUwMzUsLTAuNTUwMzUxIHogbSA4LjgwNTYyLDYuNjA0MjE1IHYgLTIuMjAxNDA1IGMgMCwtMC4zMzAyMTEgMC4yMjAxNCwtMC41NTAzNTEgMC41NTAzNSwtMC41NTAzNTEgMC4zMzAyMSwwIDAuNTUwMzUsMC4yMjAxNCAwLjU1MDM1LDAuNTUwMzUxIHYgMi4yMDE0MDUgYyAwLDAuMzMwMjExIC0wLjIyMDE0LDAuNTUwMzUxIC0wLjU1MDM1LDAuNTUwMzUxIC0wLjMzMDIxLDAgLTAuNTUwMzUsLTAuMjIwMTQgLTAuNTUwMzUsLTAuNTUwMzUxIHogbSAtMi4yMDE0MSwwIHYgLTIuMjAxNDA1IGMgMCwtMC4zMzAyMTEgMC4yMjAxNCwtMC41NTAzNTEgMC41NTAzNSwtMC41NTAzNTEgMC4zMzAyMiwwIDAuNTUwMzYsMC4yMjAxNCAwLjU1MDM2LDAuNTUwMzUxIHYgMi4yMDE0MDUgYyAwLDAuMzMwMjExIC0wLjIyMDE0LDAuNTUwMzUxIC0wLjU1MDM2LDAuNTUwMzUxIC0wLjMzMDIxLDAgLTAuNTUwMzUsLTAuMjIwMTQgLTAuNTUwMzUsLTAuNTUwMzUxIHogbSAtMi4yMDE0LDAgdiAtMi4yMDE0MDUgYyAwLC0wLjMzMDIxMSAwLjIyMDE0LC0wLjU1MDM1MSAwLjU1MDM1LC0wLjU1MDM1MSAwLjMzMDIxLDAgMC41NTAzNSwwLjIyMDE0IDAuNTUwMzUsMC41NTAzNTEgdiAyLjIwMTQwNSBjIDAsMC4zMzAyMTEgLTAuMjIwMTQsMC41NTAzNTEgLTAuNTUwMzUsMC41NTAzNTEgLTAuMzMwMjEsMCAtMC41NTAzNSwtMC4yMjAxNCAtMC41NTAzNSwtMC41NTAzNTEgeiBtIC0yLjIwMTQxLDAgdiAtMi4yMDE0MDUgYyAwLC0wLjMzMDIxMSAwLjIyMDE0LC0wLjU1MDM1MSAwLjU1MDM1LC0wLjU1MDM1MSAwLjMzMDIxLDAgMC41NTAzNiwwLjIyMDE0IDAuNTUwMzYsMC41NTAzNTEgdiAyLjIwMTQwNSBjIDAsMC4zMzAyMTEgLTAuMjIwMTUsMC41NTAzNTEgLTAuNTUwMzYsMC41NTAzNTEgLTAuMzMwMjEsMCAtMC41NTAzNSwtMC4yMjAxNCAtMC41NTAzNSwtMC41NTAzNTEgeiBtIC0yLjIwMTQsMCB2IC0yLjIwMTQwNSBjIDAsLTAuMzMwMjExIDAuMjIwMTQsLTAuNTUwMzUxIDAuNTUwMzUsLTAuNTUwMzUxIDAuMzMwMjEsMCAwLjU1MDM1LDAuMjIwMTQgMC41NTAzNSwwLjU1MDM1MSB2IDIuMjAxNDA1IGMgMCwwLjMzMDIxMSAtMC4yMjAxNCwwLjU1MDM1MSAtMC41NTAzNSwwLjU1MDM1MSAtMC4zMzAyMSwwIC0wLjU1MDM1LC0wLjIyMDE0IC0wLjU1MDM1LC0wLjU1MDM1MSB6IG0gOS45MDYzMiw0LjQwMjgxIHYgMi4yMDE0MDYgYyAwLDAuMzMwMjEgLTAuMjIwMTQsMC41NTAzNTEgLTAuNTUwMzUsMC41NTAzNTEgLTAuMzMwMjEsMCAtMC41NTAzNSwtMC4yMjAxNDEgLTAuNTUwMzUsLTAuNTUwMzUxIHYgLTIuMjAxNDA2IGMgMCwtMC4zMzAyMSAwLjIyMDE0LC0wLjU1MDM1MSAwLjU1MDM1LC0wLjU1MDM1MSAwLjMzMDIxLDAgMC41NTAzNSwwLjIyMDE0MSAwLjU1MDM1LDAuNTUwMzUxIHogbSAtMi4yMDE0LDAgdiAyLjIwMTQwNiBjIDAsMC4zMzAyMSAtMC4yMjAxNCwwLjU1MDM1MSAtMC41NTAzNiwwLjU1MDM1MSAtMC4zMzAyMSwwIC0wLjU1MDM1LC0wLjIyMDE0MSAtMC41NTAzNSwtMC41NTAzNTEgdiAtMi4yMDE0MDYgYyAwLC0wLjMzMDIxIDAuMjIwMTQsLTAuNTUwMzUxIDAuNTUwMzUsLTAuNTUwMzUxIDAuMzMwMjIsMCAwLjU1MDM2LDAuMjIwMTQxIDAuNTUwMzYsMC41NTAzNTEgeiBtIC0yLjIwMTQxLDAgdiAyLjIwMTQwNiBjIDAsMC4zMzAyMSAtMC4yMjAxNCwwLjU1MDM1MSAtMC41NTAzNSwwLjU1MDM1MSAtMC4zMzAyMSwwIC0wLjU1MDM1LC0wLjIyMDE0MSAtMC41NTAzNSwtMC41NTAzNTEgdiAtMi4yMDE0MDYgYyAwLC0wLjMzMDIxIDAuMjIwMTQsLTAuNTUwMzUxIDAuNTUwMzUsLTAuNTUwMzUxIDAuMzMwMjEsMCAwLjU1MDM1LDAuMjIwMTQxIDAuNTUwMzUsMC41NTAzNTEgeiBtIC0yLjIwMTQsMCB2IDIuMjAxNDA2IGMgMCwwLjMzMDIxIC0wLjIyMDE1LDAuNTUwMzUxIC0wLjU1MDM2LDAuNTUwMzUxIC0wLjMzMDIxLDAgLTAuNTUwMzUsLTAuMjIwMTQxIC0wLjU1MDM1LC0wLjU1MDM1MSB2IC0yLjIwMTQwNiBjIDAsLTAuMzMwMjEgMC4yMjAxNCwtMC41NTAzNTEgMC41NTAzNSwtMC41NTAzNTEgMC4zMzAyMSwwIDAuNTUwMzYsMC4yMjAxNDEgMC41NTAzNiwwLjU1MDM1MSB6IG0gLTIuMjAxNDEsMCB2IDIuMjAxNDA2IGMgMCwwLjMzMDIxIC0wLjIyMDE0LDAuNTUwMzUxIC0wLjU1MDM1LDAuNTUwMzUxIC0wLjMzMDIxLDAgLTAuNTUwMzUsLTAuMjIwMTQxIC0wLjU1MDM1LC0wLjU1MDM1MSB2IC0yLjIwMTQwNiBjIDAsLTAuMzMwMjEgMC4yMjAxNCwtMC41NTAzNTEgMC41NTAzNSwtMC41NTAzNTEgMC4zMzAyMSwwIDAuNTUwMzUsMC4yMjAxNDEgMC41NTAzNSwwLjU1MDM1MSB6IG0gMS42NTEwNSwtMjcuNTE3NTY0IGMgMCwtMC4zMzAyMTEgMC4yMjAxNCwtMC41NTAzNTEgMC41NTAzNiwtMC41NTAzNTEgaCA2LjA1Mzg2IGMgMC4zMzAyMSwwIDAuNTUwMzUsMC4yMjAxNCAwLjU1MDM1LDAuNTUwMzUxIDAsMC4zMzAyMTEgLTAuMjIwMTQsMC41NTAzNTEgLTAuNTUwMzUsMC41NTAzNTEgaCAtNi4wNTM4NiBjIC0wLjMzMDIyLDAgLTAuNTUwMzYsLTAuMjIwMTQgLTAuNTUwMzYsLTAuNTUwMzUxIHogbSAwLDEuNjUxMDU0IGMgMCwtMC4zMzAyMTEgMC4yMjAxNCwtMC41NTAzNTIgMC41NTAzNiwtMC41NTAzNTIgaCA2LjA1Mzg2IGMgMC4zMzAyMSwwIDAuNTUwMzUsMC4yMjAxNDEgMC41NTAzNSwwLjU1MDM1MiAwLDAuMzMwMjExIC0wLjIyMDE0LDAuNTUwMzUxIC0wLjU1MDM1LDAuNTUwMzUxIGggLTYuMDUzODYgYyAtMC4zMzAyMiwwIC0wLjU1MDM2LC0wLjIyMDE0IC0wLjU1MDM2LC0wLjU1MDM1MSB6IG0gLTguODA1NjIsNy40Mjk3NDIgYyAwLDAuNDQwMjgxIC0wLjM4NTI0LDAuODI1NTI3IC0wLjgyNTUyLDAuODI1NTI3IC0wLjQ0MDI4LDAgLTAuODI1NTMsLTAuMzg1MjQ2IC0wLjgyNTUzLC0wLjgyNTUyNyAwLC0wLjQ0MDI4MSAwLjM4NTI1LC0wLjgyNTUyNyAwLjgyNTUzLC0wLjgyNTUyNyAwLjQ0MDI4LDAgMC44MjU1MiwwLjM4NTI0NiAwLjgyNTUyLDAuODI1NTI3IHogbSAwLjU1MDM1LDAgYyAwLC0wLjQ0MDI4MSAwLjM4NTI1LC0wLjgyNTUyNyAwLjgyNTUzLC0wLjgyNTUyNyAwLjQ0MDI4LDAgMC44MjU1MywwLjM4NTI0NiAwLjgyNTUzLDAuODI1NTI3IDAsMC40NDAyODEgLTAuMzg1MjUsMC44MjU1MjcgLTAuODI1NTMsMC44MjU1MjcgLTAuNDQwMjgsMCAtMC44MjU1MywtMC4zODUyNDYgLTAuODI1NTMsLTAuODI1NTI3IHogbSAtMi43NTE3NSw2LjYwNDIxNiBjIDAsMC40NDAyODEgLTAuMzg1MjUsMC44MjU1MjcgLTAuODI1NTMsMC44MjU1MjcgLTAuNDQwMjgsMCAtMC44MjU1MywtMC4zODUyNDYgLTAuODI1NTMsLTAuODI1NTI3IDAsLTAuNDQwMjgxIDAuMzg1MjUsLTAuODI1NTI3IDAuODI1NTMsLTAuODI1NTI3IDAuNDQwMjgsMCAwLjgyNTUzLDAuMzg1MjQ2IDAuODI1NTMsMC44MjU1MjcgeiBtIDIuMjAxNCwwIGMgMCwwLjQ0MDI4MSAtMC4zODUyNCwwLjgyNTUyNyAtMC44MjU1MiwwLjgyNTUyNyAtMC40NDAyOCwwIC0wLjgyNTUzLC0wLjM4NTI0NiAtMC44MjU1MywtMC44MjU1MjcgMCwtMC40NDAyODEgMC4zODUyNSwtMC44MjU1MjcgMC44MjU1MywtMC44MjU1MjcgMC40NDAyOCwwIDAuODI1NTIsMC4zODUyNDYgMC44MjU1MiwwLjgyNTUyNyB6IG0gMC41NTAzNSwwIGMgMCwtMC40NDAyODEgMC4zODUyNSwtMC44MjU1MjcgMC44MjU1MywtMC44MjU1MjcgMC40NDAyOCwwIDAuODI1NTMsMC4zODUyNDYgMC44MjU1MywwLjgyNTUyNyAwLDAuNDQwMjgxIC0wLjM4NTI1LDAuODI1NTI3IC0wLjgyNTUzLDAuODI1NTI3IC0wLjQ0MDI4LDAgLTAuODI1NTMsLTAuMzg1MjQ2IC0wLjgyNTUzLC0wLjgyNTUyNyB6IG0gLTQuNDAyODEsNi42MDQyMTUgYyAwLC0wLjQ0MDI4MSAwLjM4NTI1LC0wLjgyNTUyNyAwLjgyNTUzLC0wLjgyNTUyNyAwLjQ0MDI4LDAgMC44MjU1MywwLjM4NTI0NiAwLjgyNTUzLDAuODI1NTI3IDAsMC40NDAyODEgLTAuMzg1MjUsMC44MjU1MjcgLTAuODI1NTMsMC44MjU1MjcgLTAuNDQwMjgsMCAtMC44MjU1MywtMC4zODUyNDYgLTAuODI1NTMsLTAuODI1NTI3IHogbSAyLjIwMTQxLDAgYyAwLC0wLjQ0MDI4MSAwLjM4NTI1LC0wLjgyNTUyNyAwLjgyNTUzLC0wLjgyNTUyNyAwLjQ0MDI4LDAgMC44MjU1MiwwLjM4NTI0NiAwLjgyNTUyLDAuODI1NTI3IDAsMC40NDAyODEgLTAuMzg1MjQsMC44MjU1MjcgLTAuODI1NTIsMC44MjU1MjcgLTAuNDQwMjgsMCAtMC44MjU1MywtMC4zODUyNDYgLTAuODI1NTMsLTAuODI1NTI3IHogbSAyLjIwMTQsMCBjIDAsLTAuNDQwMjgxIDAuMzg1MjUsLTAuODI1NTI3IDAuODI1NTMsLTAuODI1NTI3IDAuNDQwMjgsMCAwLjgyNTUzLDAuMzg1MjQ2IDAuODI1NTMsMC44MjU1MjcgMCwwLjQ0MDI4MSAtMC4zODUyNSwwLjgyNTUyNyAtMC44MjU1MywwLjgyNTUyNyAtMC40NDAyOCwwIC0wLjgyNTUzLC0wLjM4NTI0NiAtMC44MjU1MywtMC44MjU1MjcgeiBtIC0yLjc1MTc1LDYuNjA0MjE2IGMgMCwwLjQ0MDI4MSAtMC4zODUyNSwwLjgyNTUyNyAtMC44MjU1MywwLjgyNTUyNyAtMC40NDAyOCwwIC0wLjgyNTUzLC0wLjM4NTI0NiAtMC44MjU1MywtMC44MjU1MjcgMCwtMC40NDAyODEgMC4zODUyNSwtMC44MjU1MjcgMC44MjU1MywtMC44MjU1MjcgMC40NDAyOCwwIDAuODI1NTMsMC4zODUyNDYgMC44MjU1MywwLjgyNTUyNyB6IG0gMi4yMDE0LDAgYyAwLDAuNDQwMjgxIC0wLjM4NTI0LDAuODI1NTI3IC0wLjgyNTUyLDAuODI1NTI3IC0wLjQ0MDI4LDAgLTAuODI1NTMsLTAuMzg1MjQ2IC0wLjgyNTUzLC0wLjgyNTUyNyAwLC0wLjQ0MDI4MSAwLjM4NTI1LC0wLjgyNTUyNyAwLjgyNTUzLC0wLjgyNTUyNyAwLjQ0MDI4LDAgMC44MjU1MiwwLjM4NTI0NiAwLjgyNTUyLDAuODI1NTI3IHogbSAyLjIwMTQxLDAgYyAwLDAuNDQwMjgxIC0wLjM4NTI1LDAuODI1NTI3IC0wLjgyNTUzLDAuODI1NTI3IC0wLjQ0MDI4LDAgLTAuODI1NTMsLTAuMzg1MjQ2IC0wLjgyNTUzLC0wLjgyNTUyNyAwLC0wLjQ0MDI4MSAwLjM4NTI1LC0wLjgyNTUyNyAwLjgyNTUzLC0wLjgyNTUyNyAwLjQ0MDI4LDAgMC44MjU1MywwLjM4NTI0NiAwLjgyNTUzLDAuODI1NTI3IHogbSAtNC40MDI4MSwtMTkuODEyNjQ3IGMgMCwwLjQ0MDI4MSAtMC4zODUyNSwwLjgyNTUyNyAtMC44MjU1MywwLjgyNTUyNyAtMC40NDAyOCwwIC0wLjgyNTUzLC0wLjM4NTI0NiAtMC44MjU1MywtMC44MjU1MjcgMCwtMC40NDAyODEgMC4zODUyNSwtMC44MjU1MjcgMC44MjU1MywtMC44MjU1MjcgMC40NDAyOCwwIDAuODI1NTMsMC4zODUyNDYgMC44MjU1MywwLjgyNTUyNyB6IiBpZD0icGF0aDQ4IiBzdHlsZT0ic3Ryb2tlLXdpZHRoOjAuNTUwMzUxIi8+PHBhdGggY2xhc3M9IkdyYXBoaWNfeDAwMjBfU3R5bGVfeDAwMjBfMiIgZD0ibSAxNjYuNjEzNTgsMjguMDE2MzkzIGMgMCwtMS4xNTU3MzcgLTAuMTEwMDcsLTIuMjU2NDQgLTAuMzg1MjUsLTMuMzU3MTQzIGwgLTEuMTAwNywtNC42Nzc5ODUgYyAtMC4xNjUxMSwtMC43NzA0OTIgLTAuODI1NTMsLTEuMzIwODQ0IC0xLjU5NjAyLC0xLjMyMDg0NCBoIC0yMC4yNTI5MyBjIC0wLjc3MDQ5LDAgLTEuNDMwOTEsMC41NTAzNTIgLTEuNTk2MDEsMS4yNjU4MDggbCAtMS4xMDA3MSw0LjY3Nzk4NiBjIC0wLjI3NTE3LDEuMTU1NzM4IC0wLjM4NTI0LDIuMjU2NDQxIC0wLjM4NTI0LDMuNDEyMTc4IFYgNTIuMjMxODUgYyAwLDAuOTM1NTk3IDAuNzE1NDUsMS42NTEwNTQgMS42NTEwNSwxLjY1MTA1NCBoIDIzLjExNDc1IGMgMC45MzU2LDAgMS42NTEwNiwtMC43MTU0NTcgMS42NTEwNiwtMS42NTEwNTQgViAyOC4wMTYzOTMgYyAwLDAgMCwwIDAsMCAwLDAgMCwwIDAsMCB6IG0gLTIzLjg4NTI1LC03LjgxNDk4OCBjIDAuMDU1LC0wLjI3NTE3NiAwLjI3NTE4LC0wLjQ0MDI4MSAwLjU1MDM1LC0wLjQ0MDI4MSBoIDIwLjI1MjkzIGMgMC4yNzUxOCwwIDAuNDk1MzIsMC4xNjUxMDUgMC41NTAzNSwwLjQ0MDI4MSBsIDEuMTAwNzEsNC42Nzc5ODYgYyAwLjExMDA3LDAuNDk1MzE2IDAuMjIwMTQsMS4wNDU2NjcgMC4yNzUxNywxLjU0MDk4NCAtMC4xNjUxLDAgLTAuMzMwMjEsLTAuMDU1MDQgLTAuNDk1MzIsLTAuMDU1MDQgaCAtMjMuMTE0NzUgYyAtMC4xNjUxLDAgLTAuMzMwMjEsMC4wNTUwNCAtMC40NDAyOCwwLjA1NTA0IDAuMDU1LC0wLjU1MDM1MiAwLjE2NTEsLTEuMDQ1NjY4IDAuMjc1MTgsLTEuNTQwOTg0IHogbSAyMi4yMzQxOSwzMi41ODA3OTYgaCAtMjMuMTE0NzUgYyAtMC4zMzAyMSwwIC0wLjU1MDM1LC0wLjIyMDE0IC0wLjU1MDM1LC0wLjU1MDM1MSBWIDQwLjY3NDQ3MyBoIDYuMDUzODYgYyAwLjMzMDIxLDAgMC41NTAzNSwtMC4yMjAxNCAwLjU1MDM1LC0wLjU1MDM1MSAwLC0wLjMzMDIxMSAtMC4yMjAxNCwtMC41NTAzNTIgLTAuNTUwMzUsLTAuNTUwMzUyIGggLTYuMDUzODYgdiAtNS41MDM1MTIgaCA0LjQwMjgxIGMgMC4zMzAyMSwwIDAuNTUwMzUsLTAuMjIwMTQxIDAuNTUwMzUsLTAuNTUwMzUyIDAsLTAuMzMwMjExIC0wLjIyMDE0LC0wLjU1MDM1MSAtMC41NTAzNSwtMC41NTAzNTEgaCAtNC40MDI4MSB2IC00Ljk1MzE2MiBjIDAsLTAuMzMwMjEgMC4yMjAxNCwtMC41NTAzNTEgMC41NTAzNSwtMC41NTAzNTEgaCAyMy4xMTQ3NSBjIDAuMzMwMjIsMCAwLjU1MDM2LDAuMjIwMTQxIDAuNTUwMzYsMC41NTAzNTEgdiA0Ljk1MzE2MiBoIC0xNC44NTk0OSBjIC0wLjMzMDIxLDAgLTAuNTUwMzUsMC4yMjAxNCAtMC41NTAzNSwwLjU1MDM1MSAwLDAuMzMwMjExIDAuMjIwMTQsMC41NTAzNTIgMC41NTAzNSwwLjU1MDM1MiBoIDE0Ljg1OTQ5IHYgNS41MDM1MTIgaCAtMTQuODU5NDkgYyAtMC4zMzAyMSwwIC0wLjU1MDM1LDAuMjIwMTQxIC0wLjU1MDM1LDAuNTUwMzUyIDAsMC4zMzAyMTEgMC4yMjAxNCwwLjU1MDM1MSAwLjU1MDM1LDAuNTUwMzUxIGggMTQuODU5NDkgdiA1LjUwMzUxMyBoIC0yMi41NjQ0MSBjIC0wLjMzMDIxLDAgLTAuNTUwMzUsMC4yMjAxNCAtMC41NTAzNSwwLjU1MDM1MSAwLDAuMzMwMjExIDAuMjIwMTQsMC41NTAzNTIgMC41NTAzNSwwLjU1MDM1MiBoIDIyLjU2NDQxIHYgNC45NTMxNjEgYyAwLDAuMzMwMjExIC0wLjIyMDE0LDAuNTUwMzUxIC0wLjU1MDM2LDAuNTUwMzUxIHogbSAtMi43NTE3NSwtMjEuNDYzNyB2IC0yLjIwMTQwNSBjIDAsLTAuMzMwMjExIDAuMjIwMTQsLTAuNTUwMzUxIDAuNTUwMzUsLTAuNTUwMzUxIDAuMzMwMjEsMCAwLjU1MDM1LDAuMjIwMTQgMC41NTAzNSwwLjU1MDM1MSB2IDIuMjAxNDA1IGMgMCwwLjMzMDIxMSAtMC4yMjAxNCwwLjU1MDM1MSAtMC41NTAzNSwwLjU1MDM1MSAtMC4zMzAyMSwwIC0wLjU1MDM1LC0wLjIyMDE0IC0wLjU1MDM1LC0wLjU1MDM1MSB6IG0gLTIuMjAxNDEsMCB2IC0yLjIwMTQwNSBjIDAsLTAuMzMwMjExIDAuMjIwMTQsLTAuNTUwMzUxIDAuNTUwMzUsLTAuNTUwMzUxIDAuMzMwMjIsMCAwLjU1MDM2LDAuMjIwMTQgMC41NTAzNiwwLjU1MDM1MSB2IDIuMjAxNDA1IGMgMCwwLjMzMDIxMSAtMC4yMjAxNCwwLjU1MDM1MSAtMC41NTAzNiwwLjU1MDM1MSAtMC4zMzAyMSwwIC0wLjU1MDM1LC0wLjIyMDE0IC0wLjU1MDM1LC0wLjU1MDM1MSB6IG0gLTIuMjAxNCwwIHYgLTIuMjAxNDA1IGMgMCwtMC4zMzAyMTEgMC4yMjAxNCwtMC41NTAzNTEgMC41NTAzNSwtMC41NTAzNTEgMC4zMzAyMSwwIDAuNTUwMzUsMC4yMjAxNCAwLjU1MDM1LDAuNTUwMzUxIHYgMi4yMDE0MDUgYyAwLDAuMzMwMjExIC0wLjIyMDE0LDAuNTUwMzUxIC0wLjU1MDM1LDAuNTUwMzUxIC0wLjMzMDIxLDAgLTAuNTUwMzUsLTAuMjIwMTQgLTAuNTUwMzUsLTAuNTUwMzUxIHogbSAtMi4yMDE0MSwwIHYgLTIuMjAxNDA1IGMgMCwtMC4zMzAyMTEgMC4yMjAxNCwtMC41NTAzNTEgMC41NTAzNSwtMC41NTAzNTEgMC4zMzAyMSwwIDAuNTUwMzYsMC4yMjAxNCAwLjU1MDM2LDAuNTUwMzUxIHYgMi4yMDE0MDUgYyAwLDAuMzMwMjExIC0wLjIyMDE1LDAuNTUwMzUxIC0wLjU1MDM2LDAuNTUwMzUxIC0wLjMzMDIxLDAgLTAuNTUwMzUsLTAuMjIwMTQgLTAuNTUwMzUsLTAuNTUwMzUxIHogbSAtMi4yMDE0LDAgdiAtMi4yMDE0MDUgYyAwLC0wLjMzMDIxMSAwLjIyMDE0LC0wLjU1MDM1MSAwLjU1MDM1LC0wLjU1MDM1MSAwLjMzMDIxLDAgMC41NTAzNSwwLjIyMDE0IDAuNTUwMzUsMC41NTAzNTEgdiAyLjIwMTQwNSBjIDAsMC4zMzAyMTEgLTAuMjIwMTQsMC41NTAzNTEgLTAuNTUwMzUsMC41NTAzNTEgLTAuMzMwMjEsMCAtMC41NTAzNSwtMC4yMjAxNCAtMC41NTAzNSwtMC41NTAzNTEgeiBtIDguODA1NjIsNi42MDQyMTYgdiAtMi4yMDE0MDYgYyAwLC0wLjMzMDIxIDAuMjIwMTQsLTAuNTUwMzUxIDAuNTUwMzUsLTAuNTUwMzUxIDAuMzMwMjEsMCAwLjU1MDM1LDAuMjIwMTQxIDAuNTUwMzUsMC41NTAzNTEgdiAyLjIwMTQwNiBjIDAsMC4zMzAyMSAtMC4yMjAxNCwwLjU1MDM1MSAtMC41NTAzNSwwLjU1MDM1MSAtMC4zMzAyMSwwIC0wLjU1MDM1LC0wLjIyMDE0MSAtMC41NTAzNSwtMC41NTAzNTEgeiBtIC0yLjIwMTQxLDAgdiAtMi4yMDE0MDYgYyAwLC0wLjMzMDIxIDAuMjIwMTQsLTAuNTUwMzUxIDAuNTUwMzUsLTAuNTUwMzUxIDAuMzMwMjIsMCAwLjU1MDM2LDAuMjIwMTQxIDAuNTUwMzYsMC41NTAzNTEgdiAyLjIwMTQwNiBjIDAsMC4zMzAyMSAtMC4yMjAxNCwwLjU1MDM1MSAtMC41NTAzNiwwLjU1MDM1MSAtMC4zMzAyMSwwIC0wLjU1MDM1LC0wLjIyMDE0MSAtMC41NTAzNSwtMC41NTAzNTEgeiBtIC0yLjIwMTQsMCB2IC0yLjIwMTQwNiBjIDAsLTAuMzMwMjEgMC4yMjAxNCwtMC41NTAzNTEgMC41NTAzNSwtMC41NTAzNTEgMC4zMzAyMSwwIDAuNTUwMzUsMC4yMjAxNDEgMC41NTAzNSwwLjU1MDM1MSB2IDIuMjAxNDA2IGMgMCwwLjMzMDIxIC0wLjIyMDE0LDAuNTUwMzUxIC0wLjU1MDM1LDAuNTUwMzUxIC0wLjMzMDIxLDAgLTAuNTUwMzUsLTAuMjIwMTQxIC0wLjU1MDM1LC0wLjU1MDM1MSB6IG0gLTIuMjAxNDEsMCB2IC0yLjIwMTQwNiBjIDAsLTAuMzMwMjEgMC4yMjAxNCwtMC41NTAzNTEgMC41NTAzNSwtMC41NTAzNTEgMC4zMzAyMSwwIDAuNTUwMzYsMC4yMjAxNDEgMC41NTAzNiwwLjU1MDM1MSB2IDIuMjAxNDA2IGMgMCwwLjMzMDIxIC0wLjIyMDE1LDAuNTUwMzUxIC0wLjU1MDM2LDAuNTUwMzUxIC0wLjMzMDIxLDAgLTAuNTUwMzUsLTAuMjIwMTQxIC0wLjU1MDM1LC0wLjU1MDM1MSB6IG0gLTIuMjAxNCwwIHYgLTIuMjAxNDA2IGMgMCwtMC4zMzAyMSAwLjIyMDE0LC0wLjU1MDM1MSAwLjU1MDM1LC0wLjU1MDM1MSAwLjMzMDIxLDAgMC41NTAzNSwwLjIyMDE0MSAwLjU1MDM1LDAuNTUwMzUxIHYgMi4yMDE0MDYgYyAwLDAuMzMwMjEgLTAuMjIwMTQsMC41NTAzNTEgLTAuNTUwMzUsMC41NTAzNTEgLTAuMzMwMjEsMCAtMC41NTAzNSwtMC4yMjAxNDEgLTAuNTUwMzUsLTAuNTUwMzUxIHogbSA4LjgwNTYyLDYuNjA0MjE1IHYgLTIuMjAxNDA1IGMgMCwtMC4zMzAyMTEgMC4yMjAxNCwtMC41NTAzNTEgMC41NTAzNSwtMC41NTAzNTEgMC4zMzAyMSwwIDAuNTUwMzUsMC4yMjAxNCAwLjU1MDM1LDAuNTUwMzUxIHYgMi4yMDE0MDUgYyAwLDAuMzMwMjExIC0wLjIyMDE0LDAuNTUwMzUxIC0wLjU1MDM1LDAuNTUwMzUxIC0wLjMzMDIxLDAgLTAuNTUwMzUsLTAuMjIwMTQgLTAuNTUwMzUsLTAuNTUwMzUxIHogbSAtMi4yMDE0MSwwIHYgLTIuMjAxNDA1IGMgMCwtMC4zMzAyMTEgMC4yMjAxNCwtMC41NTAzNTEgMC41NTAzNSwtMC41NTAzNTEgMC4zMzAyMiwwIDAuNTUwMzYsMC4yMjAxNCAwLjU1MDM2LDAuNTUwMzUxIHYgMi4yMDE0MDUgYyAwLDAuMzMwMjExIC0wLjIyMDE0LDAuNTUwMzUxIC0wLjU1MDM2LDAuNTUwMzUxIC0wLjMzMDIxLDAgLTAuNTUwMzUsLTAuMjIwMTQgLTAuNTUwMzUsLTAuNTUwMzUxIHogbSAtMi4yMDE0LDAgdiAtMi4yMDE0MDUgYyAwLC0wLjMzMDIxMSAwLjIyMDE0LC0wLjU1MDM1MSAwLjU1MDM1LC0wLjU1MDM1MSAwLjMzMDIxLDAgMC41NTAzNSwwLjIyMDE0IDAuNTUwMzUsMC41NTAzNTEgdiAyLjIwMTQwNSBjIDAsMC4zMzAyMTEgLTAuMjIwMTQsMC41NTAzNTEgLTAuNTUwMzUsMC41NTAzNTEgLTAuMzMwMjEsMCAtMC41NTAzNSwtMC4yMjAxNCAtMC41NTAzNSwtMC41NTAzNTEgeiBtIC0yLjIwMTQxLDAgdiAtMi4yMDE0MDUgYyAwLC0wLjMzMDIxMSAwLjIyMDE0LC0wLjU1MDM1MSAwLjU1MDM1LC0wLjU1MDM1MSAwLjMzMDIxLDAgMC41NTAzNiwwLjIyMDE0IDAuNTUwMzYsMC41NTAzNTEgdiAyLjIwMTQwNSBjIDAsMC4zMzAyMTEgLTAuMjIwMTUsMC41NTAzNTEgLTAuNTUwMzYsMC41NTAzNTEgLTAuMzMwMjEsMCAtMC41NTAzNSwtMC4yMjAxNCAtMC41NTAzNSwtMC41NTAzNTEgeiBtIC0yLjIwMTQsMCB2IC0yLjIwMTQwNSBjIDAsLTAuMzMwMjExIDAuMjIwMTQsLTAuNTUwMzUxIDAuNTUwMzUsLTAuNTUwMzUxIDAuMzMwMjEsMCAwLjU1MDM1LDAuMjIwMTQgMC41NTAzNSwwLjU1MDM1MSB2IDIuMjAxNDA1IGMgMCwwLjMzMDIxMSAtMC4yMjAxNCwwLjU1MDM1MSAtMC41NTAzNSwwLjU1MDM1MSAtMC4zMzAyMSwwIC0wLjU1MDM1LC0wLjIyMDE0IC0wLjU1MDM1LC0wLjU1MDM1MSB6IG0gOS45MDYzMiw0LjQwMjgxIHYgMi4yMDE0MDYgYyAwLDAuMzMwMjEgLTAuMjIwMTQsMC41NTAzNTEgLTAuNTUwMzUsMC41NTAzNTEgLTAuMzMwMjEsMCAtMC41NTAzNSwtMC4yMjAxNDEgLTAuNTUwMzUsLTAuNTUwMzUxIHYgLTIuMjAxNDA2IGMgMCwtMC4zMzAyMSAwLjIyMDE0LC0wLjU1MDM1MSAwLjU1MDM1LC0wLjU1MDM1MSAwLjMzMDIxLDAgMC41NTAzNSwwLjIyMDE0MSAwLjU1MDM1LDAuNTUwMzUxIHogbSAtMi4yMDE0LDAgdiAyLjIwMTQwNiBjIDAsMC4zMzAyMSAtMC4yMjAxNCwwLjU1MDM1MSAtMC41NTAzNiwwLjU1MDM1MSAtMC4zMzAyMSwwIC0wLjU1MDM1LC0wLjIyMDE0MSAtMC41NTAzNSwtMC41NTAzNTEgdiAtMi4yMDE0MDYgYyAwLC0wLjMzMDIxIDAuMjIwMTQsLTAuNTUwMzUxIDAuNTUwMzUsLTAuNTUwMzUxIDAuMzMwMjIsMCAwLjU1MDM2LDAuMjIwMTQxIDAuNTUwMzYsMC41NTAzNTEgeiBtIC0yLjIwMTQxLDAgdiAyLjIwMTQwNiBjIDAsMC4zMzAyMSAtMC4yMjAxNCwwLjU1MDM1MSAtMC41NTAzNSwwLjU1MDM1MSAtMC4zMzAyMSwwIC0wLjU1MDM1LC0wLjIyMDE0MSAtMC41NTAzNSwtMC41NTAzNTEgdiAtMi4yMDE0MDYgYyAwLC0wLjMzMDIxIDAuMjIwMTQsLTAuNTUwMzUxIDAuNTUwMzUsLTAuNTUwMzUxIDAuMzMwMjEsMCAwLjU1MDM1LDAuMjIwMTQxIDAuNTUwMzUsMC41NTAzNTEgeiBtIC0yLjIwMTQsMCB2IDIuMjAxNDA2IGMgMCwwLjMzMDIxIC0wLjIyMDE1LDAuNTUwMzUxIC0wLjU1MDM2LDAuNTUwMzUxIC0wLjMzMDIxLDAgLTAuNTUwMzUsLTAuMjIwMTQxIC0wLjU1MDM1LC0wLjU1MDM1MSB2IC0yLjIwMTQwNiBjIDAsLTAuMzMwMjEgMC4yMjAxNCwtMC41NTAzNTEgMC41NTAzNSwtMC41NTAzNTEgMC4zMzAyMSwwIDAuNTUwMzYsMC4yMjAxNDEgMC41NTAzNiwwLjU1MDM1MSB6IG0gLTIuMjAxNDEsMCB2IDIuMjAxNDA2IGMgMCwwLjMzMDIxIC0wLjIyMDE0LDAuNTUwMzUxIC0wLjU1MDM1LDAuNTUwMzUxIC0wLjMzMDIxLDAgLTAuNTUwMzUsLTAuMjIwMTQxIC0wLjU1MDM1LC0wLjU1MDM1MSB2IC0yLjIwMTQwNiBjIDAsLTAuMzMwMjEgMC4yMjAxNCwtMC41NTAzNTEgMC41NTAzNSwtMC41NTAzNTEgMC4zMzAyMSwwIDAuNTUwMzUsMC4yMjAxNDEgMC41NTAzNSwwLjU1MDM1MSB6IG0gMS42NTEwNSwtMjcuNTE3NTY0IGMgMCwtMC4zMzAyMTEgMC4yMjAxNCwtMC41NTAzNTEgMC41NTAzNiwtMC41NTAzNTEgaCA2LjA1Mzg2IGMgMC4zMzAyMSwwIDAuNTUwMzUsMC4yMjAxNCAwLjU1MDM1LDAuNTUwMzUxIDAsMC4zMzAyMTEgLTAuMjIwMTQsMC41NTAzNTEgLTAuNTUwMzUsMC41NTAzNTEgaCAtNi4wNTM4NiBjIC0wLjMzMDIyLDAgLTAuNTUwMzYsLTAuMjIwMTQgLTAuNTUwMzYsLTAuNTUwMzUxIHogbSAwLDEuNjUxMDU0IGMgMCwtMC4zMzAyMTEgMC4yMjAxNCwtMC41NTAzNTIgMC41NTAzNiwtMC41NTAzNTIgaCA2LjA1Mzg2IGMgMC4zMzAyMSwwIDAuNTUwMzUsMC4yMjAxNDEgMC41NTAzNSwwLjU1MDM1MiAwLDAuMzMwMjExIC0wLjIyMDE0LDAuNTUwMzUxIC0wLjU1MDM1LDAuNTUwMzUxIGggLTYuMDUzODYgYyAtMC4zMzAyMiwwIC0wLjU1MDM2LC0wLjIyMDE0IC0wLjU1MDM2LC0wLjU1MDM1MSB6IG0gLTguODA1NjIsNy40Mjk3NDIgYyAwLDAuNDQwMjgxIC0wLjM4NTI0LDAuODI1NTI3IC0wLjgyNTUyLDAuODI1NTI3IC0wLjQ0MDI4LDAgLTAuODI1NTMsLTAuMzg1MjQ2IC0wLjgyNTUzLC0wLjgyNTUyNyAwLC0wLjQ0MDI4MSAwLjM4NTI1LC0wLjgyNTUyNyAwLjgyNTUzLC0wLjgyNTUyNyAwLjQ0MDI4LDAgMC44MjU1MiwwLjM4NTI0NiAwLjgyNTUyLDAuODI1NTI3IHogbSAwLjU1MDM1LDAgYyAwLC0wLjQ0MDI4MSAwLjM4NTI1LC0wLjgyNTUyNyAwLjgyNTUzLC0wLjgyNTUyNyAwLjQ0MDI4LDAgMC44MjU1MywwLjM4NTI0NiAwLjgyNTUzLDAuODI1NTI3IDAsMC40NDAyODEgLTAuMzg1MjUsMC44MjU1MjcgLTAuODI1NTMsMC44MjU1MjcgLTAuNDQwMjgsMCAtMC44MjU1MywtMC4zODUyNDYgLTAuODI1NTMsLTAuODI1NTI3IHogbSAtMi43NTE3NSw2LjYwNDIxNiBjIDAsMC40NDAyODEgLTAuMzg1MjUsMC44MjU1MjcgLTAuODI1NTMsMC44MjU1MjcgLTAuNDQwMjgsMCAtMC44MjU1MywtMC4zODUyNDYgLTAuODI1NTMsLTAuODI1NTI3IDAsLTAuNDQwMjgxIDAuMzg1MjUsLTAuODI1NTI3IDAuODI1NTMsLTAuODI1NTI3IDAuNDQwMjgsMCAwLjgyNTUzLDAuMzg1MjQ2IDAuODI1NTMsMC44MjU1MjcgeiBtIDIuMjAxNCwwIGMgMCwwLjQ0MDI4MSAtMC4zODUyNCwwLjgyNTUyNyAtMC44MjU1MiwwLjgyNTUyNyAtMC40NDAyOCwwIC0wLjgyNTUzLC0wLjM4NTI0NiAtMC44MjU1MywtMC44MjU1MjcgMCwtMC40NDAyODEgMC4zODUyNSwtMC44MjU1MjcgMC44MjU1MywtMC44MjU1MjcgMC40NDAyOCwwIDAuODI1NTIsMC4zODUyNDYgMC44MjU1MiwwLjgyNTUyNyB6IG0gMC41NTAzNSwwIGMgMCwtMC40NDAyODEgMC4zODUyNSwtMC44MjU1MjcgMC44MjU1MywtMC44MjU1MjcgMC40NDAyOCwwIDAuODI1NTMsMC4zODUyNDYgMC44MjU1MywwLjgyNTUyNyAwLDAuNDQwMjgxIC0wLjM4NTI1LDAuODI1NTI3IC0wLjgyNTUzLDAuODI1NTI3IC0wLjQ0MDI4LDAgLTAuODI1NTMsLTAuMzg1MjQ2IC0wLjgyNTUzLC0wLjgyNTUyNyB6IG0gLTQuNDAyODEsNi42MDQyMTUgYyAwLC0wLjQ0MDI4MSAwLjM4NTI1LC0wLjgyNTUyNyAwLjgyNTUzLC0wLjgyNTUyNyAwLjQ0MDI4LDAgMC44MjU1MywwLjM4NTI0NiAwLjgyNTUzLDAuODI1NTI3IDAsMC40NDAyODEgLTAuMzg1MjUsMC44MjU1MjcgLTAuODI1NTMsMC44MjU1MjcgLTAuNDQwMjgsMCAtMC44MjU1MywtMC4zODUyNDYgLTAuODI1NTMsLTAuODI1NTI3IHogbSAyLjIwMTQxLDAgYyAwLC0wLjQ0MDI4MSAwLjM4NTI1LC0wLjgyNTUyNyAwLjgyNTUzLC0wLjgyNTUyNyAwLjQ0MDI4LDAgMC44MjU1MiwwLjM4NTI0NiAwLjgyNTUyLDAuODI1NTI3IDAsMC40NDAyODEgLTAuMzg1MjQsMC44MjU1MjcgLTAuODI1NTIsMC44MjU1MjcgLTAuNDQwMjgsMCAtMC44MjU1MywtMC4zODUyNDYgLTAuODI1NTMsLTAuODI1NTI3IHogbSAyLjIwMTQsMCBjIDAsLTAuNDQwMjgxIDAuMzg1MjUsLTAuODI1NTI3IDAuODI1NTMsLTAuODI1NTI3IDAuNDQwMjgsMCAwLjgyNTUzLDAuMzg1MjQ2IDAuODI1NTMsMC44MjU1MjcgMCwwLjQ0MDI4MSAtMC4zODUyNSwwLjgyNTUyNyAtMC44MjU1MywwLjgyNTUyNyAtMC40NDAyOCwwIC0wLjgyNTUzLC0wLjM4NTI0NiAtMC44MjU1MywtMC44MjU1MjcgeiBtIC0yLjc1MTc1LDYuNjA0MjE2IGMgMCwwLjQ0MDI4MSAtMC4zODUyNSwwLjgyNTUyNyAtMC44MjU1MywwLjgyNTUyNyAtMC40NDAyOCwwIC0wLjgyNTUzLC0wLjM4NTI0NiAtMC44MjU1MywtMC44MjU1MjcgMCwtMC40NDAyODEgMC4zODUyNSwtMC44MjU1MjcgMC44MjU1MywtMC44MjU1MjcgMC40NDAyOCwwIDAuODI1NTMsMC4zODUyNDYgMC44MjU1MywwLjgyNTUyNyB6IG0gMi4yMDE0LDAgYyAwLDAuNDQwMjgxIC0wLjM4NTI0LDAuODI1NTI3IC0wLjgyNTUyLDAuODI1NTI3IC0wLjQ0MDI4LDAgLTAuODI1NTMsLTAuMzg1MjQ2IC0wLjgyNTUzLC0wLjgyNTUyNyAwLC0wLjQ0MDI4MSAwLjM4NTI1LC0wLjgyNTUyNyAwLjgyNTUzLC0wLjgyNTUyNyAwLjQ0MDI4LDAgMC44MjU1MiwwLjM4NTI0NiAwLjgyNTUyLDAuODI1NTI3IHogbSAyLjIwMTQxLDAgYyAwLDAuNDQwMjgxIC0wLjM4NTI1LDAuODI1NTI3IC0wLjgyNTUzLDAuODI1NTI3IC0wLjQ0MDI4LDAgLTAuODI1NTMsLTAuMzg1MjQ2IC0wLjgyNTUzLC0wLjgyNTUyNyAwLC0wLjQ0MDI4MSAwLjM4NTI1LC0wLjgyNTUyNyAwLjgyNTUzLC0wLjgyNTUyNyAwLjQ0MDI4LDAgMC44MjU1MywwLjM4NTI0NiAwLjgyNTUzLDAuODI1NTI3IHogbSAtNC40MDI4MSwtMTkuODEyNjQ3IGMgMCwwLjQ0MDI4MSAtMC4zODUyNSwwLjgyNTUyNyAtMC44MjU1MywwLjgyNTUyNyAtMC40NDAyOCwwIC0wLjgyNTUzLC0wLjM4NTI0NiAtMC44MjU1MywtMC44MjU1MjcgMCwtMC40NDAyODEgMC4zODUyNSwtMC44MjU1MjcgMC44MjU1MywtMC44MjU1MjcgMC40NDAyOCwwIDAuODI1NTMsMC4zODUyNDYgMC44MjU1MywwLjgyNTUyNyB6IiBpZD0icGF0aDYxIiBzdHlsZT0ic3Ryb2tlLXdpZHRoOjAuNTUwMzUxIi8+PC9nPjxnIHN0eWxlPSJmaWxsOiMwMDAwMDAiIGlkPSJnNjciIHRyYW5zZm9ybT0ibWF0cml4KDAuNjI3OTQxMTgsMCwwLDAuNjI3OTQxMTgsLTU1LjM4ODIzNSw2Ny4zODgyMzYpIj48cGF0aCBjbGFzcz0iR3JhcGhpY194MDAyMF9TdHlsZV94MDAyMF8yIiBkPSJtIDEzMy4zMzk1OCwyOC4wMTYzOTMgYyAwLC0xLjE1NTczNyAtMC4xMTAwNywtMi4yNTY0NCAtMC4zODUyNSwtMy4zNTcxNDMgbCAtMS4xMDA3LC00LjY3Nzk4NSBjIC0wLjE2NTExLC0wLjc3MDQ5MiAtMC44MjU1MywtMS4zMjA4NDQgLTEuNTk2MDIsLTEuMzIwODQ0IGggLTIwLjI1MjkzIGMgLTAuNzcwNDksMCAtMS40MzA5MSwwLjU1MDM1MiAtMS41OTYwMSwxLjI2NTgwOCBsIC0xLjEwMDcxLDQuNjc3OTg2IGMgLTAuMjc1MTcsMS4xNTU3MzggLTAuMzg1MjQsMi4yNTY0NDEgLTAuMzg1MjQsMy40MTIxNzggViA1Mi4yMzE4NSBjIDAsMC45MzU1OTcgMC43MTU0NSwxLjY1MTA1NCAxLjY1MTA1LDEuNjUxMDU0IGggMjMuMTE0NzUgYyAwLjkzNTYsMCAxLjY1MTA2LC0wLjcxNTQ1NyAxLjY1MTA2LC0xLjY1MTA1NCBWIDI4LjAxNjM5MyBjIDAsMCAwLDAgMCwwIDAsMCAwLDAgMCwwIHogbSAtMjMuODg1MjUsLTcuODE0OTg4IGMgMC4wNTUsLTAuMjc1MTc2IDAuMjc1MTgsLTAuNDQwMjgxIDAuNTUwMzUsLTAuNDQwMjgxIGggMjAuMjUyOTMgYyAwLjI3NTE4LDAgMC40OTUzMiwwLjE2NTEwNSAwLjU1MDM1LDAuNDQwMjgxIGwgMS4xMDA3MSw0LjY3Nzk4NiBjIDAuMTEwMDcsMC40OTUzMTYgMC4yMjAxNCwxLjA0NTY2NyAwLjI3NTE3LDEuNTQwOTg0IC0wLjE2NTEsMCAtMC4zMzAyMSwtMC4wNTUwNCAtMC40OTUzMiwtMC4wNTUwNCBoIC0yMy4xMTQ3NSBjIC0wLjE2NTEsMCAtMC4zMzAyMSwwLjA1NTA0IC0wLjQ0MDI4LDAuMDU1MDQgMC4wNTUsLTAuNTUwMzUyIDAuMTY1MSwtMS4wNDU2NjggMC4yNzUxOCwtMS41NDA5ODQgeiBtIDIyLjIzNDE5LDMyLjU4MDc5NiBoIC0yMy4xMTQ3NSBjIC0wLjMzMDIxLDAgLTAuNTUwMzUsLTAuMjIwMTQgLTAuNTUwMzUsLTAuNTUwMzUxIFYgNDAuNjc0NDczIGggNi4wNTM4NiBjIDAuMzMwMjEsMCAwLjU1MDM1LC0wLjIyMDE0IDAuNTUwMzUsLTAuNTUwMzUxIDAsLTAuMzMwMjExIC0wLjIyMDE0LC0wLjU1MDM1MiAtMC41NTAzNSwtMC41NTAzNTIgaCAtNi4wNTM4NiB2IC01LjUwMzUxMiBoIDQuNDAyODEgYyAwLjMzMDIxLDAgMC41NTAzNSwtMC4yMjAxNDEgMC41NTAzNSwtMC41NTAzNTIgMCwtMC4zMzAyMTEgLTAuMjIwMTQsLTAuNTUwMzUxIC0wLjU1MDM1LC0wLjU1MDM1MSBoIC00LjQwMjgxIHYgLTQuOTUzMTYyIGMgMCwtMC4zMzAyMSAwLjIyMDE0LC0wLjU1MDM1MSAwLjU1MDM1LC0wLjU1MDM1MSBoIDIzLjExNDc1IGMgMC4zMzAyMiwwIDAuNTUwMzYsMC4yMjAxNDEgMC41NTAzNiwwLjU1MDM1MSB2IDQuOTUzMTYyIGggLTE0Ljg1OTQ5IGMgLTAuMzMwMjEsMCAtMC41NTAzNSwwLjIyMDE0IC0wLjU1MDM1LDAuNTUwMzUxIDAsMC4zMzAyMTEgMC4yMjAxNCwwLjU1MDM1MiAwLjU1MDM1LDAuNTUwMzUyIGggMTQuODU5NDkgdiA1LjUwMzUxMiBoIC0xNC44NTk0OSBjIC0wLjMzMDIxLDAgLTAuNTUwMzUsMC4yMjAxNDEgLTAuNTUwMzUsMC41NTAzNTIgMCwwLjMzMDIxMSAwLjIyMDE0LDAuNTUwMzUxIDAuNTUwMzUsMC41NTAzNTEgaCAxNC44NTk0OSB2IDUuNTAzNTEzIGggLTIyLjU2NDQxIGMgLTAuMzMwMjEsMCAtMC41NTAzNSwwLjIyMDE0IC0wLjU1MDM1LDAuNTUwMzUxIDAsMC4zMzAyMTEgMC4yMjAxNCwwLjU1MDM1MiAwLjU1MDM1LDAuNTUwMzUyIGggMjIuNTY0NDEgdiA0Ljk1MzE2MSBjIDAsMC4zMzAyMTEgLTAuMjIwMTQsMC41NTAzNTEgLTAuNTUwMzYsMC41NTAzNTEgeiBtIC0yLjc1MTc1LC0yMS40NjM3IHYgLTIuMjAxNDA1IGMgMCwtMC4zMzAyMTEgMC4yMjAxNCwtMC41NTAzNTEgMC41NTAzNSwtMC41NTAzNTEgMC4zMzAyMSwwIDAuNTUwMzUsMC4yMjAxNCAwLjU1MDM1LDAuNTUwMzUxIHYgMi4yMDE0MDUgYyAwLDAuMzMwMjExIC0wLjIyMDE0LDAuNTUwMzUxIC0wLjU1MDM1LDAuNTUwMzUxIC0wLjMzMDIxLDAgLTAuNTUwMzUsLTAuMjIwMTQgLTAuNTUwMzUsLTAuNTUwMzUxIHogbSAtMi4yMDE0MSwwIHYgLTIuMjAxNDA1IGMgMCwtMC4zMzAyMTEgMC4yMjAxNCwtMC41NTAzNTEgMC41NTAzNSwtMC41NTAzNTEgMC4zMzAyMiwwIDAuNTUwMzYsMC4yMjAxNCAwLjU1MDM2LDAuNTUwMzUxIHYgMi4yMDE0MDUgYyAwLDAuMzMwMjExIC0wLjIyMDE0LDAuNTUwMzUxIC0wLjU1MDM2LDAuNTUwMzUxIC0wLjMzMDIxLDAgLTAuNTUwMzUsLTAuMjIwMTQgLTAuNTUwMzUsLTAuNTUwMzUxIHogbSAtMi4yMDE0LDAgdiAtMi4yMDE0MDUgYyAwLC0wLjMzMDIxMSAwLjIyMDE0LC0wLjU1MDM1MSAwLjU1MDM1LC0wLjU1MDM1MSAwLjMzMDIxLDAgMC41NTAzNSwwLjIyMDE0IDAuNTUwMzUsMC41NTAzNTEgdiAyLjIwMTQwNSBjIDAsMC4zMzAyMTEgLTAuMjIwMTQsMC41NTAzNTEgLTAuNTUwMzUsMC41NTAzNTEgLTAuMzMwMjEsMCAtMC41NTAzNSwtMC4yMjAxNCAtMC41NTAzNSwtMC41NTAzNTEgeiBtIC0yLjIwMTQxLDAgdiAtMi4yMDE0MDUgYyAwLC0wLjMzMDIxMSAwLjIyMDE0LC0wLjU1MDM1MSAwLjU1MDM1LC0wLjU1MDM1MSAwLjMzMDIxLDAgMC41NTAzNiwwLjIyMDE0IDAuNTUwMzYsMC41NTAzNTEgdiAyLjIwMTQwNSBjIDAsMC4zMzAyMTEgLTAuMjIwMTUsMC41NTAzNTEgLTAuNTUwMzYsMC41NTAzNTEgLTAuMzMwMjEsMCAtMC41NTAzNSwtMC4yMjAxNCAtMC41NTAzNSwtMC41NTAzNTEgeiBtIC0yLjIwMTQsMCB2IC0yLjIwMTQwNSBjIDAsLTAuMzMwMjExIDAuMjIwMTQsLTAuNTUwMzUxIDAuNTUwMzUsLTAuNTUwMzUxIDAuMzMwMjEsMCAwLjU1MDM1LDAuMjIwMTQgMC41NTAzNSwwLjU1MDM1MSB2IDIuMjAxNDA1IGMgMCwwLjMzMDIxMSAtMC4yMjAxNCwwLjU1MDM1MSAtMC41NTAzNSwwLjU1MDM1MSAtMC4zMzAyMSwwIC0wLjU1MDM1LC0wLjIyMDE0IC0wLjU1MDM1LC0wLjU1MDM1MSB6IG0gOC44MDU2Miw2LjYwNDIxNiB2IC0yLjIwMTQwNiBjIDAsLTAuMzMwMjEgMC4yMjAxNCwtMC41NTAzNTEgMC41NTAzNSwtMC41NTAzNTEgMC4zMzAyMSwwIDAuNTUwMzUsMC4yMjAxNDEgMC41NTAzNSwwLjU1MDM1MSB2IDIuMjAxNDA2IGMgMCwwLjMzMDIxIC0wLjIyMDE0LDAuNTUwMzUxIC0wLjU1MDM1LDAuNTUwMzUxIC0wLjMzMDIxLDAgLTAuNTUwMzUsLTAuMjIwMTQxIC0wLjU1MDM1LC0wLjU1MDM1MSB6IG0gLTIuMjAxNDEsMCB2IC0yLjIwMTQwNiBjIDAsLTAuMzMwMjEgMC4yMjAxNCwtMC41NTAzNTEgMC41NTAzNSwtMC41NTAzNTEgMC4zMzAyMiwwIDAuNTUwMzYsMC4yMjAxNDEgMC41NTAzNiwwLjU1MDM1MSB2IDIuMjAxNDA2IGMgMCwwLjMzMDIxIC0wLjIyMDE0LDAuNTUwMzUxIC0wLjU1MDM2LDAuNTUwMzUxIC0wLjMzMDIxLDAgLTAuNTUwMzUsLTAuMjIwMTQxIC0wLjU1MDM1LC0wLjU1MDM1MSB6IG0gLTIuMjAxNCwwIHYgLTIuMjAxNDA2IGMgMCwtMC4zMzAyMSAwLjIyMDE0LC0wLjU1MDM1MSAwLjU1MDM1LC0wLjU1MDM1MSAwLjMzMDIxLDAgMC41NTAzNSwwLjIyMDE0MSAwLjU1MDM1LDAuNTUwMzUxIHYgMi4yMDE0MDYgYyAwLDAuMzMwMjEgLTAuMjIwMTQsMC41NTAzNTEgLTAuNTUwMzUsMC41NTAzNTEgLTAuMzMwMjEsMCAtMC41NTAzNSwtMC4yMjAxNDEgLTAuNTUwMzUsLTAuNTUwMzUxIHogbSAtMi4yMDE0MSwwIHYgLTIuMjAxNDA2IGMgMCwtMC4zMzAyMSAwLjIyMDE0LC0wLjU1MDM1MSAwLjU1MDM1LC0wLjU1MDM1MSAwLjMzMDIxLDAgMC41NTAzNiwwLjIyMDE0MSAwLjU1MDM2LDAuNTUwMzUxIHYgMi4yMDE0MDYgYyAwLDAuMzMwMjEgLTAuMjIwMTUsMC41NTAzNTEgLTAuNTUwMzYsMC41NTAzNTEgLTAuMzMwMjEsMCAtMC41NTAzNSwtMC4yMjAxNDEgLTAuNTUwMzUsLTAuNTUwMzUxIHogbSAtMi4yMDE0LDAgdiAtMi4yMDE0MDYgYyAwLC0wLjMzMDIxIDAuMjIwMTQsLTAuNTUwMzUxIDAuNTUwMzUsLTAuNTUwMzUxIDAuMzMwMjEsMCAwLjU1MDM1LDAuMjIwMTQxIDAuNTUwMzUsMC41NTAzNTEgdiAyLjIwMTQwNiBjIDAsMC4zMzAyMSAtMC4yMjAxNCwwLjU1MDM1MSAtMC41NTAzNSwwLjU1MDM1MSAtMC4zMzAyMSwwIC0wLjU1MDM1LC0wLjIyMDE0MSAtMC41NTAzNSwtMC41NTAzNTEgeiBtIDguODA1NjIsNi42MDQyMTUgdiAtMi4yMDE0MDUgYyAwLC0wLjMzMDIxMSAwLjIyMDE0LC0wLjU1MDM1MSAwLjU1MDM1LC0wLjU1MDM1MSAwLjMzMDIxLDAgMC41NTAzNSwwLjIyMDE0IDAuNTUwMzUsMC41NTAzNTEgdiAyLjIwMTQwNSBjIDAsMC4zMzAyMTEgLTAuMjIwMTQsMC41NTAzNTEgLTAuNTUwMzUsMC41NTAzNTEgLTAuMzMwMjEsMCAtMC41NTAzNSwtMC4yMjAxNCAtMC41NTAzNSwtMC41NTAzNTEgeiBtIC0yLjIwMTQxLDAgdiAtMi4yMDE0MDUgYyAwLC0wLjMzMDIxMSAwLjIyMDE0LC0wLjU1MDM1MSAwLjU1MDM1LC0wLjU1MDM1MSAwLjMzMDIyLDAgMC41NTAzNiwwLjIyMDE0IDAuNTUwMzYsMC41NTAzNTEgdiAyLjIwMTQwNSBjIDAsMC4zMzAyMTEgLTAuMjIwMTQsMC41NTAzNTEgLTAuNTUwMzYsMC41NTAzNTEgLTAuMzMwMjEsMCAtMC41NTAzNSwtMC4yMjAxNCAtMC41NTAzNSwtMC41NTAzNTEgeiBtIC0yLjIwMTQsMCB2IC0yLjIwMTQwNSBjIDAsLTAuMzMwMjExIDAuMjIwMTQsLTAuNTUwMzUxIDAuNTUwMzUsLTAuNTUwMzUxIDAuMzMwMjEsMCAwLjU1MDM1LDAuMjIwMTQgMC41NTAzNSwwLjU1MDM1MSB2IDIuMjAxNDA1IGMgMCwwLjMzMDIxMSAtMC4yMjAxNCwwLjU1MDM1MSAtMC41NTAzNSwwLjU1MDM1MSAtMC4zMzAyMSwwIC0wLjU1MDM1LC0wLjIyMDE0IC0wLjU1MDM1LC0wLjU1MDM1MSB6IG0gLTIuMjAxNDEsMCB2IC0yLjIwMTQwNSBjIDAsLTAuMzMwMjExIDAuMjIwMTQsLTAuNTUwMzUxIDAuNTUwMzUsLTAuNTUwMzUxIDAuMzMwMjEsMCAwLjU1MDM2LDAuMjIwMTQgMC41NTAzNiwwLjU1MDM1MSB2IDIuMjAxNDA1IGMgMCwwLjMzMDIxMSAtMC4yMjAxNSwwLjU1MDM1MSAtMC41NTAzNiwwLjU1MDM1MSAtMC4zMzAyMSwwIC0wLjU1MDM1LC0wLjIyMDE0IC0wLjU1MDM1LC0wLjU1MDM1MSB6IG0gLTIuMjAxNCwwIHYgLTIuMjAxNDA1IGMgMCwtMC4zMzAyMTEgMC4yMjAxNCwtMC41NTAzNTEgMC41NTAzNSwtMC41NTAzNTEgMC4zMzAyMSwwIDAuNTUwMzUsMC4yMjAxNCAwLjU1MDM1LDAuNTUwMzUxIHYgMi4yMDE0MDUgYyAwLDAuMzMwMjExIC0wLjIyMDE0LDAuNTUwMzUxIC0wLjU1MDM1LDAuNTUwMzUxIC0wLjMzMDIxLDAgLTAuNTUwMzUsLTAuMjIwMTQgLTAuNTUwMzUsLTAuNTUwMzUxIHogbSA5LjkwNjMyLDQuNDAyODEgdiAyLjIwMTQwNiBjIDAsMC4zMzAyMSAtMC4yMjAxNCwwLjU1MDM1MSAtMC41NTAzNSwwLjU1MDM1MSAtMC4zMzAyMSwwIC0wLjU1MDM1LC0wLjIyMDE0MSAtMC41NTAzNSwtMC41NTAzNTEgdiAtMi4yMDE0MDYgYyAwLC0wLjMzMDIxIDAuMjIwMTQsLTAuNTUwMzUxIDAuNTUwMzUsLTAuNTUwMzUxIDAuMzMwMjEsMCAwLjU1MDM1LDAuMjIwMTQxIDAuNTUwMzUsMC41NTAzNTEgeiBtIC0yLjIwMTQsMCB2IDIuMjAxNDA2IGMgMCwwLjMzMDIxIC0wLjIyMDE0LDAuNTUwMzUxIC0wLjU1MDM2LDAuNTUwMzUxIC0wLjMzMDIxLDAgLTAuNTUwMzUsLTAuMjIwMTQxIC0wLjU1MDM1LC0wLjU1MDM1MSB2IC0yLjIwMTQwNiBjIDAsLTAuMzMwMjEgMC4yMjAxNCwtMC41NTAzNTEgMC41NTAzNSwtMC41NTAzNTEgMC4zMzAyMiwwIDAuNTUwMzYsMC4yMjAxNDEgMC41NTAzNiwwLjU1MDM1MSB6IG0gLTIuMjAxNDEsMCB2IDIuMjAxNDA2IGMgMCwwLjMzMDIxIC0wLjIyMDE0LDAuNTUwMzUxIC0wLjU1MDM1LDAuNTUwMzUxIC0wLjMzMDIxLDAgLTAuNTUwMzUsLTAuMjIwMTQxIC0wLjU1MDM1LC0wLjU1MDM1MSB2IC0yLjIwMTQwNiBjIDAsLTAuMzMwMjEgMC4yMjAxNCwtMC41NTAzNTEgMC41NTAzNSwtMC41NTAzNTEgMC4zMzAyMSwwIDAuNTUwMzUsMC4yMjAxNDEgMC41NTAzNSwwLjU1MDM1MSB6IG0gLTIuMjAxNCwwIHYgMi4yMDE0MDYgYyAwLDAuMzMwMjEgLTAuMjIwMTUsMC41NTAzNTEgLTAuNTUwMzYsMC41NTAzNTEgLTAuMzMwMjEsMCAtMC41NTAzNSwtMC4yMjAxNDEgLTAuNTUwMzUsLTAuNTUwMzUxIHYgLTIuMjAxNDA2IGMgMCwtMC4zMzAyMSAwLjIyMDE0LC0wLjU1MDM1MSAwLjU1MDM1LC0wLjU1MDM1MSAwLjMzMDIxLDAgMC41NTAzNiwwLjIyMDE0MSAwLjU1MDM2LDAuNTUwMzUxIHogbSAtMi4yMDE0MSwwIHYgMi4yMDE0MDYgYyAwLDAuMzMwMjEgLTAuMjIwMTQsMC41NTAzNTEgLTAuNTUwMzUsMC41NTAzNTEgLTAuMzMwMjEsMCAtMC41NTAzNSwtMC4yMjAxNDEgLTAuNTUwMzUsLTAuNTUwMzUxIHYgLTIuMjAxNDA2IGMgMCwtMC4zMzAyMSAwLjIyMDE0LC0wLjU1MDM1MSAwLjU1MDM1LC0wLjU1MDM1MSAwLjMzMDIxLDAgMC41NTAzNSwwLjIyMDE0MSAwLjU1MDM1LDAuNTUwMzUxIHogbSAxLjY1MTA1LC0yNy41MTc1NjQgYyAwLC0wLjMzMDIxMSAwLjIyMDE0LC0wLjU1MDM1MSAwLjU1MDM2LC0wLjU1MDM1MSBoIDYuMDUzODYgYyAwLjMzMDIxLDAgMC41NTAzNSwwLjIyMDE0IDAuNTUwMzUsMC41NTAzNTEgMCwwLjMzMDIxMSAtMC4yMjAxNCwwLjU1MDM1MSAtMC41NTAzNSwwLjU1MDM1MSBoIC02LjA1Mzg2IGMgLTAuMzMwMjIsMCAtMC41NTAzNiwtMC4yMjAxNCAtMC41NTAzNiwtMC41NTAzNTEgeiBtIDAsMS42NTEwNTQgYyAwLC0wLjMzMDIxMSAwLjIyMDE0LC0wLjU1MDM1MiAwLjU1MDM2LC0wLjU1MDM1MiBoIDYuMDUzODYgYyAwLjMzMDIxLDAgMC41NTAzNSwwLjIyMDE0MSAwLjU1MDM1LDAuNTUwMzUyIDAsMC4zMzAyMTEgLTAuMjIwMTQsMC41NTAzNTEgLTAuNTUwMzUsMC41NTAzNTEgaCAtNi4wNTM4NiBjIC0wLjMzMDIyLDAgLTAuNTUwMzYsLTAuMjIwMTQgLTAuNTUwMzYsLTAuNTUwMzUxIHogbSAtOC44MDU2Miw3LjQyOTc0MiBjIDAsMC40NDAyODEgLTAuMzg1MjQsMC44MjU1MjcgLTAuODI1NTIsMC44MjU1MjcgLTAuNDQwMjgsMCAtMC44MjU1MywtMC4zODUyNDYgLTAuODI1NTMsLTAuODI1NTI3IDAsLTAuNDQwMjgxIDAuMzg1MjUsLTAuODI1NTI3IDAuODI1NTMsLTAuODI1NTI3IDAuNDQwMjgsMCAwLjgyNTUyLDAuMzg1MjQ2IDAuODI1NTIsMC44MjU1MjcgeiBtIDAuNTUwMzUsMCBjIDAsLTAuNDQwMjgxIDAuMzg1MjUsLTAuODI1NTI3IDAuODI1NTMsLTAuODI1NTI3IDAuNDQwMjgsMCAwLjgyNTUzLDAuMzg1MjQ2IDAuODI1NTMsMC44MjU1MjcgMCwwLjQ0MDI4MSAtMC4zODUyNSwwLjgyNTUyNyAtMC44MjU1MywwLjgyNTUyNyAtMC40NDAyOCwwIC0wLjgyNTUzLC0wLjM4NTI0NiAtMC44MjU1MywtMC44MjU1MjcgeiBtIC0yLjc1MTc1LDYuNjA0MjE2IGMgMCwwLjQ0MDI4MSAtMC4zODUyNSwwLjgyNTUyNyAtMC44MjU1MywwLjgyNTUyNyAtMC40NDAyOCwwIC0wLjgyNTUzLC0wLjM4NTI0NiAtMC44MjU1MywtMC44MjU1MjcgMCwtMC40NDAyODEgMC4zODUyNSwtMC44MjU1MjcgMC44MjU1MywtMC44MjU1MjcgMC40NDAyOCwwIDAuODI1NTMsMC4zODUyNDYgMC44MjU1MywwLjgyNTUyNyB6IG0gMi4yMDE0LDAgYyAwLDAuNDQwMjgxIC0wLjM4NTI0LDAuODI1NTI3IC0wLjgyNTUyLDAuODI1NTI3IC0wLjQ0MDI4LDAgLTAuODI1NTMsLTAuMzg1MjQ2IC0wLjgyNTUzLC0wLjgyNTUyNyAwLC0wLjQ0MDI4MSAwLjM4NTI1LC0wLjgyNTUyNyAwLjgyNTUzLC0wLjgyNTUyNyAwLjQ0MDI4LDAgMC44MjU1MiwwLjM4NTI0NiAwLjgyNTUyLDAuODI1NTI3IHogbSAwLjU1MDM1LDAgYyAwLC0wLjQ0MDI4MSAwLjM4NTI1LC0wLjgyNTUyNyAwLjgyNTUzLC0wLjgyNTUyNyAwLjQ0MDI4LDAgMC44MjU1MywwLjM4NTI0NiAwLjgyNTUzLDAuODI1NTI3IDAsMC40NDAyODEgLTAuMzg1MjUsMC44MjU1MjcgLTAuODI1NTMsMC44MjU1MjcgLTAuNDQwMjgsMCAtMC44MjU1MywtMC4zODUyNDYgLTAuODI1NTMsLTAuODI1NTI3IHogbSAtNC40MDI4MSw2LjYwNDIxNSBjIDAsLTAuNDQwMjgxIDAuMzg1MjUsLTAuODI1NTI3IDAuODI1NTMsLTAuODI1NTI3IDAuNDQwMjgsMCAwLjgyNTUzLDAuMzg1MjQ2IDAuODI1NTMsMC44MjU1MjcgMCwwLjQ0MDI4MSAtMC4zODUyNSwwLjgyNTUyNyAtMC44MjU1MywwLjgyNTUyNyAtMC40NDAyOCwwIC0wLjgyNTUzLC0wLjM4NTI0NiAtMC44MjU1MywtMC44MjU1MjcgeiBtIDIuMjAxNDEsMCBjIDAsLTAuNDQwMjgxIDAuMzg1MjUsLTAuODI1NTI3IDAuODI1NTMsLTAuODI1NTI3IDAuNDQwMjgsMCAwLjgyNTUyLDAuMzg1MjQ2IDAuODI1NTIsMC44MjU1MjcgMCwwLjQ0MDI4MSAtMC4zODUyNCwwLjgyNTUyNyAtMC44MjU1MiwwLjgyNTUyNyAtMC40NDAyOCwwIC0wLjgyNTUzLC0wLjM4NTI0NiAtMC44MjU1MywtMC44MjU1MjcgeiBtIDIuMjAxNCwwIGMgMCwtMC40NDAyODEgMC4zODUyNSwtMC44MjU1MjcgMC44MjU1MywtMC44MjU1MjcgMC40NDAyOCwwIDAuODI1NTMsMC4zODUyNDYgMC44MjU1MywwLjgyNTUyNyAwLDAuNDQwMjgxIC0wLjM4NTI1LDAuODI1NTI3IC0wLjgyNTUzLDAuODI1NTI3IC0wLjQ0MDI4LDAgLTAuODI1NTMsLTAuMzg1MjQ2IC0wLjgyNTUzLC0wLjgyNTUyNyB6IG0gLTIuNzUxNzUsNi42MDQyMTYgYyAwLDAuNDQwMjgxIC0wLjM4NTI1LDAuODI1NTI3IC0wLjgyNTUzLDAuODI1NTI3IC0wLjQ0MDI4LDAgLTAuODI1NTMsLTAuMzg1MjQ2IC0wLjgyNTUzLC0wLjgyNTUyNyAwLC0wLjQ0MDI4MSAwLjM4NTI1LC0wLjgyNTUyNyAwLjgyNTUzLC0wLjgyNTUyNyAwLjQ0MDI4LDAgMC44MjU1MywwLjM4NTI0NiAwLjgyNTUzLDAuODI1NTI3IHogbSAyLjIwMTQsMCBjIDAsMC40NDAyODEgLTAuMzg1MjQsMC44MjU1MjcgLTAuODI1NTIsMC44MjU1MjcgLTAuNDQwMjgsMCAtMC44MjU1MywtMC4zODUyNDYgLTAuODI1NTMsLTAuODI1NTI3IDAsLTAuNDQwMjgxIDAuMzg1MjUsLTAuODI1NTI3IDAuODI1NTMsLTAuODI1NTI3IDAuNDQwMjgsMCAwLjgyNTUyLDAuMzg1MjQ2IDAuODI1NTIsMC44MjU1MjcgeiBtIDIuMjAxNDEsMCBjIDAsMC40NDAyODEgLTAuMzg1MjUsMC44MjU1MjcgLTAuODI1NTMsMC44MjU1MjcgLTAuNDQwMjgsMCAtMC44MjU1MywtMC4zODUyNDYgLTAuODI1NTMsLTAuODI1NTI3IDAsLTAuNDQwMjgxIDAuMzg1MjUsLTAuODI1NTI3IDAuODI1NTMsLTAuODI1NTI3IDAuNDQwMjgsMCAwLjgyNTUzLDAuMzg1MjQ2IDAuODI1NTMsMC44MjU1MjcgeiBtIC00LjQwMjgxLC0xOS44MTI2NDcgYyAwLDAuNDQwMjgxIC0wLjM4NTI1LDAuODI1NTI3IC0wLjgyNTUzLDAuODI1NTI3IC0wLjQ0MDI4LDAgLTAuODI1NTMsLTAuMzg1MjQ2IC0wLjgyNTUzLC0wLjgyNTUyNyAwLC0wLjQ0MDI4MSAwLjM4NTI1LC0wLjgyNTUyNyAwLjgyNTUzLC0wLjgyNTUyNyAwLjQ0MDI4LDAgMC44MjU1MywwLjM4NTI0NiAwLjgyNTUzLDAuODI1NTI3IHoiIGlkPSJwYXRoNjMiIHN0eWxlPSJzdHJva2Utd2lkdGg6MC41NTAzNTEiLz48cGF0aCBjbGFzcz0iR3JhcGhpY194MDAyMF9TdHlsZV94MDAyMF8yIiBkPSJtIDE2Ni42MTM1OCwyOC4wMTYzOTMgYyAwLC0xLjE1NTczNyAtMC4xMTAwNywtMi4yNTY0NCAtMC4zODUyNSwtMy4zNTcxNDMgbCAtMS4xMDA3LC00LjY3Nzk4NSBjIC0wLjE2NTExLC0wLjc3MDQ5MiAtMC44MjU1MywtMS4zMjA4NDQgLTEuNTk2MDIsLTEuMzIwODQ0IGggLTIwLjI1MjkzIGMgLTAuNzcwNDksMCAtMS40MzA5MSwwLjU1MDM1MiAtMS41OTYwMSwxLjI2NTgwOCBsIC0xLjEwMDcxLDQuNjc3OTg2IGMgLTAuMjc1MTcsMS4xNTU3MzggLTAuMzg1MjQsMi4yNTY0NDEgLTAuMzg1MjQsMy40MTIxNzggViA1Mi4yMzE4NSBjIDAsMC45MzU1OTcgMC43MTU0NSwxLjY1MTA1NCAxLjY1MTA1LDEuNjUxMDU0IGggMjMuMTE0NzUgYyAwLjkzNTYsMCAxLjY1MTA2LC0wLjcxNTQ1NyAxLjY1MTA2LC0xLjY1MTA1NCBWIDI4LjAxNjM5MyBjIDAsMCAwLDAgMCwwIDAsMCAwLDAgMCwwIHogbSAtMjMuODg1MjUsLTcuODE0OTg4IGMgMC4wNTUsLTAuMjc1MTc2IDAuMjc1MTgsLTAuNDQwMjgxIDAuNTUwMzUsLTAuNDQwMjgxIGggMjAuMjUyOTMgYyAwLjI3NTE4LDAgMC40OTUzMiwwLjE2NTEwNSAwLjU1MDM1LDAuNDQwMjgxIGwgMS4xMDA3MSw0LjY3Nzk4NiBjIDAuMTEwMDcsMC40OTUzMTYgMC4yMjAxNCwxLjA0NTY2NyAwLjI3NTE3LDEuNTQwOTg0IC0wLjE2NTEsMCAtMC4zMzAyMSwtMC4wNTUwNCAtMC40OTUzMiwtMC4wNTUwNCBoIC0yMy4xMTQ3NSBjIC0wLjE2NTEsMCAtMC4zMzAyMSwwLjA1NTA0IC0wLjQ0MDI4LDAuMDU1MDQgMC4wNTUsLTAuNTUwMzUyIDAuMTY1MSwtMS4wNDU2NjggMC4yNzUxOCwtMS41NDA5ODQgeiBtIDIyLjIzNDE5LDMyLjU4MDc5NiBoIC0yMy4xMTQ3NSBjIC0wLjMzMDIxLDAgLTAuNTUwMzUsLTAuMjIwMTQgLTAuNTUwMzUsLTAuNTUwMzUxIFYgNDAuNjc0NDczIGggNi4wNTM4NiBjIDAuMzMwMjEsMCAwLjU1MDM1LC0wLjIyMDE0IDAuNTUwMzUsLTAuNTUwMzUxIDAsLTAuMzMwMjExIC0wLjIyMDE0LC0wLjU1MDM1MiAtMC41NTAzNSwtMC41NTAzNTIgaCAtNi4wNTM4NiB2IC01LjUwMzUxMiBoIDQuNDAyODEgYyAwLjMzMDIxLDAgMC41NTAzNSwtMC4yMjAxNDEgMC41NTAzNSwtMC41NTAzNTIgMCwtMC4zMzAyMTEgLTAuMjIwMTQsLTAuNTUwMzUxIC0wLjU1MDM1LC0wLjU1MDM1MSBoIC00LjQwMjgxIHYgLTQuOTUzMTYyIGMgMCwtMC4zMzAyMSAwLjIyMDE0LC0wLjU1MDM1MSAwLjU1MDM1LC0wLjU1MDM1MSBoIDIzLjExNDc1IGMgMC4zMzAyMiwwIDAuNTUwMzYsMC4yMjAxNDEgMC41NTAzNiwwLjU1MDM1MSB2IDQuOTUzMTYyIGggLTE0Ljg1OTQ5IGMgLTAuMzMwMjEsMCAtMC41NTAzNSwwLjIyMDE0IC0wLjU1MDM1LDAuNTUwMzUxIDAsMC4zMzAyMTEgMC4yMjAxNCwwLjU1MDM1MiAwLjU1MDM1LDAuNTUwMzUyIGggMTQuODU5NDkgdiA1LjUwMzUxMiBoIC0xNC44NTk0OSBjIC0wLjMzMDIxLDAgLTAuNTUwMzUsMC4yMjAxNDEgLTAuNTUwMzUsMC41NTAzNTIgMCwwLjMzMDIxMSAwLjIyMDE0LDAuNTUwMzUxIDAuNTUwMzUsMC41NTAzNTEgaCAxNC44NTk0OSB2IDUuNTAzNTEzIGggLTIyLjU2NDQxIGMgLTAuMzMwMjEsMCAtMC41NTAzNSwwLjIyMDE0IC0wLjU1MDM1LDAuNTUwMzUxIDAsMC4zMzAyMTEgMC4yMjAxNCwwLjU1MDM1MiAwLjU1MDM1LDAuNTUwMzUyIGggMjIuNTY0NDEgdiA0Ljk1MzE2MSBjIDAsMC4zMzAyMTEgLTAuMjIwMTQsMC41NTAzNTEgLTAuNTUwMzYsMC41NTAzNTEgeiBtIC0yLjc1MTc1LC0yMS40NjM3IHYgLTIuMjAxNDA1IGMgMCwtMC4zMzAyMTEgMC4yMjAxNCwtMC41NTAzNTEgMC41NTAzNSwtMC41NTAzNTEgMC4zMzAyMSwwIDAuNTUwMzUsMC4yMjAxNCAwLjU1MDM1LDAuNTUwMzUxIHYgMi4yMDE0MDUgYyAwLDAuMzMwMjExIC0wLjIyMDE0LDAuNTUwMzUxIC0wLjU1MDM1LDAuNTUwMzUxIC0wLjMzMDIxLDAgLTAuNTUwMzUsLTAuMjIwMTQgLTAuNTUwMzUsLTAuNTUwMzUxIHogbSAtMi4yMDE0MSwwIHYgLTIuMjAxNDA1IGMgMCwtMC4zMzAyMTEgMC4yMjAxNCwtMC41NTAzNTEgMC41NTAzNSwtMC41NTAzNTEgMC4zMzAyMiwwIDAuNTUwMzYsMC4yMjAxNCAwLjU1MDM2LDAuNTUwMzUxIHYgMi4yMDE0MDUgYyAwLDAuMzMwMjExIC0wLjIyMDE0LDAuNTUwMzUxIC0wLjU1MDM2LDAuNTUwMzUxIC0wLjMzMDIxLDAgLTAuNTUwMzUsLTAuMjIwMTQgLTAuNTUwMzUsLTAuNTUwMzUxIHogbSAtMi4yMDE0LDAgdiAtMi4yMDE0MDUgYyAwLC0wLjMzMDIxMSAwLjIyMDE0LC0wLjU1MDM1MSAwLjU1MDM1LC0wLjU1MDM1MSAwLjMzMDIxLDAgMC41NTAzNSwwLjIyMDE0IDAuNTUwMzUsMC41NTAzNTEgdiAyLjIwMTQwNSBjIDAsMC4zMzAyMTEgLTAuMjIwMTQsMC41NTAzNTEgLTAuNTUwMzUsMC41NTAzNTEgLTAuMzMwMjEsMCAtMC41NTAzNSwtMC4yMjAxNCAtMC41NTAzNSwtMC41NTAzNTEgeiBtIC0yLjIwMTQxLDAgdiAtMi4yMDE0MDUgYyAwLC0wLjMzMDIxMSAwLjIyMDE0LC0wLjU1MDM1MSAwLjU1MDM1LC0wLjU1MDM1MSAwLjMzMDIxLDAgMC41NTAzNiwwLjIyMDE0IDAuNTUwMzYsMC41NTAzNTEgdiAyLjIwMTQwNSBjIDAsMC4zMzAyMTEgLTAuMjIwMTUsMC41NTAzNTEgLTAuNTUwMzYsMC41NTAzNTEgLTAuMzMwMjEsMCAtMC41NTAzNSwtMC4yMjAxNCAtMC41NTAzNSwtMC41NTAzNTEgeiBtIC0yLjIwMTQsMCB2IC0yLjIwMTQwNSBjIDAsLTAuMzMwMjExIDAuMjIwMTQsLTAuNTUwMzUxIDAuNTUwMzUsLTAuNTUwMzUxIDAuMzMwMjEsMCAwLjU1MDM1LDAuMjIwMTQgMC41NTAzNSwwLjU1MDM1MSB2IDIuMjAxNDA1IGMgMCwwLjMzMDIxMSAtMC4yMjAxNCwwLjU1MDM1MSAtMC41NTAzNSwwLjU1MDM1MSAtMC4zMzAyMSwwIC0wLjU1MDM1LC0wLjIyMDE0IC0wLjU1MDM1LC0wLjU1MDM1MSB6IG0gOC44MDU2Miw2LjYwNDIxNiB2IC0yLjIwMTQwNiBjIDAsLTAuMzMwMjEgMC4yMjAxNCwtMC41NTAzNTEgMC41NTAzNSwtMC41NTAzNTEgMC4zMzAyMSwwIDAuNTUwMzUsMC4yMjAxNDEgMC41NTAzNSwwLjU1MDM1MSB2IDIuMjAxNDA2IGMgMCwwLjMzMDIxIC0wLjIyMDE0LDAuNTUwMzUxIC0wLjU1MDM1LDAuNTUwMzUxIC0wLjMzMDIxLDAgLTAuNTUwMzUsLTAuMjIwMTQxIC0wLjU1MDM1LC0wLjU1MDM1MSB6IG0gLTIuMjAxNDEsMCB2IC0yLjIwMTQwNiBjIDAsLTAuMzMwMjEgMC4yMjAxNCwtMC41NTAzNTEgMC41NTAzNSwtMC41NTAzNTEgMC4zMzAyMiwwIDAuNTUwMzYsMC4yMjAxNDEgMC41NTAzNiwwLjU1MDM1MSB2IDIuMjAxNDA2IGMgMCwwLjMzMDIxIC0wLjIyMDE0LDAuNTUwMzUxIC0wLjU1MDM2LDAuNTUwMzUxIC0wLjMzMDIxLDAgLTAuNTUwMzUsLTAuMjIwMTQxIC0wLjU1MDM1LC0wLjU1MDM1MSB6IG0gLTIuMjAxNCwwIHYgLTIuMjAxNDA2IGMgMCwtMC4zMzAyMSAwLjIyMDE0LC0wLjU1MDM1MSAwLjU1MDM1LC0wLjU1MDM1MSAwLjMzMDIxLDAgMC41NTAzNSwwLjIyMDE0MSAwLjU1MDM1LDAuNTUwMzUxIHYgMi4yMDE0MDYgYyAwLDAuMzMwMjEgLTAuMjIwMTQsMC41NTAzNTEgLTAuNTUwMzUsMC41NTAzNTEgLTAuMzMwMjEsMCAtMC41NTAzNSwtMC4yMjAxNDEgLTAuNTUwMzUsLTAuNTUwMzUxIHogbSAtMi4yMDE0MSwwIHYgLTIuMjAxNDA2IGMgMCwtMC4zMzAyMSAwLjIyMDE0LC0wLjU1MDM1MSAwLjU1MDM1LC0wLjU1MDM1MSAwLjMzMDIxLDAgMC41NTAzNiwwLjIyMDE0MSAwLjU1MDM2LDAuNTUwMzUxIHYgMi4yMDE0MDYgYyAwLDAuMzMwMjEgLTAuMjIwMTUsMC41NTAzNTEgLTAuNTUwMzYsMC41NTAzNTEgLTAuMzMwMjEsMCAtMC41NTAzNSwtMC4yMjAxNDEgLTAuNTUwMzUsLTAuNTUwMzUxIHogbSAtMi4yMDE0LDAgdiAtMi4yMDE0MDYgYyAwLC0wLjMzMDIxIDAuMjIwMTQsLTAuNTUwMzUxIDAuNTUwMzUsLTAuNTUwMzUxIDAuMzMwMjEsMCAwLjU1MDM1LDAuMjIwMTQxIDAuNTUwMzUsMC41NTAzNTEgdiAyLjIwMTQwNiBjIDAsMC4zMzAyMSAtMC4yMjAxNCwwLjU1MDM1MSAtMC41NTAzNSwwLjU1MDM1MSAtMC4zMzAyMSwwIC0wLjU1MDM1LC0wLjIyMDE0MSAtMC41NTAzNSwtMC41NTAzNTEgeiBtIDguODA1NjIsNi42MDQyMTUgdiAtMi4yMDE0MDUgYyAwLC0wLjMzMDIxMSAwLjIyMDE0LC0wLjU1MDM1MSAwLjU1MDM1LC0wLjU1MDM1MSAwLjMzMDIxLDAgMC41NTAzNSwwLjIyMDE0IDAuNTUwMzUsMC41NTAzNTEgdiAyLjIwMTQwNSBjIDAsMC4zMzAyMTEgLTAuMjIwMTQsMC41NTAzNTEgLTAuNTUwMzUsMC41NTAzNTEgLTAuMzMwMjEsMCAtMC41NTAzNSwtMC4yMjAxNCAtMC41NTAzNSwtMC41NTAzNTEgeiBtIC0yLjIwMTQxLDAgdiAtMi4yMDE0MDUgYyAwLC0wLjMzMDIxMSAwLjIyMDE0LC0wLjU1MDM1MSAwLjU1MDM1LC0wLjU1MDM1MSAwLjMzMDIyLDAgMC41NTAzNiwwLjIyMDE0IDAuNTUwMzYsMC41NTAzNTEgdiAyLjIwMTQwNSBjIDAsMC4zMzAyMTEgLTAuMjIwMTQsMC41NTAzNTEgLTAuNTUwMzYsMC41NTAzNTEgLTAuMzMwMjEsMCAtMC41NTAzNSwtMC4yMjAxNCAtMC41NTAzNSwtMC41NTAzNTEgeiBtIC0yLjIwMTQsMCB2IC0yLjIwMTQwNSBjIDAsLTAuMzMwMjExIDAuMjIwMTQsLTAuNTUwMzUxIDAuNTUwMzUsLTAuNTUwMzUxIDAuMzMwMjEsMCAwLjU1MDM1LDAuMjIwMTQgMC41NTAzNSwwLjU1MDM1MSB2IDIuMjAxNDA1IGMgMCwwLjMzMDIxMSAtMC4yMjAxNCwwLjU1MDM1MSAtMC41NTAzNSwwLjU1MDM1MSAtMC4zMzAyMSwwIC0wLjU1MDM1LC0wLjIyMDE0IC0wLjU1MDM1LC0wLjU1MDM1MSB6IG0gLTIuMjAxNDEsMCB2IC0yLjIwMTQwNSBjIDAsLTAuMzMwMjExIDAuMjIwMTQsLTAuNTUwMzUxIDAuNTUwMzUsLTAuNTUwMzUxIDAuMzMwMjEsMCAwLjU1MDM2LDAuMjIwMTQgMC41NTAzNiwwLjU1MDM1MSB2IDIuMjAxNDA1IGMgMCwwLjMzMDIxMSAtMC4yMjAxNSwwLjU1MDM1MSAtMC41NTAzNiwwLjU1MDM1MSAtMC4zMzAyMSwwIC0wLjU1MDM1LC0wLjIyMDE0IC0wLjU1MDM1LC0wLjU1MDM1MSB6IG0gLTIuMjAxNCwwIHYgLTIuMjAxNDA1IGMgMCwtMC4zMzAyMTEgMC4yMjAxNCwtMC41NTAzNTEgMC41NTAzNSwtMC41NTAzNTEgMC4zMzAyMSwwIDAuNTUwMzUsMC4yMjAxNCAwLjU1MDM1LDAuNTUwMzUxIHYgMi4yMDE0MDUgYyAwLDAuMzMwMjExIC0wLjIyMDE0LDAuNTUwMzUxIC0wLjU1MDM1LDAuNTUwMzUxIC0wLjMzMDIxLDAgLTAuNTUwMzUsLTAuMjIwMTQgLTAuNTUwMzUsLTAuNTUwMzUxIHogbSA5LjkwNjMyLDQuNDAyODEgdiAyLjIwMTQwNiBjIDAsMC4zMzAyMSAtMC4yMjAxNCwwLjU1MDM1MSAtMC41NTAzNSwwLjU1MDM1MSAtMC4zMzAyMSwwIC0wLjU1MDM1LC0wLjIyMDE0MSAtMC41NTAzNSwtMC41NTAzNTEgdiAtMi4yMDE0MDYgYyAwLC0wLjMzMDIxIDAuMjIwMTQsLTAuNTUwMzUxIDAuNTUwMzUsLTAuNTUwMzUxIDAuMzMwMjEsMCAwLjU1MDM1LDAuMjIwMTQxIDAuNTUwMzUsMC41NTAzNTEgeiBtIC0yLjIwMTQsMCB2IDIuMjAxNDA2IGMgMCwwLjMzMDIxIC0wLjIyMDE0LDAuNTUwMzUxIC0wLjU1MDM2LDAuNTUwMzUxIC0wLjMzMDIxLDAgLTAuNTUwMzUsLTAuMjIwMTQxIC0wLjU1MDM1LC0wLjU1MDM1MSB2IC0yLjIwMTQwNiBjIDAsLTAuMzMwMjEgMC4yMjAxNCwtMC41NTAzNTEgMC41NTAzNSwtMC41NTAzNTEgMC4zMzAyMiwwIDAuNTUwMzYsMC4yMjAxNDEgMC41NTAzNiwwLjU1MDM1MSB6IG0gLTIuMjAxNDEsMCB2IDIuMjAxNDA2IGMgMCwwLjMzMDIxIC0wLjIyMDE0LDAuNTUwMzUxIC0wLjU1MDM1LDAuNTUwMzUxIC0wLjMzMDIxLDAgLTAuNTUwMzUsLTAuMjIwMTQxIC0wLjU1MDM1LC0wLjU1MDM1MSB2IC0yLjIwMTQwNiBjIDAsLTAuMzMwMjEgMC4yMjAxNCwtMC41NTAzNTEgMC41NTAzNSwtMC41NTAzNTEgMC4zMzAyMSwwIDAuNTUwMzUsMC4yMjAxNDEgMC41NTAzNSwwLjU1MDM1MSB6IG0gLTIuMjAxNCwwIHYgMi4yMDE0MDYgYyAwLDAuMzMwMjEgLTAuMjIwMTUsMC41NTAzNTEgLTAuNTUwMzYsMC41NTAzNTEgLTAuMzMwMjEsMCAtMC41NTAzNSwtMC4yMjAxNDEgLTAuNTUwMzUsLTAuNTUwMzUxIHYgLTIuMjAxNDA2IGMgMCwtMC4zMzAyMSAwLjIyMDE0LC0wLjU1MDM1MSAwLjU1MDM1LC0wLjU1MDM1MSAwLjMzMDIxLDAgMC41NTAzNiwwLjIyMDE0MSAwLjU1MDM2LDAuNTUwMzUxIHogbSAtMi4yMDE0MSwwIHYgMi4yMDE0MDYgYyAwLDAuMzMwMjEgLTAuMjIwMTQsMC41NTAzNTEgLTAuNTUwMzUsMC41NTAzNTEgLTAuMzMwMjEsMCAtMC41NTAzNSwtMC4yMjAxNDEgLTAuNTUwMzUsLTAuNTUwMzUxIHYgLTIuMjAxNDA2IGMgMCwtMC4zMzAyMSAwLjIyMDE0LC0wLjU1MDM1MSAwLjU1MDM1LC0wLjU1MDM1MSAwLjMzMDIxLDAgMC41NTAzNSwwLjIyMDE0MSAwLjU1MDM1LDAuNTUwMzUxIHogbSAxLjY1MTA1LC0yNy41MTc1NjQgYyAwLC0wLjMzMDIxMSAwLjIyMDE0LC0wLjU1MDM1MSAwLjU1MDM2LC0wLjU1MDM1MSBoIDYuMDUzODYgYyAwLjMzMDIxLDAgMC41NTAzNSwwLjIyMDE0IDAuNTUwMzUsMC41NTAzNTEgMCwwLjMzMDIxMSAtMC4yMjAxNCwwLjU1MDM1MSAtMC41NTAzNSwwLjU1MDM1MSBoIC02LjA1Mzg2IGMgLTAuMzMwMjIsMCAtMC41NTAzNiwtMC4yMjAxNCAtMC41NTAzNiwtMC41NTAzNTEgeiBtIDAsMS42NTEwNTQgYyAwLC0wLjMzMDIxMSAwLjIyMDE0LC0wLjU1MDM1MiAwLjU1MDM2LC0wLjU1MDM1MiBoIDYuMDUzODYgYyAwLjMzMDIxLDAgMC41NTAzNSwwLjIyMDE0MSAwLjU1MDM1LDAuNTUwMzUyIDAsMC4zMzAyMTEgLTAuMjIwMTQsMC41NTAzNTEgLTAuNTUwMzUsMC41NTAzNTEgaCAtNi4wNTM4NiBjIC0wLjMzMDIyLDAgLTAuNTUwMzYsLTAuMjIwMTQgLTAuNTUwMzYsLTAuNTUwMzUxIHogbSAtOC44MDU2Miw3LjQyOTc0MiBjIDAsMC40NDAyODEgLTAuMzg1MjQsMC44MjU1MjcgLTAuODI1NTIsMC44MjU1MjcgLTAuNDQwMjgsMCAtMC44MjU1MywtMC4zODUyNDYgLTAuODI1NTMsLTAuODI1NTI3IDAsLTAuNDQwMjgxIDAuMzg1MjUsLTAuODI1NTI3IDAuODI1NTMsLTAuODI1NTI3IDAuNDQwMjgsMCAwLjgyNTUyLDAuMzg1MjQ2IDAuODI1NTIsMC44MjU1MjcgeiBtIDAuNTUwMzUsMCBjIDAsLTAuNDQwMjgxIDAuMzg1MjUsLTAuODI1NTI3IDAuODI1NTMsLTAuODI1NTI3IDAuNDQwMjgsMCAwLjgyNTUzLDAuMzg1MjQ2IDAuODI1NTMsMC44MjU1MjcgMCwwLjQ0MDI4MSAtMC4zODUyNSwwLjgyNTUyNyAtMC44MjU1MywwLjgyNTUyNyAtMC40NDAyOCwwIC0wLjgyNTUzLC0wLjM4NTI0NiAtMC44MjU1MywtMC44MjU1MjcgeiBtIC0yLjc1MTc1LDYuNjA0MjE2IGMgMCwwLjQ0MDI4MSAtMC4zODUyNSwwLjgyNTUyNyAtMC44MjU1MywwLjgyNTUyNyAtMC40NDAyOCwwIC0wLjgyNTUzLC0wLjM4NTI0NiAtMC44MjU1MywtMC44MjU1MjcgMCwtMC40NDAyODEgMC4zODUyNSwtMC44MjU1MjcgMC44MjU1MywtMC44MjU1MjcgMC40NDAyOCwwIDAuODI1NTMsMC4zODUyNDYgMC44MjU1MywwLjgyNTUyNyB6IG0gMi4yMDE0LDAgYyAwLDAuNDQwMjgxIC0wLjM4NTI0LDAuODI1NTI3IC0wLjgyNTUyLDAuODI1NTI3IC0wLjQ0MDI4LDAgLTAuODI1NTMsLTAuMzg1MjQ2IC0wLjgyNTUzLC0wLjgyNTUyNyAwLC0wLjQ0MDI4MSAwLjM4NTI1LC0wLjgyNTUyNyAwLjgyNTUzLC0wLjgyNTUyNyAwLjQ0MDI4LDAgMC44MjU1MiwwLjM4NTI0NiAwLjgyNTUyLDAuODI1NTI3IHogbSAwLjU1MDM1LDAgYyAwLC0wLjQ0MDI4MSAwLjM4NTI1LC0wLjgyNTUyNyAwLjgyNTUzLC0wLjgyNTUyNyAwLjQ0MDI4LDAgMC44MjU1MywwLjM4NTI0NiAwLjgyNTUzLDAuODI1NTI3IDAsMC40NDAyODEgLTAuMzg1MjUsMC44MjU1MjcgLTAuODI1NTMsMC44MjU1MjcgLTAuNDQwMjgsMCAtMC44MjU1MywtMC4zODUyNDYgLTAuODI1NTMsLTAuODI1NTI3IHogbSAtNC40MDI4MSw2LjYwNDIxNSBjIDAsLTAuNDQwMjgxIDAuMzg1MjUsLTAuODI1NTI3IDAuODI1NTMsLTAuODI1NTI3IDAuNDQwMjgsMCAwLjgyNTUzLDAuMzg1MjQ2IDAuODI1NTMsMC44MjU1MjcgMCwwLjQ0MDI4MSAtMC4zODUyNSwwLjgyNTUyNyAtMC44MjU1MywwLjgyNTUyNyAtMC40NDAyOCwwIC0wLjgyNTUzLC0wLjM4NTI0NiAtMC44MjU1MywtMC44MjU1MjcgeiBtIDIuMjAxNDEsMCBjIDAsLTAuNDQwMjgxIDAuMzg1MjUsLTAuODI1NTI3IDAuODI1NTMsLTAuODI1NTI3IDAuNDQwMjgsMCAwLjgyNTUyLDAuMzg1MjQ2IDAuODI1NTIsMC44MjU1MjcgMCwwLjQ0MDI4MSAtMC4zODUyNCwwLjgyNTUyNyAtMC44MjU1MiwwLjgyNTUyNyAtMC40NDAyOCwwIC0wLjgyNTUzLC0wLjM4NTI0NiAtMC44MjU1MywtMC44MjU1MjcgeiBtIDIuMjAxNCwwIGMgMCwtMC40NDAyODEgMC4zODUyNSwtMC44MjU1MjcgMC44MjU1MywtMC44MjU1MjcgMC40NDAyOCwwIDAuODI1NTMsMC4zODUyNDYgMC44MjU1MywwLjgyNTUyNyAwLDAuNDQwMjgxIC0wLjM4NTI1LDAuODI1NTI3IC0wLjgyNTUzLDAuODI1NTI3IC0wLjQ0MDI4LDAgLTAuODI1NTMsLTAuMzg1MjQ2IC0wLjgyNTUzLC0wLjgyNTUyNyB6IG0gLTIuNzUxNzUsNi42MDQyMTYgYyAwLDAuNDQwMjgxIC0wLjM4NTI1LDAuODI1NTI3IC0wLjgyNTUzLDAuODI1NTI3IC0wLjQ0MDI4LDAgLTAuODI1NTMsLTAuMzg1MjQ2IC0wLjgyNTUzLC0wLjgyNTUyNyAwLC0wLjQ0MDI4MSAwLjM4NTI1LC0wLjgyNTUyNyAwLjgyNTUzLC0wLjgyNTUyNyAwLjQ0MDI4LDAgMC44MjU1MywwLjM4NTI0NiAwLjgyNTUzLDAuODI1NTI3IHogbSAyLjIwMTQsMCBjIDAsMC40NDAyODEgLTAuMzg1MjQsMC44MjU1MjcgLTAuODI1NTIsMC44MjU1MjcgLTAuNDQwMjgsMCAtMC44MjU1MywtMC4zODUyNDYgLTAuODI1NTMsLTAuODI1NTI3IDAsLTAuNDQwMjgxIDAuMzg1MjUsLTAuODI1NTI3IDAuODI1NTMsLTAuODI1NTI3IDAuNDQwMjgsMCAwLjgyNTUyLDAuMzg1MjQ2IDAuODI1NTIsMC44MjU1MjcgeiBtIDIuMjAxNDEsMCBjIDAsMC40NDAyODEgLTAuMzg1MjUsMC44MjU1MjcgLTAuODI1NTMsMC44MjU1MjcgLTAuNDQwMjgsMCAtMC44MjU1MywtMC4zODUyNDYgLTAuODI1NTMsLTAuODI1NTI3IDAsLTAuNDQwMjgxIDAuMzg1MjUsLTAuODI1NTI3IDAuODI1NTMsLTAuODI1NTI3IDAuNDQwMjgsMCAwLjgyNTUzLDAuMzg1MjQ2IDAuODI1NTMsMC44MjU1MjcgeiBtIC00LjQwMjgxLC0xOS44MTI2NDcgYyAwLDAuNDQwMjgxIC0wLjM4NTI1LDAuODI1NTI3IC0wLjgyNTUzLDAuODI1NTI3IC0wLjQ0MDI4LDAgLTAuODI1NTMsLTAuMzg1MjQ2IC0wLjgyNTUzLC0wLjgyNTUyNyAwLC0wLjQ0MDI4MSAwLjM4NTI1LC0wLjgyNTUyNyAwLjgyNTUzLC0wLjgyNTUyNyAwLjQ0MDI4LDAgMC44MjU1MywwLjM4NTI0NiAwLjgyNTUzLDAuODI1NTI3IHoiIGlkPSJwYXRoNjUiIHN0eWxlPSJzdHJva2Utd2lkdGg6MC41NTAzNTEiLz48L2c+PGcgc3R5bGU9ImZpbGw6IzAwMDAwMCIgaWQ9Imc3MyIgdHJhbnNmb3JtPSJtYXRyaXgoMC42Mjc5NDExOCwwLDAsMC42Mjc5NDExOCwtNi44MjM1Mjk1LDY3LjM4ODIzNikiPjxwYXRoIGNsYXNzPSJHcmFwaGljX3gwMDIwX1N0eWxlX3gwMDIwXzIiIGQ9Im0gMTMzLjMzOTU4LDI4LjAxNjM5MyBjIDAsLTEuMTU1NzM3IC0wLjExMDA3LC0yLjI1NjQ0IC0wLjM4NTI1LC0zLjM1NzE0MyBsIC0xLjEwMDcsLTQuNjc3OTg1IGMgLTAuMTY1MTEsLTAuNzcwNDkyIC0wLjgyNTUzLC0xLjMyMDg0NCAtMS41OTYwMiwtMS4zMjA4NDQgaCAtMjAuMjUyOTMgYyAtMC43NzA0OSwwIC0xLjQzMDkxLDAuNTUwMzUyIC0xLjU5NjAxLDEuMjY1ODA4IGwgLTEuMTAwNzEsNC42Nzc5ODYgYyAtMC4yNzUxNywxLjE1NTczOCAtMC4zODUyNCwyLjI1NjQ0MSAtMC4zODUyNCwzLjQxMjE3OCBWIDUyLjIzMTg1IGMgMCwwLjkzNTU5NyAwLjcxNTQ1LDEuNjUxMDU0IDEuNjUxMDUsMS42NTEwNTQgaCAyMy4xMTQ3NSBjIDAuOTM1NiwwIDEuNjUxMDYsLTAuNzE1NDU3IDEuNjUxMDYsLTEuNjUxMDU0IFYgMjguMDE2MzkzIGMgMCwwIDAsMCAwLDAgMCwwIDAsMCAwLDAgeiBtIC0yMy44ODUyNSwtNy44MTQ5ODggYyAwLjA1NSwtMC4yNzUxNzYgMC4yNzUxOCwtMC40NDAyODEgMC41NTAzNSwtMC40NDAyODEgaCAyMC4yNTI5MyBjIDAuMjc1MTgsMCAwLjQ5NTMyLDAuMTY1MTA1IDAuNTUwMzUsMC40NDAyODEgbCAxLjEwMDcxLDQuNjc3OTg2IGMgMC4xMTAwNywwLjQ5NTMxNiAwLjIyMDE0LDEuMDQ1NjY3IDAuMjc1MTcsMS41NDA5ODQgLTAuMTY1MSwwIC0wLjMzMDIxLC0wLjA1NTA0IC0wLjQ5NTMyLC0wLjA1NTA0IGggLTIzLjExNDc1IGMgLTAuMTY1MSwwIC0wLjMzMDIxLDAuMDU1MDQgLTAuNDQwMjgsMC4wNTUwNCAwLjA1NSwtMC41NTAzNTIgMC4xNjUxLC0xLjA0NTY2OCAwLjI3NTE4LC0xLjU0MDk4NCB6IG0gMjIuMjM0MTksMzIuNTgwNzk2IGggLTIzLjExNDc1IGMgLTAuMzMwMjEsMCAtMC41NTAzNSwtMC4yMjAxNCAtMC41NTAzNSwtMC41NTAzNTEgViA0MC42NzQ0NzMgaCA2LjA1Mzg2IGMgMC4zMzAyMSwwIDAuNTUwMzUsLTAuMjIwMTQgMC41NTAzNSwtMC41NTAzNTEgMCwtMC4zMzAyMTEgLTAuMjIwMTQsLTAuNTUwMzUyIC0wLjU1MDM1LC0wLjU1MDM1MiBoIC02LjA1Mzg2IHYgLTUuNTAzNTEyIGggNC40MDI4MSBjIDAuMzMwMjEsMCAwLjU1MDM1LC0wLjIyMDE0MSAwLjU1MDM1LC0wLjU1MDM1MiAwLC0wLjMzMDIxMSAtMC4yMjAxNCwtMC41NTAzNTEgLTAuNTUwMzUsLTAuNTUwMzUxIGggLTQuNDAyODEgdiAtNC45NTMxNjIgYyAwLC0wLjMzMDIxIDAuMjIwMTQsLTAuNTUwMzUxIDAuNTUwMzUsLTAuNTUwMzUxIGggMjMuMTE0NzUgYyAwLjMzMDIyLDAgMC41NTAzNiwwLjIyMDE0MSAwLjU1MDM2LDAuNTUwMzUxIHYgNC45NTMxNjIgaCAtMTQuODU5NDkgYyAtMC4zMzAyMSwwIC0wLjU1MDM1LDAuMjIwMTQgLTAuNTUwMzUsMC41NTAzNTEgMCwwLjMzMDIxMSAwLjIyMDE0LDAuNTUwMzUyIDAuNTUwMzUsMC41NTAzNTIgaCAxNC44NTk0OSB2IDUuNTAzNTEyIGggLTE0Ljg1OTQ5IGMgLTAuMzMwMjEsMCAtMC41NTAzNSwwLjIyMDE0MSAtMC41NTAzNSwwLjU1MDM1MiAwLDAuMzMwMjExIDAuMjIwMTQsMC41NTAzNTEgMC41NTAzNSwwLjU1MDM1MSBoIDE0Ljg1OTQ5IHYgNS41MDM1MTMgaCAtMjIuNTY0NDEgYyAtMC4zMzAyMSwwIC0wLjU1MDM1LDAuMjIwMTQgLTAuNTUwMzUsMC41NTAzNTEgMCwwLjMzMDIxMSAwLjIyMDE0LDAuNTUwMzUyIDAuNTUwMzUsMC41NTAzNTIgaCAyMi41NjQ0MSB2IDQuOTUzMTYxIGMgMCwwLjMzMDIxMSAtMC4yMjAxNCwwLjU1MDM1MSAtMC41NTAzNiwwLjU1MDM1MSB6IG0gLTIuNzUxNzUsLTIxLjQ2MzcgdiAtMi4yMDE0MDUgYyAwLC0wLjMzMDIxMSAwLjIyMDE0LC0wLjU1MDM1MSAwLjU1MDM1LC0wLjU1MDM1MSAwLjMzMDIxLDAgMC41NTAzNSwwLjIyMDE0IDAuNTUwMzUsMC41NTAzNTEgdiAyLjIwMTQwNSBjIDAsMC4zMzAyMTEgLTAuMjIwMTQsMC41NTAzNTEgLTAuNTUwMzUsMC41NTAzNTEgLTAuMzMwMjEsMCAtMC41NTAzNSwtMC4yMjAxNCAtMC41NTAzNSwtMC41NTAzNTEgeiBtIC0yLjIwMTQxLDAgdiAtMi4yMDE0MDUgYyAwLC0wLjMzMDIxMSAwLjIyMDE0LC0wLjU1MDM1MSAwLjU1MDM1LC0wLjU1MDM1MSAwLjMzMDIyLDAgMC41NTAzNiwwLjIyMDE0IDAuNTUwMzYsMC41NTAzNTEgdiAyLjIwMTQwNSBjIDAsMC4zMzAyMTEgLTAuMjIwMTQsMC41NTAzNTEgLTAuNTUwMzYsMC41NTAzNTEgLTAuMzMwMjEsMCAtMC41NTAzNSwtMC4yMjAxNCAtMC41NTAzNSwtMC41NTAzNTEgeiBtIC0yLjIwMTQsMCB2IC0yLjIwMTQwNSBjIDAsLTAuMzMwMjExIDAuMjIwMTQsLTAuNTUwMzUxIDAuNTUwMzUsLTAuNTUwMzUxIDAuMzMwMjEsMCAwLjU1MDM1LDAuMjIwMTQgMC41NTAzNSwwLjU1MDM1MSB2IDIuMjAxNDA1IGMgMCwwLjMzMDIxMSAtMC4yMjAxNCwwLjU1MDM1MSAtMC41NTAzNSwwLjU1MDM1MSAtMC4zMzAyMSwwIC0wLjU1MDM1LC0wLjIyMDE0IC0wLjU1MDM1LC0wLjU1MDM1MSB6IG0gLTIuMjAxNDEsMCB2IC0yLjIwMTQwNSBjIDAsLTAuMzMwMjExIDAuMjIwMTQsLTAuNTUwMzUxIDAuNTUwMzUsLTAuNTUwMzUxIDAuMzMwMjEsMCAwLjU1MDM2LDAuMjIwMTQgMC41NTAzNiwwLjU1MDM1MSB2IDIuMjAxNDA1IGMgMCwwLjMzMDIxMSAtMC4yMjAxNSwwLjU1MDM1MSAtMC41NTAzNiwwLjU1MDM1MSAtMC4zMzAyMSwwIC0wLjU1MDM1LC0wLjIyMDE0IC0wLjU1MDM1LC0wLjU1MDM1MSB6IG0gLTIuMjAxNCwwIHYgLTIuMjAxNDA1IGMgMCwtMC4zMzAyMTEgMC4yMjAxNCwtMC41NTAzNTEgMC41NTAzNSwtMC41NTAzNTEgMC4zMzAyMSwwIDAuNTUwMzUsMC4yMjAxNCAwLjU1MDM1LDAuNTUwMzUxIHYgMi4yMDE0MDUgYyAwLDAuMzMwMjExIC0wLjIyMDE0LDAuNTUwMzUxIC0wLjU1MDM1LDAuNTUwMzUxIC0wLjMzMDIxLDAgLTAuNTUwMzUsLTAuMjIwMTQgLTAuNTUwMzUsLTAuNTUwMzUxIHogbSA4LjgwNTYyLDYuNjA0MjE2IHYgLTIuMjAxNDA2IGMgMCwtMC4zMzAyMSAwLjIyMDE0LC0wLjU1MDM1MSAwLjU1MDM1LC0wLjU1MDM1MSAwLjMzMDIxLDAgMC41NTAzNSwwLjIyMDE0MSAwLjU1MDM1LDAuNTUwMzUxIHYgMi4yMDE0MDYgYyAwLDAuMzMwMjEgLTAuMjIwMTQsMC41NTAzNTEgLTAuNTUwMzUsMC41NTAzNTEgLTAuMzMwMjEsMCAtMC41NTAzNSwtMC4yMjAxNDEgLTAuNTUwMzUsLTAuNTUwMzUxIHogbSAtMi4yMDE0MSwwIHYgLTIuMjAxNDA2IGMgMCwtMC4zMzAyMSAwLjIyMDE0LC0wLjU1MDM1MSAwLjU1MDM1LC0wLjU1MDM1MSAwLjMzMDIyLDAgMC41NTAzNiwwLjIyMDE0MSAwLjU1MDM2LDAuNTUwMzUxIHYgMi4yMDE0MDYgYyAwLDAuMzMwMjEgLTAuMjIwMTQsMC41NTAzNTEgLTAuNTUwMzYsMC41NTAzNTEgLTAuMzMwMjEsMCAtMC41NTAzNSwtMC4yMjAxNDEgLTAuNTUwMzUsLTAuNTUwMzUxIHogbSAtMi4yMDE0LDAgdiAtMi4yMDE0MDYgYyAwLC0wLjMzMDIxIDAuMjIwMTQsLTAuNTUwMzUxIDAuNTUwMzUsLTAuNTUwMzUxIDAuMzMwMjEsMCAwLjU1MDM1LDAuMjIwMTQxIDAuNTUwMzUsMC41NTAzNTEgdiAyLjIwMTQwNiBjIDAsMC4zMzAyMSAtMC4yMjAxNCwwLjU1MDM1MSAtMC41NTAzNSwwLjU1MDM1MSAtMC4zMzAyMSwwIC0wLjU1MDM1LC0wLjIyMDE0MSAtMC41NTAzNSwtMC41NTAzNTEgeiBtIC0yLjIwMTQxLDAgdiAtMi4yMDE0MDYgYyAwLC0wLjMzMDIxIDAuMjIwMTQsLTAuNTUwMzUxIDAuNTUwMzUsLTAuNTUwMzUxIDAuMzMwMjEsMCAwLjU1MDM2LDAuMjIwMTQxIDAuNTUwMzYsMC41NTAzNTEgdiAyLjIwMTQwNiBjIDAsMC4zMzAyMSAtMC4yMjAxNSwwLjU1MDM1MSAtMC41NTAzNiwwLjU1MDM1MSAtMC4zMzAyMSwwIC0wLjU1MDM1LC0wLjIyMDE0MSAtMC41NTAzNSwtMC41NTAzNTEgeiBtIC0yLjIwMTQsMCB2IC0yLjIwMTQwNiBjIDAsLTAuMzMwMjEgMC4yMjAxNCwtMC41NTAzNTEgMC41NTAzNSwtMC41NTAzNTEgMC4zMzAyMSwwIDAuNTUwMzUsMC4yMjAxNDEgMC41NTAzNSwwLjU1MDM1MSB2IDIuMjAxNDA2IGMgMCwwLjMzMDIxIC0wLjIyMDE0LDAuNTUwMzUxIC0wLjU1MDM1LDAuNTUwMzUxIC0wLjMzMDIxLDAgLTAuNTUwMzUsLTAuMjIwMTQxIC0wLjU1MDM1LC0wLjU1MDM1MSB6IG0gOC44MDU2Miw2LjYwNDIxNSB2IC0yLjIwMTQwNSBjIDAsLTAuMzMwMjExIDAuMjIwMTQsLTAuNTUwMzUxIDAuNTUwMzUsLTAuNTUwMzUxIDAuMzMwMjEsMCAwLjU1MDM1LDAuMjIwMTQgMC41NTAzNSwwLjU1MDM1MSB2IDIuMjAxNDA1IGMgMCwwLjMzMDIxMSAtMC4yMjAxNCwwLjU1MDM1MSAtMC41NTAzNSwwLjU1MDM1MSAtMC4zMzAyMSwwIC0wLjU1MDM1LC0wLjIyMDE0IC0wLjU1MDM1LC0wLjU1MDM1MSB6IG0gLTIuMjAxNDEsMCB2IC0yLjIwMTQwNSBjIDAsLTAuMzMwMjExIDAuMjIwMTQsLTAuNTUwMzUxIDAuNTUwMzUsLTAuNTUwMzUxIDAuMzMwMjIsMCAwLjU1MDM2LDAuMjIwMTQgMC41NTAzNiwwLjU1MDM1MSB2IDIuMjAxNDA1IGMgMCwwLjMzMDIxMSAtMC4yMjAxNCwwLjU1MDM1MSAtMC41NTAzNiwwLjU1MDM1MSAtMC4zMzAyMSwwIC0wLjU1MDM1LC0wLjIyMDE0IC0wLjU1MDM1LC0wLjU1MDM1MSB6IG0gLTIuMjAxNCwwIHYgLTIuMjAxNDA1IGMgMCwtMC4zMzAyMTEgMC4yMjAxNCwtMC41NTAzNTEgMC41NTAzNSwtMC41NTAzNTEgMC4zMzAyMSwwIDAuNTUwMzUsMC4yMjAxNCAwLjU1MDM1LDAuNTUwMzUxIHYgMi4yMDE0MDUgYyAwLDAuMzMwMjExIC0wLjIyMDE0LDAuNTUwMzUxIC0wLjU1MDM1LDAuNTUwMzUxIC0wLjMzMDIxLDAgLTAuNTUwMzUsLTAuMjIwMTQgLTAuNTUwMzUsLTAuNTUwMzUxIHogbSAtMi4yMDE0MSwwIHYgLTIuMjAxNDA1IGMgMCwtMC4zMzAyMTEgMC4yMjAxNCwtMC41NTAzNTEgMC41NTAzNSwtMC41NTAzNTEgMC4zMzAyMSwwIDAuNTUwMzYsMC4yMjAxNCAwLjU1MDM2LDAuNTUwMzUxIHYgMi4yMDE0MDUgYyAwLDAuMzMwMjExIC0wLjIyMDE1LDAuNTUwMzUxIC0wLjU1MDM2LDAuNTUwMzUxIC0wLjMzMDIxLDAgLTAuNTUwMzUsLTAuMjIwMTQgLTAuNTUwMzUsLTAuNTUwMzUxIHogbSAtMi4yMDE0LDAgdiAtMi4yMDE0MDUgYyAwLC0wLjMzMDIxMSAwLjIyMDE0LC0wLjU1MDM1MSAwLjU1MDM1LC0wLjU1MDM1MSAwLjMzMDIxLDAgMC41NTAzNSwwLjIyMDE0IDAuNTUwMzUsMC41NTAzNTEgdiAyLjIwMTQwNSBjIDAsMC4zMzAyMTEgLTAuMjIwMTQsMC41NTAzNTEgLTAuNTUwMzUsMC41NTAzNTEgLTAuMzMwMjEsMCAtMC41NTAzNSwtMC4yMjAxNCAtMC41NTAzNSwtMC41NTAzNTEgeiBtIDkuOTA2MzIsNC40MDI4MSB2IDIuMjAxNDA2IGMgMCwwLjMzMDIxIC0wLjIyMDE0LDAuNTUwMzUxIC0wLjU1MDM1LDAuNTUwMzUxIC0wLjMzMDIxLDAgLTAuNTUwMzUsLTAuMjIwMTQxIC0wLjU1MDM1LC0wLjU1MDM1MSB2IC0yLjIwMTQwNiBjIDAsLTAuMzMwMjEgMC4yMjAxNCwtMC41NTAzNTEgMC41NTAzNSwtMC41NTAzNTEgMC4zMzAyMSwwIDAuNTUwMzUsMC4yMjAxNDEgMC41NTAzNSwwLjU1MDM1MSB6IG0gLTIuMjAxNCwwIHYgMi4yMDE0MDYgYyAwLDAuMzMwMjEgLTAuMjIwMTQsMC41NTAzNTEgLTAuNTUwMzYsMC41NTAzNTEgLTAuMzMwMjEsMCAtMC41NTAzNSwtMC4yMjAxNDEgLTAuNTUwMzUsLTAuNTUwMzUxIHYgLTIuMjAxNDA2IGMgMCwtMC4zMzAyMSAwLjIyMDE0LC0wLjU1MDM1MSAwLjU1MDM1LC0wLjU1MDM1MSAwLjMzMDIyLDAgMC41NTAzNiwwLjIyMDE0MSAwLjU1MDM2LDAuNTUwMzUxIHogbSAtMi4yMDE0MSwwIHYgMi4yMDE0MDYgYyAwLDAuMzMwMjEgLTAuMjIwMTQsMC41NTAzNTEgLTAuNTUwMzUsMC41NTAzNTEgLTAuMzMwMjEsMCAtMC41NTAzNSwtMC4yMjAxNDEgLTAuNTUwMzUsLTAuNTUwMzUxIHYgLTIuMjAxNDA2IGMgMCwtMC4zMzAyMSAwLjIyMDE0LC0wLjU1MDM1MSAwLjU1MDM1LC0wLjU1MDM1MSAwLjMzMDIxLDAgMC41NTAzNSwwLjIyMDE0MSAwLjU1MDM1LDAuNTUwMzUxIHogbSAtMi4yMDE0LDAgdiAyLjIwMTQwNiBjIDAsMC4zMzAyMSAtMC4yMjAxNSwwLjU1MDM1MSAtMC41NTAzNiwwLjU1MDM1MSAtMC4zMzAyMSwwIC0wLjU1MDM1LC0wLjIyMDE0MSAtMC41NTAzNSwtMC41NTAzNTEgdiAtMi4yMDE0MDYgYyAwLC0wLjMzMDIxIDAuMjIwMTQsLTAuNTUwMzUxIDAuNTUwMzUsLTAuNTUwMzUxIDAuMzMwMjEsMCAwLjU1MDM2LDAuMjIwMTQxIDAuNTUwMzYsMC41NTAzNTEgeiBtIC0yLjIwMTQxLDAgdiAyLjIwMTQwNiBjIDAsMC4zMzAyMSAtMC4yMjAxNCwwLjU1MDM1MSAtMC41NTAzNSwwLjU1MDM1MSAtMC4zMzAyMSwwIC0wLjU1MDM1LC0wLjIyMDE0MSAtMC41NTAzNSwtMC41NTAzNTEgdiAtMi4yMDE0MDYgYyAwLC0wLjMzMDIxIDAuMjIwMTQsLTAuNTUwMzUxIDAuNTUwMzUsLTAuNTUwMzUxIDAuMzMwMjEsMCAwLjU1MDM1LDAuMjIwMTQxIDAuNTUwMzUsMC41NTAzNTEgeiBtIDEuNjUxMDUsLTI3LjUxNzU2NCBjIDAsLTAuMzMwMjExIDAuMjIwMTQsLTAuNTUwMzUxIDAuNTUwMzYsLTAuNTUwMzUxIGggNi4wNTM4NiBjIDAuMzMwMjEsMCAwLjU1MDM1LDAuMjIwMTQgMC41NTAzNSwwLjU1MDM1MSAwLDAuMzMwMjExIC0wLjIyMDE0LDAuNTUwMzUxIC0wLjU1MDM1LDAuNTUwMzUxIGggLTYuMDUzODYgYyAtMC4zMzAyMiwwIC0wLjU1MDM2LC0wLjIyMDE0IC0wLjU1MDM2LC0wLjU1MDM1MSB6IG0gMCwxLjY1MTA1NCBjIDAsLTAuMzMwMjExIDAuMjIwMTQsLTAuNTUwMzUyIDAuNTUwMzYsLTAuNTUwMzUyIGggNi4wNTM4NiBjIDAuMzMwMjEsMCAwLjU1MDM1LDAuMjIwMTQxIDAuNTUwMzUsMC41NTAzNTIgMCwwLjMzMDIxMSAtMC4yMjAxNCwwLjU1MDM1MSAtMC41NTAzNSwwLjU1MDM1MSBoIC02LjA1Mzg2IGMgLTAuMzMwMjIsMCAtMC41NTAzNiwtMC4yMjAxNCAtMC41NTAzNiwtMC41NTAzNTEgeiBtIC04LjgwNTYyLDcuNDI5NzQyIGMgMCwwLjQ0MDI4MSAtMC4zODUyNCwwLjgyNTUyNyAtMC44MjU1MiwwLjgyNTUyNyAtMC40NDAyOCwwIC0wLjgyNTUzLC0wLjM4NTI0NiAtMC44MjU1MywtMC44MjU1MjcgMCwtMC40NDAyODEgMC4zODUyNSwtMC44MjU1MjcgMC44MjU1MywtMC44MjU1MjcgMC40NDAyOCwwIDAuODI1NTIsMC4zODUyNDYgMC44MjU1MiwwLjgyNTUyNyB6IG0gMC41NTAzNSwwIGMgMCwtMC40NDAyODEgMC4zODUyNSwtMC44MjU1MjcgMC44MjU1MywtMC44MjU1MjcgMC40NDAyOCwwIDAuODI1NTMsMC4zODUyNDYgMC44MjU1MywwLjgyNTUyNyAwLDAuNDQwMjgxIC0wLjM4NTI1LDAuODI1NTI3IC0wLjgyNTUzLDAuODI1NTI3IC0wLjQ0MDI4LDAgLTAuODI1NTMsLTAuMzg1MjQ2IC0wLjgyNTUzLC0wLjgyNTUyNyB6IG0gLTIuNzUxNzUsNi42MDQyMTYgYyAwLDAuNDQwMjgxIC0wLjM4NTI1LDAuODI1NTI3IC0wLjgyNTUzLDAuODI1NTI3IC0wLjQ0MDI4LDAgLTAuODI1NTMsLTAuMzg1MjQ2IC0wLjgyNTUzLC0wLjgyNTUyNyAwLC0wLjQ0MDI4MSAwLjM4NTI1LC0wLjgyNTUyNyAwLjgyNTUzLC0wLjgyNTUyNyAwLjQ0MDI4LDAgMC44MjU1MywwLjM4NTI0NiAwLjgyNTUzLDAuODI1NTI3IHogbSAyLjIwMTQsMCBjIDAsMC40NDAyODEgLTAuMzg1MjQsMC44MjU1MjcgLTAuODI1NTIsMC44MjU1MjcgLTAuNDQwMjgsMCAtMC44MjU1MywtMC4zODUyNDYgLTAuODI1NTMsLTAuODI1NTI3IDAsLTAuNDQwMjgxIDAuMzg1MjUsLTAuODI1NTI3IDAuODI1NTMsLTAuODI1NTI3IDAuNDQwMjgsMCAwLjgyNTUyLDAuMzg1MjQ2IDAuODI1NTIsMC44MjU1MjcgeiBtIDAuNTUwMzUsMCBjIDAsLTAuNDQwMjgxIDAuMzg1MjUsLTAuODI1NTI3IDAuODI1NTMsLTAuODI1NTI3IDAuNDQwMjgsMCAwLjgyNTUzLDAuMzg1MjQ2IDAuODI1NTMsMC44MjU1MjcgMCwwLjQ0MDI4MSAtMC4zODUyNSwwLjgyNTUyNyAtMC44MjU1MywwLjgyNTUyNyAtMC40NDAyOCwwIC0wLjgyNTUzLC0wLjM4NTI0NiAtMC44MjU1MywtMC44MjU1MjcgeiBtIC00LjQwMjgxLDYuNjA0MjE1IGMgMCwtMC40NDAyODEgMC4zODUyNSwtMC44MjU1MjcgMC44MjU1MywtMC44MjU1MjcgMC40NDAyOCwwIDAuODI1NTMsMC4zODUyNDYgMC44MjU1MywwLjgyNTUyNyAwLDAuNDQwMjgxIC0wLjM4NTI1LDAuODI1NTI3IC0wLjgyNTUzLDAuODI1NTI3IC0wLjQ0MDI4LDAgLTAuODI1NTMsLTAuMzg1MjQ2IC0wLjgyNTUzLC0wLjgyNTUyNyB6IG0gMi4yMDE0MSwwIGMgMCwtMC40NDAyODEgMC4zODUyNSwtMC44MjU1MjcgMC44MjU1MywtMC44MjU1MjcgMC40NDAyOCwwIDAuODI1NTIsMC4zODUyNDYgMC44MjU1MiwwLjgyNTUyNyAwLDAuNDQwMjgxIC0wLjM4NTI0LDAuODI1NTI3IC0wLjgyNTUyLDAuODI1NTI3IC0wLjQ0MDI4LDAgLTAuODI1NTMsLTAuMzg1MjQ2IC0wLjgyNTUzLC0wLjgyNTUyNyB6IG0gMi4yMDE0LDAgYyAwLC0wLjQ0MDI4MSAwLjM4NTI1LC0wLjgyNTUyNyAwLjgyNTUzLC0wLjgyNTUyNyAwLjQ0MDI4LDAgMC44MjU1MywwLjM4NTI0NiAwLjgyNTUzLDAuODI1NTI3IDAsMC40NDAyODEgLTAuMzg1MjUsMC44MjU1MjcgLTAuODI1NTMsMC44MjU1MjcgLTAuNDQwMjgsMCAtMC44MjU1MywtMC4zODUyNDYgLTAuODI1NTMsLTAuODI1NTI3IHogbSAtMi43NTE3NSw2LjYwNDIxNiBjIDAsMC40NDAyODEgLTAuMzg1MjUsMC44MjU1MjcgLTAuODI1NTMsMC44MjU1MjcgLTAuNDQwMjgsMCAtMC44MjU1MywtMC4zODUyNDYgLTAuODI1NTMsLTAuODI1NTI3IDAsLTAuNDQwMjgxIDAuMzg1MjUsLTAuODI1NTI3IDAuODI1NTMsLTAuODI1NTI3IDAuNDQwMjgsMCAwLjgyNTUzLDAuMzg1MjQ2IDAuODI1NTMsMC44MjU1MjcgeiBtIDIuMjAxNCwwIGMgMCwwLjQ0MDI4MSAtMC4zODUyNCwwLjgyNTUyNyAtMC44MjU1MiwwLjgyNTUyNyAtMC40NDAyOCwwIC0wLjgyNTUzLC0wLjM4NTI0NiAtMC44MjU1MywtMC44MjU1MjcgMCwtMC40NDAyODEgMC4zODUyNSwtMC44MjU1MjcgMC44MjU1MywtMC44MjU1MjcgMC40NDAyOCwwIDAuODI1NTIsMC4zODUyNDYgMC44MjU1MiwwLjgyNTUyNyB6IG0gMi4yMDE0MSwwIGMgMCwwLjQ0MDI4MSAtMC4zODUyNSwwLjgyNTUyNyAtMC44MjU1MywwLjgyNTUyNyAtMC40NDAyOCwwIC0wLjgyNTUzLC0wLjM4NTI0NiAtMC44MjU1MywtMC44MjU1MjcgMCwtMC40NDAyODEgMC4zODUyNSwtMC44MjU1MjcgMC44MjU1MywtMC44MjU1MjcgMC40NDAyOCwwIDAuODI1NTMsMC4zODUyNDYgMC44MjU1MywwLjgyNTUyNyB6IG0gLTQuNDAyODEsLTE5LjgxMjY0NyBjIDAsMC40NDAyODEgLTAuMzg1MjUsMC44MjU1MjcgLTAuODI1NTMsMC44MjU1MjcgLTAuNDQwMjgsMCAtMC44MjU1MywtMC4zODUyNDYgLTAuODI1NTMsLTAuODI1NTI3IDAsLTAuNDQwMjgxIDAuMzg1MjUsLTAuODI1NTI3IDAuODI1NTMsLTAuODI1NTI3IDAuNDQwMjgsMCAwLjgyNTUzLDAuMzg1MjQ2IDAuODI1NTMsMC44MjU1MjcgeiIgaWQ9InBhdGg2OSIgc3R5bGU9InN0cm9rZS13aWR0aDowLjU1MDM1MSIvPjxwYXRoIGNsYXNzPSJHcmFwaGljX3gwMDIwX1N0eWxlX3gwMDIwXzIiIGQ9Im0gMTY2LjYxMzU4LDI4LjAxNjM5MyBjIDAsLTEuMTU1NzM3IC0wLjExMDA3LC0yLjI1NjQ0IC0wLjM4NTI1LC0zLjM1NzE0MyBsIC0xLjEwMDcsLTQuNjc3OTg1IGMgLTAuMTY1MTEsLTAuNzcwNDkyIC0wLjgyNTUzLC0xLjMyMDg0NCAtMS41OTYwMiwtMS4zMjA4NDQgaCAtMjAuMjUyOTMgYyAtMC43NzA0OSwwIC0xLjQzMDkxLDAuNTUwMzUyIC0xLjU5NjAxLDEuMjY1ODA4IGwgLTEuMTAwNzEsNC42Nzc5ODYgYyAtMC4yNzUxNywxLjE1NTczOCAtMC4zODUyNCwyLjI1NjQ0MSAtMC4zODUyNCwzLjQxMjE3OCBWIDUyLjIzMTg1IGMgMCwwLjkzNTU5NyAwLjcxNTQ1LDEuNjUxMDU0IDEuNjUxMDUsMS42NTEwNTQgaCAyMy4xMTQ3NSBjIDAuOTM1NiwwIDEuNjUxMDYsLTAuNzE1NDU3IDEuNjUxMDYsLTEuNjUxMDU0IFYgMjguMDE2MzkzIGMgMCwwIDAsMCAwLDAgMCwwIDAsMCAwLDAgeiBtIC0yMy44ODUyNSwtNy44MTQ5ODggYyAwLjA1NSwtMC4yNzUxNzYgMC4yNzUxOCwtMC40NDAyODEgMC41NTAzNSwtMC40NDAyODEgaCAyMC4yNTI5MyBjIDAuMjc1MTgsMCAwLjQ5NTMyLDAuMTY1MTA1IDAuNTUwMzUsMC40NDAyODEgbCAxLjEwMDcxLDQuNjc3OTg2IGMgMC4xMTAwNywwLjQ5NTMxNiAwLjIyMDE0LDEuMDQ1NjY3IDAuMjc1MTcsMS41NDA5ODQgLTAuMTY1MSwwIC0wLjMzMDIxLC0wLjA1NTA0IC0wLjQ5NTMyLC0wLjA1NTA0IGggLTIzLjExNDc1IGMgLTAuMTY1MSwwIC0wLjMzMDIxLDAuMDU1MDQgLTAuNDQwMjgsMC4wNTUwNCAwLjA1NSwtMC41NTAzNTIgMC4xNjUxLC0xLjA0NTY2OCAwLjI3NTE4LC0xLjU0MDk4NCB6IG0gMjIuMjM0MTksMzIuNTgwNzk2IGggLTIzLjExNDc1IGMgLTAuMzMwMjEsMCAtMC41NTAzNSwtMC4yMjAxNCAtMC41NTAzNSwtMC41NTAzNTEgViA0MC42NzQ0NzMgaCA2LjA1Mzg2IGMgMC4zMzAyMSwwIDAuNTUwMzUsLTAuMjIwMTQgMC41NTAzNSwtMC41NTAzNTEgMCwtMC4zMzAyMTEgLTAuMjIwMTQsLTAuNTUwMzUyIC0wLjU1MDM1LC0wLjU1MDM1MiBoIC02LjA1Mzg2IHYgLTUuNTAzNTEyIGggNC40MDI4MSBjIDAuMzMwMjEsMCAwLjU1MDM1LC0wLjIyMDE0MSAwLjU1MDM1LC0wLjU1MDM1MiAwLC0wLjMzMDIxMSAtMC4yMjAxNCwtMC41NTAzNTEgLTAuNTUwMzUsLTAuNTUwMzUxIGggLTQuNDAyODEgdiAtNC45NTMxNjIgYyAwLC0wLjMzMDIxIDAuMjIwMTQsLTAuNTUwMzUxIDAuNTUwMzUsLTAuNTUwMzUxIGggMjMuMTE0NzUgYyAwLjMzMDIyLDAgMC41NTAzNiwwLjIyMDE0MSAwLjU1MDM2LDAuNTUwMzUxIHYgNC45NTMxNjIgaCAtMTQuODU5NDkgYyAtMC4zMzAyMSwwIC0wLjU1MDM1LDAuMjIwMTQgLTAuNTUwMzUsMC41NTAzNTEgMCwwLjMzMDIxMSAwLjIyMDE0LDAuNTUwMzUyIDAuNTUwMzUsMC41NTAzNTIgaCAxNC44NTk0OSB2IDUuNTAzNTEyIGggLTE0Ljg1OTQ5IGMgLTAuMzMwMjEsMCAtMC41NTAzNSwwLjIyMDE0MSAtMC41NTAzNSwwLjU1MDM1MiAwLDAuMzMwMjExIDAuMjIwMTQsMC41NTAzNTEgMC41NTAzNSwwLjU1MDM1MSBoIDE0Ljg1OTQ5IHYgNS41MDM1MTMgaCAtMjIuNTY0NDEgYyAtMC4zMzAyMSwwIC0wLjU1MDM1LDAuMjIwMTQgLTAuNTUwMzUsMC41NTAzNTEgMCwwLjMzMDIxMSAwLjIyMDE0LDAuNTUwMzUyIDAuNTUwMzUsMC41NTAzNTIgaCAyMi41NjQ0MSB2IDQuOTUzMTYxIGMgMCwwLjMzMDIxMSAtMC4yMjAxNCwwLjU1MDM1MSAtMC41NTAzNiwwLjU1MDM1MSB6IG0gLTIuNzUxNzUsLTIxLjQ2MzcgdiAtMi4yMDE0MDUgYyAwLC0wLjMzMDIxMSAwLjIyMDE0LC0wLjU1MDM1MSAwLjU1MDM1LC0wLjU1MDM1MSAwLjMzMDIxLDAgMC41NTAzNSwwLjIyMDE0IDAuNTUwMzUsMC41NTAzNTEgdiAyLjIwMTQwNSBjIDAsMC4zMzAyMTEgLTAuMjIwMTQsMC41NTAzNTEgLTAuNTUwMzUsMC41NTAzNTEgLTAuMzMwMjEsMCAtMC41NTAzNSwtMC4yMjAxNCAtMC41NTAzNSwtMC41NTAzNTEgeiBtIC0yLjIwMTQxLDAgdiAtMi4yMDE0MDUgYyAwLC0wLjMzMDIxMSAwLjIyMDE0LC0wLjU1MDM1MSAwLjU1MDM1LC0wLjU1MDM1MSAwLjMzMDIyLDAgMC41NTAzNiwwLjIyMDE0IDAuNTUwMzYsMC41NTAzNTEgdiAyLjIwMTQwNSBjIDAsMC4zMzAyMTEgLTAuMjIwMTQsMC41NTAzNTEgLTAuNTUwMzYsMC41NTAzNTEgLTAuMzMwMjEsMCAtMC41NTAzNSwtMC4yMjAxNCAtMC41NTAzNSwtMC41NTAzNTEgeiBtIC0yLjIwMTQsMCB2IC0yLjIwMTQwNSBjIDAsLTAuMzMwMjExIDAuMjIwMTQsLTAuNTUwMzUxIDAuNTUwMzUsLTAuNTUwMzUxIDAuMzMwMjEsMCAwLjU1MDM1LDAuMjIwMTQgMC41NTAzNSwwLjU1MDM1MSB2IDIuMjAxNDA1IGMgMCwwLjMzMDIxMSAtMC4yMjAxNCwwLjU1MDM1MSAtMC41NTAzNSwwLjU1MDM1MSAtMC4zMzAyMSwwIC0wLjU1MDM1LC0wLjIyMDE0IC0wLjU1MDM1LC0wLjU1MDM1MSB6IG0gLTIuMjAxNDEsMCB2IC0yLjIwMTQwNSBjIDAsLTAuMzMwMjExIDAuMjIwMTQsLTAuNTUwMzUxIDAuNTUwMzUsLTAuNTUwMzUxIDAuMzMwMjEsMCAwLjU1MDM2LDAuMjIwMTQgMC41NTAzNiwwLjU1MDM1MSB2IDIuMjAxNDA1IGMgMCwwLjMzMDIxMSAtMC4yMjAxNSwwLjU1MDM1MSAtMC41NTAzNiwwLjU1MDM1MSAtMC4zMzAyMSwwIC0wLjU1MDM1LC0wLjIyMDE0IC0wLjU1MDM1LC0wLjU1MDM1MSB6IG0gLTIuMjAxNCwwIHYgLTIuMjAxNDA1IGMgMCwtMC4zMzAyMTEgMC4yMjAxNCwtMC41NTAzNTEgMC41NTAzNSwtMC41NTAzNTEgMC4zMzAyMSwwIDAuNTUwMzUsMC4yMjAxNCAwLjU1MDM1LDAuNTUwMzUxIHYgMi4yMDE0MDUgYyAwLDAuMzMwMjExIC0wLjIyMDE0LDAuNTUwMzUxIC0wLjU1MDM1LDAuNTUwMzUxIC0wLjMzMDIxLDAgLTAuNTUwMzUsLTAuMjIwMTQgLTAuNTUwMzUsLTAuNTUwMzUxIHogbSA4LjgwNTYyLDYuNjA0MjE2IHYgLTIuMjAxNDA2IGMgMCwtMC4zMzAyMSAwLjIyMDE0LC0wLjU1MDM1MSAwLjU1MDM1LC0wLjU1MDM1MSAwLjMzMDIxLDAgMC41NTAzNSwwLjIyMDE0MSAwLjU1MDM1LDAuNTUwMzUxIHYgMi4yMDE0MDYgYyAwLDAuMzMwMjEgLTAuMjIwMTQsMC41NTAzNTEgLTAuNTUwMzUsMC41NTAzNTEgLTAuMzMwMjEsMCAtMC41NTAzNSwtMC4yMjAxNDEgLTAuNTUwMzUsLTAuNTUwMzUxIHogbSAtMi4yMDE0MSwwIHYgLTIuMjAxNDA2IGMgMCwtMC4zMzAyMSAwLjIyMDE0LC0wLjU1MDM1MSAwLjU1MDM1LC0wLjU1MDM1MSAwLjMzMDIyLDAgMC41NTAzNiwwLjIyMDE0MSAwLjU1MDM2LDAuNTUwMzUxIHYgMi4yMDE0MDYgYyAwLDAuMzMwMjEgLTAuMjIwMTQsMC41NTAzNTEgLTAuNTUwMzYsMC41NTAzNTEgLTAuMzMwMjEsMCAtMC41NTAzNSwtMC4yMjAxNDEgLTAuNTUwMzUsLTAuNTUwMzUxIHogbSAtMi4yMDE0LDAgdiAtMi4yMDE0MDYgYyAwLC0wLjMzMDIxIDAuMjIwMTQsLTAuNTUwMzUxIDAuNTUwMzUsLTAuNTUwMzUxIDAuMzMwMjEsMCAwLjU1MDM1LDAuMjIwMTQxIDAuNTUwMzUsMC41NTAzNTEgdiAyLjIwMTQwNiBjIDAsMC4zMzAyMSAtMC4yMjAxNCwwLjU1MDM1MSAtMC41NTAzNSwwLjU1MDM1MSAtMC4zMzAyMSwwIC0wLjU1MDM1LC0wLjIyMDE0MSAtMC41NTAzNSwtMC41NTAzNTEgeiBtIC0yLjIwMTQxLDAgdiAtMi4yMDE0MDYgYyAwLC0wLjMzMDIxIDAuMjIwMTQsLTAuNTUwMzUxIDAuNTUwMzUsLTAuNTUwMzUxIDAuMzMwMjEsMCAwLjU1MDM2LDAuMjIwMTQxIDAuNTUwMzYsMC41NTAzNTEgdiAyLjIwMTQwNiBjIDAsMC4zMzAyMSAtMC4yMjAxNSwwLjU1MDM1MSAtMC41NTAzNiwwLjU1MDM1MSAtMC4zMzAyMSwwIC0wLjU1MDM1LC0wLjIyMDE0MSAtMC41NTAzNSwtMC41NTAzNTEgeiBtIC0yLjIwMTQsMCB2IC0yLjIwMTQwNiBjIDAsLTAuMzMwMjEgMC4yMjAxNCwtMC41NTAzNTEgMC41NTAzNSwtMC41NTAzNTEgMC4zMzAyMSwwIDAuNTUwMzUsMC4yMjAxNDEgMC41NTAzNSwwLjU1MDM1MSB2IDIuMjAxNDA2IGMgMCwwLjMzMDIxIC0wLjIyMDE0LDAuNTUwMzUxIC0wLjU1MDM1LDAuNTUwMzUxIC0wLjMzMDIxLDAgLTAuNTUwMzUsLTAuMjIwMTQxIC0wLjU1MDM1LC0wLjU1MDM1MSB6IG0gOC44MDU2Miw2LjYwNDIxNSB2IC0yLjIwMTQwNSBjIDAsLTAuMzMwMjExIDAuMjIwMTQsLTAuNTUwMzUxIDAuNTUwMzUsLTAuNTUwMzUxIDAuMzMwMjEsMCAwLjU1MDM1LDAuMjIwMTQgMC41NTAzNSwwLjU1MDM1MSB2IDIuMjAxNDA1IGMgMCwwLjMzMDIxMSAtMC4yMjAxNCwwLjU1MDM1MSAtMC41NTAzNSwwLjU1MDM1MSAtMC4zMzAyMSwwIC0wLjU1MDM1LC0wLjIyMDE0IC0wLjU1MDM1LC0wLjU1MDM1MSB6IG0gLTIuMjAxNDEsMCB2IC0yLjIwMTQwNSBjIDAsLTAuMzMwMjExIDAuMjIwMTQsLTAuNTUwMzUxIDAuNTUwMzUsLTAuNTUwMzUxIDAuMzMwMjIsMCAwLjU1MDM2LDAuMjIwMTQgMC41NTAzNiwwLjU1MDM1MSB2IDIuMjAxNDA1IGMgMCwwLjMzMDIxMSAtMC4yMjAxNCwwLjU1MDM1MSAtMC41NTAzNiwwLjU1MDM1MSAtMC4zMzAyMSwwIC0wLjU1MDM1LC0wLjIyMDE0IC0wLjU1MDM1LC0wLjU1MDM1MSB6IG0gLTIuMjAxNCwwIHYgLTIuMjAxNDA1IGMgMCwtMC4zMzAyMTEgMC4yMjAxNCwtMC41NTAzNTEgMC41NTAzNSwtMC41NTAzNTEgMC4zMzAyMSwwIDAuNTUwMzUsMC4yMjAxNCAwLjU1MDM1LDAuNTUwMzUxIHYgMi4yMDE0MDUgYyAwLDAuMzMwMjExIC0wLjIyMDE0LDAuNTUwMzUxIC0wLjU1MDM1LDAuNTUwMzUxIC0wLjMzMDIxLDAgLTAuNTUwMzUsLTAuMjIwMTQgLTAuNTUwMzUsLTAuNTUwMzUxIHogbSAtMi4yMDE0MSwwIHYgLTIuMjAxNDA1IGMgMCwtMC4zMzAyMTEgMC4yMjAxNCwtMC41NTAzNTEgMC41NTAzNSwtMC41NTAzNTEgMC4zMzAyMSwwIDAuNTUwMzYsMC4yMjAxNCAwLjU1MDM2LDAuNTUwMzUxIHYgMi4yMDE0MDUgYyAwLDAuMzMwMjExIC0wLjIyMDE1LDAuNTUwMzUxIC0wLjU1MDM2LDAuNTUwMzUxIC0wLjMzMDIxLDAgLTAuNTUwMzUsLTAuMjIwMTQgLTAuNTUwMzUsLTAuNTUwMzUxIHogbSAtMi4yMDE0LDAgdiAtMi4yMDE0MDUgYyAwLC0wLjMzMDIxMSAwLjIyMDE0LC0wLjU1MDM1MSAwLjU1MDM1LC0wLjU1MDM1MSAwLjMzMDIxLDAgMC41NTAzNSwwLjIyMDE0IDAuNTUwMzUsMC41NTAzNTEgdiAyLjIwMTQwNSBjIDAsMC4zMzAyMTEgLTAuMjIwMTQsMC41NTAzNTEgLTAuNTUwMzUsMC41NTAzNTEgLTAuMzMwMjEsMCAtMC41NTAzNSwtMC4yMjAxNCAtMC41NTAzNSwtMC41NTAzNTEgeiBtIDkuOTA2MzIsNC40MDI4MSB2IDIuMjAxNDA2IGMgMCwwLjMzMDIxIC0wLjIyMDE0LDAuNTUwMzUxIC0wLjU1MDM1LDAuNTUwMzUxIC0wLjMzMDIxLDAgLTAuNTUwMzUsLTAuMjIwMTQxIC0wLjU1MDM1LC0wLjU1MDM1MSB2IC0yLjIwMTQwNiBjIDAsLTAuMzMwMjEgMC4yMjAxNCwtMC41NTAzNTEgMC41NTAzNSwtMC41NTAzNTEgMC4zMzAyMSwwIDAuNTUwMzUsMC4yMjAxNDEgMC41NTAzNSwwLjU1MDM1MSB6IG0gLTIuMjAxNCwwIHYgMi4yMDE0MDYgYyAwLDAuMzMwMjEgLTAuMjIwMTQsMC41NTAzNTEgLTAuNTUwMzYsMC41NTAzNTEgLTAuMzMwMjEsMCAtMC41NTAzNSwtMC4yMjAxNDEgLTAuNTUwMzUsLTAuNTUwMzUxIHYgLTIuMjAxNDA2IGMgMCwtMC4zMzAyMSAwLjIyMDE0LC0wLjU1MDM1MSAwLjU1MDM1LC0wLjU1MDM1MSAwLjMzMDIyLDAgMC41NTAzNiwwLjIyMDE0MSAwLjU1MDM2LDAuNTUwMzUxIHogbSAtMi4yMDE0MSwwIHYgMi4yMDE0MDYgYyAwLDAuMzMwMjEgLTAuMjIwMTQsMC41NTAzNTEgLTAuNTUwMzUsMC41NTAzNTEgLTAuMzMwMjEsMCAtMC41NTAzNSwtMC4yMjAxNDEgLTAuNTUwMzUsLTAuNTUwMzUxIHYgLTIuMjAxNDA2IGMgMCwtMC4zMzAyMSAwLjIyMDE0LC0wLjU1MDM1MSAwLjU1MDM1LC0wLjU1MDM1MSAwLjMzMDIxLDAgMC41NTAzNSwwLjIyMDE0MSAwLjU1MDM1LDAuNTUwMzUxIHogbSAtMi4yMDE0LDAgdiAyLjIwMTQwNiBjIDAsMC4zMzAyMSAtMC4yMjAxNSwwLjU1MDM1MSAtMC41NTAzNiwwLjU1MDM1MSAtMC4zMzAyMSwwIC0wLjU1MDM1LC0wLjIyMDE0MSAtMC41NTAzNSwtMC41NTAzNTEgdiAtMi4yMDE0MDYgYyAwLC0wLjMzMDIxIDAuMjIwMTQsLTAuNTUwMzUxIDAuNTUwMzUsLTAuNTUwMzUxIDAuMzMwMjEsMCAwLjU1MDM2LDAuMjIwMTQxIDAuNTUwMzYsMC41NTAzNTEgeiBtIC0yLjIwMTQxLDAgdiAyLjIwMTQwNiBjIDAsMC4zMzAyMSAtMC4yMjAxNCwwLjU1MDM1MSAtMC41NTAzNSwwLjU1MDM1MSAtMC4zMzAyMSwwIC0wLjU1MDM1LC0wLjIyMDE0MSAtMC41NTAzNSwtMC41NTAzNTEgdiAtMi4yMDE0MDYgYyAwLC0wLjMzMDIxIDAuMjIwMTQsLTAuNTUwMzUxIDAuNTUwMzUsLTAuNTUwMzUxIDAuMzMwMjEsMCAwLjU1MDM1LDAuMjIwMTQxIDAuNTUwMzUsMC41NTAzNTEgeiBtIDEuNjUxMDUsLTI3LjUxNzU2NCBjIDAsLTAuMzMwMjExIDAuMjIwMTQsLTAuNTUwMzUxIDAuNTUwMzYsLTAuNTUwMzUxIGggNi4wNTM4NiBjIDAuMzMwMjEsMCAwLjU1MDM1LDAuMjIwMTQgMC41NTAzNSwwLjU1MDM1MSAwLDAuMzMwMjExIC0wLjIyMDE0LDAuNTUwMzUxIC0wLjU1MDM1LDAuNTUwMzUxIGggLTYuMDUzODYgYyAtMC4zMzAyMiwwIC0wLjU1MDM2LC0wLjIyMDE0IC0wLjU1MDM2LC0wLjU1MDM1MSB6IG0gMCwxLjY1MTA1NCBjIDAsLTAuMzMwMjExIDAuMjIwMTQsLTAuNTUwMzUyIDAuNTUwMzYsLTAuNTUwMzUyIGggNi4wNTM4NiBjIDAuMzMwMjEsMCAwLjU1MDM1LDAuMjIwMTQxIDAuNTUwMzUsMC41NTAzNTIgMCwwLjMzMDIxMSAtMC4yMjAxNCwwLjU1MDM1MSAtMC41NTAzNSwwLjU1MDM1MSBoIC02LjA1Mzg2IGMgLTAuMzMwMjIsMCAtMC41NTAzNiwtMC4yMjAxNCAtMC41NTAzNiwtMC41NTAzNTEgeiBtIC04LjgwNTYyLDcuNDI5NzQyIGMgMCwwLjQ0MDI4MSAtMC4zODUyNCwwLjgyNTUyNyAtMC44MjU1MiwwLjgyNTUyNyAtMC40NDAyOCwwIC0wLjgyNTUzLC0wLjM4NTI0NiAtMC44MjU1MywtMC44MjU1MjcgMCwtMC40NDAyODEgMC4zODUyNSwtMC44MjU1MjcgMC44MjU1MywtMC44MjU1MjcgMC40NDAyOCwwIDAuODI1NTIsMC4zODUyNDYgMC44MjU1MiwwLjgyNTUyNyB6IG0gMC41NTAzNSwwIGMgMCwtMC40NDAyODEgMC4zODUyNSwtMC44MjU1MjcgMC44MjU1MywtMC44MjU1MjcgMC40NDAyOCwwIDAuODI1NTMsMC4zODUyNDYgMC44MjU1MywwLjgyNTUyNyAwLDAuNDQwMjgxIC0wLjM4NTI1LDAuODI1NTI3IC0wLjgyNTUzLDAuODI1NTI3IC0wLjQ0MDI4LDAgLTAuODI1NTMsLTAuMzg1MjQ2IC0wLjgyNTUzLC0wLjgyNTUyNyB6IG0gLTIuNzUxNzUsNi42MDQyMTYgYyAwLDAuNDQwMjgxIC0wLjM4NTI1LDAuODI1NTI3IC0wLjgyNTUzLDAuODI1NTI3IC0wLjQ0MDI4LDAgLTAuODI1NTMsLTAuMzg1MjQ2IC0wLjgyNTUzLC0wLjgyNTUyNyAwLC0wLjQ0MDI4MSAwLjM4NTI1LC0wLjgyNTUyNyAwLjgyNTUzLC0wLjgyNTUyNyAwLjQ0MDI4LDAgMC44MjU1MywwLjM4NTI0NiAwLjgyNTUzLDAuODI1NTI3IHogbSAyLjIwMTQsMCBjIDAsMC40NDAyODEgLTAuMzg1MjQsMC44MjU1MjcgLTAuODI1NTIsMC44MjU1MjcgLTAuNDQwMjgsMCAtMC44MjU1MywtMC4zODUyNDYgLTAuODI1NTMsLTAuODI1NTI3IDAsLTAuNDQwMjgxIDAuMzg1MjUsLTAuODI1NTI3IDAuODI1NTMsLTAuODI1NTI3IDAuNDQwMjgsMCAwLjgyNTUyLDAuMzg1MjQ2IDAuODI1NTIsMC44MjU1MjcgeiBtIDAuNTUwMzUsMCBjIDAsLTAuNDQwMjgxIDAuMzg1MjUsLTAuODI1NTI3IDAuODI1NTMsLTAuODI1NTI3IDAuNDQwMjgsMCAwLjgyNTUzLDAuMzg1MjQ2IDAuODI1NTMsMC44MjU1MjcgMCwwLjQ0MDI4MSAtMC4zODUyNSwwLjgyNTUyNyAtMC44MjU1MywwLjgyNTUyNyAtMC40NDAyOCwwIC0wLjgyNTUzLC0wLjM4NTI0NiAtMC44MjU1MywtMC44MjU1MjcgeiBtIC00LjQwMjgxLDYuNjA0MjE1IGMgMCwtMC40NDAyODEgMC4zODUyNSwtMC44MjU1MjcgMC44MjU1MywtMC44MjU1MjcgMC40NDAyOCwwIDAuODI1NTMsMC4zODUyNDYgMC44MjU1MywwLjgyNTUyNyAwLDAuNDQwMjgxIC0wLjM4NTI1LDAuODI1NTI3IC0wLjgyNTUzLDAuODI1NTI3IC0wLjQ0MDI4LDAgLTAuODI1NTMsLTAuMzg1MjQ2IC0wLjgyNTUzLC0wLjgyNTUyNyB6IG0gMi4yMDE0MSwwIGMgMCwtMC40NDAyODEgMC4zODUyNSwtMC44MjU1MjcgMC44MjU1MywtMC44MjU1MjcgMC40NDAyOCwwIDAuODI1NTIsMC4zODUyNDYgMC44MjU1MiwwLjgyNTUyNyAwLDAuNDQwMjgxIC0wLjM4NTI0LDAuODI1NTI3IC0wLjgyNTUyLDAuODI1NTI3IC0wLjQ0MDI4LDAgLTAuODI1NTMsLTAuMzg1MjQ2IC0wLjgyNTUzLC0wLjgyNTUyNyB6IG0gMi4yMDE0LDAgYyAwLC0wLjQ0MDI4MSAwLjM4NTI1LC0wLjgyNTUyNyAwLjgyNTUzLC0wLjgyNTUyNyAwLjQ0MDI4LDAgMC44MjU1MywwLjM4NTI0NiAwLjgyNTUzLDAuODI1NTI3IDAsMC40NDAyODEgLTAuMzg1MjUsMC44MjU1MjcgLTAuODI1NTMsMC44MjU1MjcgLTAuNDQwMjgsMCAtMC44MjU1MywtMC4zODUyNDYgLTAuODI1NTMsLTAuODI1NTI3IHogbSAtMi43NTE3NSw2LjYwNDIxNiBjIDAsMC40NDAyODEgLTAuMzg1MjUsMC44MjU1MjcgLTAuODI1NTMsMC44MjU1MjcgLTAuNDQwMjgsMCAtMC44MjU1MywtMC4zODUyNDYgLTAuODI1NTMsLTAuODI1NTI3IDAsLTAuNDQwMjgxIDAuMzg1MjUsLTAuODI1NTI3IDAuODI1NTMsLTAuODI1NTI3IDAuNDQwMjgsMCAwLjgyNTUzLDAuMzg1MjQ2IDAuODI1NTMsMC44MjU1MjcgeiBtIDIuMjAxNCwwIGMgMCwwLjQ0MDI4MSAtMC4zODUyNCwwLjgyNTUyNyAtMC44MjU1MiwwLjgyNTUyNyAtMC40NDAyOCwwIC0wLjgyNTUzLC0wLjM4NTI0NiAtMC44MjU1MywtMC44MjU1MjcgMCwtMC40NDAyODEgMC4zODUyNSwtMC44MjU1MjcgMC44MjU1MywtMC44MjU1MjcgMC40NDAyOCwwIDAuODI1NTIsMC4zODUyNDYgMC44MjU1MiwwLjgyNTUyNyB6IG0gMi4yMDE0MSwwIGMgMCwwLjQ0MDI4MSAtMC4zODUyNSwwLjgyNTUyNyAtMC44MjU1MywwLjgyNTUyNyAtMC40NDAyOCwwIC0wLjgyNTUzLC0wLjM4NTI0NiAtMC44MjU1MywtMC44MjU1MjcgMCwtMC40NDAyODEgMC4zODUyNSwtMC44MjU1MjcgMC44MjU1MywtMC44MjU1MjcgMC40NDAyOCwwIDAuODI1NTMsMC4zODUyNDYgMC44MjU1MywwLjgyNTUyNyB6IG0gLTQuNDAyODEsLTE5LjgxMjY0NyBjIDAsMC40NDAyODEgLTAuMzg1MjUsMC44MjU1MjcgLTAuODI1NTMsMC44MjU1MjcgLTAuNDQwMjgsMCAtMC44MjU1MywtMC4zODUyNDYgLTAuODI1NTMsLTAuODI1NTI3IDAsLTAuNDQwMjgxIDAuMzg1MjUsLTAuODI1NTI3IDAuODI1NTMsLTAuODI1NTI3IDAuNDQwMjgsMCAwLjgyNTUzLDAuMzg1MjQ2IDAuODI1NTMsMC44MjU1MjcgeiIgaWQ9InBhdGg3MSIgc3R5bGU9InN0cm9rZS13aWR0aDowLjU1MDM1MSIvPjwvZz48ZyBzdHlsZT0iZmlsbDojMDAwMDAwIiBpZD0iZzkzIiB0cmFuc2Zvcm09Im1hdHJpeCgxLjIsMCwwLDEuMiw1Ljc4ODIzNTcsLTE3LjY0NzA3MSkiPjxwYXRoIHN0eWxlPSJjb2xvcjojMDAwMDAwO3RleHQtaW5kZW50OjA7dGV4dC10cmFuc2Zvcm06bm9uZTtkaXJlY3Rpb246bHRyO2Jhc2VsaW5lLXNoaWZ0OmJhc2VsaW5lO2VuYWJsZS1iYWNrZ3JvdW5kOmFjY3VtdWxhdGUiIGQ9Ik0gNDIsMjIgQyAyOS44NTI5OTksMjIgMjEuMTIzMDk5LDMyLjA5OTggMjAuODc1LDQyLjg3NSAxMy40NTM4LDQ1LjA5OCA3Ljk5OTk5OTUsNTEuODY3MTIgNy45OTk5OTk1LDYwLjAwMDAyIGMgMCw5LjkyOTMgOC4wNzA3MDA1LDE4IDE4LjAwMDAwMDUsMTggaCA0OCBjIDEwLjYwNiwwIDE4LC03LjEyMzYgMTgsLTE2IEMgOTIsNTQuODE5NjIgODcuMTE3MSw0Ny44NDU4MiA3OS45MDYyMDEsNDYuMjE4NyA3OS42NjAzMDEsNDAuMzM1OSA3Ni44NjIzMDEsMzUuOTQyNCA3MywzMy42MjUgNjkuMjEyNTAxLDMxLjM1MjUgNjQuNTM0OSwzMS4wNzYxIDYwLjQwNjIsMzIuODEyNSA1Ny4wOTYxLDI2Ljg0NDQgNTAuNTc1MiwyMiA0MiwyMiBaIG0gMCwyIGMgOC4xNTc1LDAgMTQuMjUwOSw0Ljc1MTcgMTcuMDkzOCwxMC40Mzc1IGEgMS4wMDAxLDEuMDAwMSAwIDAgMCAxLjM0MzcsMC40Mzc1IEMgNjQuMTI0NSwzMy4wMzE1IDY4LjU0MTQsMzMuMjY4NiA3MiwzNS4zNDM3IDc1LjQ1ODYsMzcuNDE4OSA3OCw0MS4zMDU2IDc4LDQ3IGEgMS4wMDAxLDEuMDAwMSAwIDAgMCAwLjg0MzgsMC45Njg3MiBDIDg1LjM5NTIsNDkuMDY4MDIgOTAsNTUuNTAzOTIgOTAsNjIuMDAwMDIgYyAwLDcuNzgyOSAtNi4yNjg1OTksMTQgLTE2LDE0IEggMjYgYyAtOC44NDg1MDEsMCAtMTYuMDAwMDAwNSwtNy4xNTE2IC0xNi4wMDAwMDA1LC0xNiBDIDkuOTk5OTk5NSw1Mi41MTI4MiAxNS4xMzMyLDQ2LjI1NDUgMjIuMDYyNSw0NC41IGEgMS4wMDAxLDEuMDAwMSAwIDAgMCAwLjc1LC0xIEMgMjIuNzE3NSwzMy41NjkyIDMwLjczODEsMjQgNDIsMjQgWiIgZmlsbD0iIzAwMDAwMCIgZmlsbC1vcGFjaXR5PSIxIiBzdHJva2U9Im5vbmUiIG1hcmtlcj0ibm9uZSIgdmlzaWJpbGl0eT0idmlzaWJsZSIgZGlzcGxheT0iaW5saW5lIiBvdmVyZmxvdz0idmlzaWJsZSIgaWQ9InBhdGg3OSIvPjwvZz48L3N2Zz4=;fontSize=24;fontStyle=1" parent="1" vertex="1">
                    <mxGeometry x="70" y="582" width="100" height="89.19" as="geometry"/>
                </mxCell>
                <mxCell id="R7Ilkwoh4phyt-hekFA_-10" value="Applications" style="shape=image;verticalLabelPosition=bottom;labelBackgroundColor=#ffffff;verticalAlign=top;aspect=fixed;imageAspect=0;image=data:image/svg+xml,PHN2ZyB4bWxucz0iaHR0cDovL3d3dy53My5vcmcvMjAwMC9zdmciIGhlaWdodD0iNDgwIiB3aWR0aD0iMzUyIiBmaWxsPSIjMDAwMDAwIiB2aWV3Qm94PSIxMTIgMTYgMzUyIDQ4MCIgeD0iMHB4IiB5PSIwcHgiPjx0aXRsZT5BcHBsaWNhdGlvbnMgaWNvbjwvdGl0bGU+PGRlc2M+QXBwbGljYXRpb25zIGljb24gZm9yIHdlYnNpdGUsIGFwcGxpY2F0aW9uLCBwcmludGluZywgZG9jdW1lbnQsIHBvc3RlciBkZXNpZ24sIGV0Yy48L2Rlc2M+PG1ldGFkYXRhPjwhLS0/eHBhY2tldCBiZWdpbj0iJiM2NTI3OTsiIGlkPSJXNU0wTXBDZWhpSHpyZVN6TlRjemtjOWQiPy0tPjx4OnhtcG1ldGEgeG1sbnM6eD0iYWRvYmU6bnM6bWV0YS8iIHg6eG1wdGs9IkFkb2JlIFhNUCBDb3JlIDUuNi1jMTQ1IDc5LjE2Mjk1NSwgMjAxOC8wNS8xMC0wMTowNzoxNiAgICAgICAgIi8+PCEtLT94cGFja2V0IGVuZD0idyI/LS0+PC9tZXRhZGF0YT48Zz48cGF0aCBkPSJNMTEyLDQ1NlYxMDRoMTZWNDU2YTI0LjAyNywyNC4wMjcsMCwwLDAsMjQsMjRIMzM2djE2SDE1MkE0MC4wNDUsNDAuMDQ1LDAsMCwxLDExMiw0NTZabTE4NC04SDIxNnYxNmg4MFpNMTQ0LDE0NGE4LDgsMCwwLDEsNC40MjItNy4xNTVsMTMuNjE1LTYuODA4LDYuODA4LTEzLjYxNUE4LDgsMCwwLDEsMTc2LDExMmgzMmE4LDgsMCwwLDEsNy4xNTUsNC40MjJsNi44MDgsMTMuNjE1LDEzLjYxNSw2LjgwOEE4LDgsMCwwLDEsMjQwLDE0NHYyNGE4LDgsMCwwLDEtOCw4aC0yLjE2NWExNS45NjMsMTUuOTYzLDAsMCwxLTI3LjY3LDBoLTIwLjMzYTE1Ljk2MywxNS45NjMsMCwwLDEtMjcuNjcsMEgxNTJhOCw4LDAsMCwxLTgtOFptMTYsMTAuMTY1QTE1LjkzMSwxNS45MzEsMCwwLDEsMTgxLjgzNSwxNjBoMjAuMzNBMTUuOTMxLDE1LjkzMSwwLDAsMSwyMjQsMTU0LjE2NXYtNS4yMjFsLTExLjU3OC01Ljc4OWE4LDgsMCwwLDEtMy41NzctMy41NzdMMjAzLjA1NiwxMjhIMTgwLjk0NGwtNS43ODksMTEuNTc4YTgsOCwwLDAsMS0zLjU3NywzLjU3N0wxNjAsMTQ4Ljk0NFpNMzUyLDEwNHYyMy4zNTRsMTMsMTAuNEE4LDgsMCwwLDEsMzYwLDE1MnYyNGE4LDgsMCwwLDEtOCw4SDI4OGE4LDgsMCwwLDEtOC04VjE1MmE4LDgsMCwwLDEtNS0xNC4yNDdsNDAtMzJhOCw4LDAsMCwxLDEwLDBsMTEsOC44VjEwNFptLTcuNjY4LDM3LjcxMUwzMjAsMTIyLjI0NWwtMjQuMzMyLDE5LjQ2NkE4LjAwOCw4LjAwOCwwLDAsMSwyOTYsMTQ0djI0aDE2VjE1MmgxNnYxNmgxNlYxNDRBOC4wMDgsOC4wMDgsMCwwLDEsMzQ0LjMzMiwxNDEuNzExWk0xODQsMjk2aDE2YTgsOCwwLDAsMCw4LThWMjcyaDE2YTgsOCwwLDAsMCw4LThWMjQ4YTgsOCwwLDAsMC04LThIMjA4VjIyNGE4LDgsMCwwLDAtOC04SDE4NGE4LDgsMCwwLDAtOCw4djE2SDE2MGE4LDgsMCwwLDAtOCw4djE2YTgsOCwwLDAsMCw4LDhoMTZ2MTZBOCw4LDAsMCwwLDE4NCwyOTZabTk0LjgyNC0yOS4wODctNi42NjktMzMuMzQ0QTgsOCwwLDAsMSwyODAsMjI0aDU5LjA1Nmw1Ljc4OS0xMS41NzhBOCw4LDAsMCwxLDM1MiwyMDhoMTZ2MTZIMzU2Ljk0NGwtNS4zMDksMTAuNjE5LTYuNDU5LDMyLjI5NEExNS45OTMsMTUuOTkzLDAsMSwxLDMyMCwyODBIMzA0YTE2LDE2LDAsMSwxLTI1LjE3Ni0xMy4wODdaTTI4OS43NTksMjQwbDQuOCwyNGgzNC44ODJsNC44LTI0Wk0yMDgsNDAwdi04SDE4NHY4YTgsOCwwLDAsMS04LDhoLThhOCw4LDAsMCwxLTgtOFYzNjhoLThhOCw4LDAsMCwxLTgtOFYzNDdhOCw4LDAsMCwxLDYuNTI3LTcuODYzTDE2MCwzMzcuMzU5VjMzNmE4LDgsMCwwLDEsOC04LDIwLjk3MiwyMC45NzIsMCwwLDEsMjAuNjc5LDE3Ljk4OWwuMjgsMi4wMDlIMjA4YTI0LjAyNywyNC4wMjcsMCwwLDEsMjEuNzMsMTMuODI1bDEzLjg4OCw3LjA0Mi03LjIzNiwxNC4yN0wyMzIsMzgwLjkxM1Y0MDBhOCw4LDAsMCwxLTgsOGgtOEE4LDgsMCwwLDEsMjA4LDQwMFpNMTczLjcsMzU0LjM4MmwtLjU5LTQuMjIzYTcuOTY2LDcuOTY2LDAsMCwxLTMuNjMyLDEuN2wtLjg1Ni4xNkE3Ljk3MSw3Ljk3MSwwLDAsMSwxNzMuNywzNTQuMzgyWk0yMTYsMzc2di00YTguMDA5LDguMDA5LDAsMCwwLTgtOEgxODJhOCw4LDAsMCwxLTYtMi43MDdWMzc2Wk0xMjgsNTZhMjQuMDI4LDI0LjAyOCwwLDAsMSwyNC0yNGg0My4wNTZsNS43ODksMTEuNTc4QTgsOCwwLDAsMCwyMDgsNDhoOTZhOCw4LDAsMCwwLDcuMTU1LTQuNDIyTDMxNi45NDQsMzJIMzYwYTI0LjAyOCwyNC4wMjgsMCwwLDEsMjQsMjRWMzQwLjY4N2wtMjYuMDYtMjYuMDZhMzYuMjg2LDM2LjI4NiwwLDAsMC01Ni4yMjksNDUuMmwuMDQzLjE3MWgtOC44MWwtNS43ODktMTEuNTc4QTgsOCwwLDAsMCwyNzIsMzUydjI0YTgsOCwwLDAsMCw4LDhoMjEuNzU0bC01LjUxNSwyMi4wNkE4LDgsMCwwLDAsMzA0LDQxNmg4YTgsOCwwLDAsMCw3LjE1NS00LjQyMmwxMS4wMzYtMjIuMDczLDE5LjQ4MSwxOS40OGE3Mi4yNjksNzIuMjY5LDAsMCwwLTIuOTM5LDcwLjM2OUwzNTIsNDg5Ljg4OVY0OTZoMTZ2LThhNy45OTQsNy45OTQsMCwwLDAtLjg0NS0zLjU3OEwzNjEuMDQ0LDQ3Mi4yYTU2LjQxLDU2LjQxLDAsMCwxLDUuMzU2LTU5LjQsOCw4LDAsMCwwLS43NDMtMTAuNDU3TDMxNy45NCwzNTQuNjI3YTIwLjI4NCwyMC4yODQsMCwwLDEsMjguNjg3LTI4LjY4Nmw2My43MTYsNjMuNzE2LDExLjMxNC0xMS4zMTRMNDAwLDM1Ni42ODZWMjg1LjA0MmwzMy44NTQsMzguMDg2QTU1Ljk0LDU1Ljk0LDAsMCwxLDQ0OCwzNjAuMzMzVjQ5NmgxNlYzNjAuMzMzQTcxLjkyNSw3MS45MjUsMCwwLDAsNDQ1LjgxMywzMTIuNUw0MDAsMjYwLjk1OFY1NmE0MC4wNDUsNDAuMDQ1LDAsMCwwLTQwLTQwSDE1MmE0MC4wNDUsNDAuMDQ1LDAsMCwwLTQwLDQwVjgwaDE2Wm0zMiw4SDE0NFY4MGgxNlptMTYsMFY4MGgxNlY2NFptNDgsMEgyMDhWODBoMTZaIi8+PC9nPjwvc3ZnPg==;fontSize=24;fontStyle=1" parent="1" vertex="1">
                    <mxGeometry x="684" y="-60" width="73.33" height="100" as="geometry"/>
                </mxCell>
                <mxCell id="R7Ilkwoh4phyt-hekFA_-13" value="Data" style="shape=image;verticalLabelPosition=bottom;labelBackgroundColor=#ffffff;verticalAlign=top;aspect=fixed;imageAspect=0;image=data:image/svg+xml,PHN2ZyB4bWxucz0iaHR0cDovL3d3dy53My5vcmcvMjAwMC9zdmciIHhtbG5zOnhsaW5rPSJodHRwOi8vd3d3LnczLm9yZy8xOTk5L3hsaW5rIiBoZWlnaHQ9IjIwIiB3aWR0aD0iMjEiIGZpbGw9IiMwMDAwMDAiIHZlcnNpb249IjEuMSIgeD0iMHB4IiB5PSIwcHgiIHZpZXdCb3g9IjEuNSAyIDIxIDIwIiBzdHlsZT0iZW5hYmxlLWJhY2tncm91bmQ6bmV3IDAgMCAyNCAyNDsiIHhtbDpzcGFjZT0icHJlc2VydmUiPjxwYXRoIGQ9Ik0xMiwyQzYuOTEsMiwxLjUsMy40MDIsMS41LDZ2NnY2YzAsMi41OTgsNS40MSw0LDEwLjUsNHMxMC41LTEuNDAyLDEwLjUtNHYtNlY2QzIyLjUsMy40MDIsMTcuMDksMiwxMiwyeiBNMjEuNSwxMiAgYzAsMS40MTktMy45MDEsMy05LjUsM3MtOS41LTEuNTgxLTkuNS0zVjcuNzc2QzQuMjk0LDkuMjI5LDguMjMyLDEwLDEyLDEwczcuNzA2LTAuNzcxLDkuNS0yLjIyNFYxMnogTTEyLDMgIGM1LjU5OSwwLDkuNSwxLjU4MSw5LjUsM1MxNy41OTksOSwxMiw5UzIuNSw3LjQxOSwyLjUsNlM2LjQwMSwzLDEyLDN6IE0xMiwyMWMtNS41OTksMC05LjUtMS41ODEtOS41LTN2LTQuMjI0ICBDNC4yOTQsMTUuMjI5LDguMjMyLDE2LDEyLDE2czcuNzA2LTAuNzcxLDkuNS0yLjIyNFYxOEMyMS41LDE5LjQxOSwxNy41OTksMjEsMTIsMjF6Ii8+PC9zdmc+;fontSize=24;fontStyle=1" parent="1" vertex="1">
                    <mxGeometry x="524" y="-55.239999999999995" width="100" height="95.24" as="geometry"/>
                </mxCell>
                <mxCell id="R7Ilkwoh4phyt-hekFA_-14" value="Runtime" style="shape=image;verticalLabelPosition=bottom;labelBackgroundColor=#ffffff;verticalAlign=top;aspect=fixed;imageAspect=0;image=data:image/svg+xml,PHN2ZyB4bWxucz0iaHR0cDovL3d3dy53My5vcmcvMjAwMC9zdmciIGhlaWdodD0iNTIuMDM1MzY2MDU4MzQ5NjEiIHdpZHRoPSI1OC4wOTIxMDIwNTA3ODEyNSIgZmlsbD0iIzAwMDAwMCIgZGF0YS1uYW1lPSJMYXllciAxIiB2aWV3Qm94PSIyLjkyNDUyMjM5OTkwMjM0MzggNiA1OC4wOTIxMDIwNTA3ODEyNSA1Mi4wMzUzNjYwNTgzNDk2MSIgeD0iMHB4IiB5PSIwcHgiPjx0aXRsZT5idXN5PC90aXRsZT48cGF0aCBkPSJNNDksMzJhNSw1LDAsMSwwLTUtNUE1LDUsMCwwLDAsNDksMzJabTAtOGEzLDMsMCwxLDEtMywzQTMsMywwLDAsMSw0OSwyNFoiLz48cGF0aCBkPSJNNjAuNDgsMzMuMzRhMi45MSwyLjkxLDAsMCwwLTQuMTYtLjg0bC00LjI0LDIuODNMNDkuOCwzMy42MmMtMS43NS0uOTUtMy42NC0xLTYuMDguMzlsLTYsNC4wNkEzLDMsMCwwLDAsMzYuNSw0MCwzLDMsMCwwLDAsMzcsNDIuMjVhMywzLDAsMCwwLDQuMTguNzlMNDUsNDAuNDFWNDcuM2wtMS44MSwxLjA5TDQwLjc4LDQ2LjZhMywzLDAsMCwwLTMuNiw0LjhsNCwzYTMsMywwLDAsMCwzLjM1LjE3czQuOC0yLjkyLDQuODQtMi44OUw1My44OCw1MGMuMzYsMS41OSwxLjUsMy42NSwzLjg0LDIuOTJhMy4wNywzLjA3LDAsMCwwLDIuMTctMy42NGwtMS00YTIuOTQsMi45NCwwLDAsMC0xLjUxLTEuOTEsMywzLDAsMCwwLTIuNDUtLjE2bC00LDEuNDlWNDEuODNhMywzLDAsMCwwLDIuNjctLjMzbDYtNEM2MC4yOSwzNi45LDYxLjgzLDM2LDYwLjQ4LDMzLjM0Wk00MCw0MS4zOGEuOTQuOTQsMCwwLDEtMS4zNC0uMTksMSwxLDAsMCwxLC4yLTEuNDZTNDUsMzUuNjEsNDUsMzUuNTljMCwuMzYsMCwxLjU1LDAsMi40NEM0NC45MiwzOC4wNSw0MCw0MS4zOCw0MCw0MS4zOFptMTUuNjEsMy42OWExLDEsMCwwLDEsLjgyLDAsMSwxLDAsMCwxLC41LjYzbDEsNEExLDEsMCwwLDEsNTcuMjQsNTFMNTcsNTFhMSwxLDAsMCwxLTEtLjc1bC0uNDYtMS44M2ExLDEsMCwwLDAtMS4zMi0uN0w1MSw0OC45NFY0Ni44MVptMi45MS05LjI0LTYsNGExLDEsMCwwLDEtMS4xNiwwbC0uOC0uNkExLjA3LDEuMDcsMCwwLDAsNDksNDB2OWExLDEsMCwwLDEtLjQ4Ljg3bC01LDNhMSwxLDAsMCwxLTEuMTItLjA2bC00LTNhMSwxLDAsMCwxLS4yLTEuNCwxLjA1LDEuMDUsMCwwLDEsMS40LS4ybDIuOTMsMi4xOWExLDEsMCwwLDAsMS4xMS4wNmwyLjg4LTEuNzJhMSwxLDAsMCwwLC40OC0uODZWMzZhLjkuOSwwLDAsMSwuNTMtLjg2LDEsMSwwLDAsMSwxLjA3LjA2bDIuODcsMi4xNWExLDEsMCwwLDAsMS4xNSwwbDQuODMtMy4yMWEuOS45LDAsMCwxLDEuMzguMjhBMSwxLDAsMCwxLDU4LjU0LDM1LjgzWiIvPjxwYXRoIGQ9Ik0zNC41Nyw1Mi43N2ExOSwxOSwwLDEsMSw3LjUzLTIxLjUsMSwxLDAsMCwwLDEuMjUuNjVBMSwxLDAsMCwwLDQ0LDMwLjY3LDIwLjg5LDIwLjg5LDAsMCwwLDI3LDE2LjIyVjE0aDRhMSwxLDAsMCwwLDEtMVY3YTEsMSwwLDAsMC0xLTFIMTdhMSwxLDAsMCwwLTEsMXY2YTEsMSwwLDAsMCwxLDFoNHYyLjI0QTIxLDIxLDAsMSwwLDM1LjY5LDU0LjQzYTEsMSwwLDAsMC0xLjEyLTEuNjZaTTE4LDhIMzB2NEgxOFptNSw4VjE0aDJ2MloiLz48cGF0aCBkPSJNMzkuNzcsMzQuMkExLDEsMCwwLDAsNDAuNSwzM2ExNywxNywwLDEsMC02LjgzLDE4LDEsMSwwLDAsMC0xLjE0LTEuNjQsMTUsMTUsMCwxLDEsNi0xNS44N0ExLDEsMCwwLDAsMzkuNzcsMzQuMloiLz48cGF0aCBkPSJNMjQsMjRhMSwxLDAsMCwwLTEsMXY5LjE4YTMsMywwLDEsMCwyLDBWMjVBMSwxLDAsMCwwLDI0LDI0Wm0wLDE0YTEsMSwwLDEsMSwxLTFBMSwxLDAsMCwxLDI0LDM4WiIvPjxwYXRoIGQ9Ik0zNiwzN2ExLDEsMCwwLDAtMS0xSDMyYTEsMSwwLDAsMCwwLDJoM0ExLDEsMCwwLDAsMzYsMzdaIi8+PHBhdGggZD0iTTM0LDQxSDI4YTEsMSwwLDAsMCwwLDJoNmExLDEsMCwwLDAsMC0yWiIvPjxwYXRoIGQ9Ik0yMyw0OEgzNGExLDEsMCwwLDAsMC0ySDIzYTEsMSwwLDAsMCwwLDJaIi8+PC9zdmc+;fontSize=24;fontStyle=1" parent="1" vertex="1">
                    <mxGeometry x="815" y="-49.66" width="100" height="89.66" as="geometry"/>
                </mxCell>
                <mxCell id="R7Ilkwoh4phyt-hekFA_-15" value="Operating&#10;System" style="shape=image;verticalLabelPosition=bottom;labelBackgroundColor=#ffffff;verticalAlign=top;aspect=fixed;imageAspect=0;image=data:image/svg+xml,PHN2ZyB4bWxucz0iaHR0cDovL3d3dy53My5vcmcvMjAwMC9zdmciIGhlaWdodD0iNDgiIHdpZHRoPSI0MC4wMDEyNzQxMDg4ODY3MiIgZmlsbD0iIzAwMDAwMCIgdmlld0JveD0iNCAwIDQwLjAwMTI3NDEwODg4NjcyIDQ4IiB4PSIwcHgiIHk9IjBweCI+PHRpdGxlPm9wZXJhdGluZyBzeXN0ZW08L3RpdGxlPjxnIGRhdGEtbmFtZT0ib3BlcmF0aW5nIHN5c3RlbSI+PHBhdGggZD0iTTMyLDRWM2EzLDMsMCwwLDAtMy0zSDdBMywzLDAsMCwwLDQsM1Y0NWEzLDMsMCwwLDAsMywzSDI5YTMsMywwLDAsMCwzLTNWMzJhMTIsMTIsMCwwLDEtMiwwVjQySDZWM0ExLDEsMCwwLDEsNywyaDVhMiwyLDAsMCwwLDIsMmg4YTIsMiwwLDAsMCwyLTJoNWExLDEsMCwwLDEsMSwxVjRBMTQuNzcsMTQuNzcsMCwwLDEsMzIsNFpNMTYsNDRoNGExLDEsMCwwLDEsMCwySDE2QTEsMSwwLDAsMSwxNiw0NFoiLz48cGF0aCBkPSJNNDMuMzcsMTUuNTdsLTEuOS0uNzZBOS44Myw5LjgzLDAsMCwwLDQxLDEzLjU1bC44MS0xLjg3YTEsMSwwLDAsMC0uMjEtMS4xYy0zLTMtMi4xMS0yLjgyLTUuMS0xLjUzYTkuODMsOS44MywwLDAsMC0xLjI2LS41MmwtLjc2LTEuOUExLDEsMCwwLDAsMzMuNSw2aC0zYTEsMSwwLDAsMC0uOTMuNjNsLS43NiwxLjlhOS44Myw5LjgzLDAsMCwwLTEuMjYuNTJsLTEuODctLjgxYTEsMSwwLDAsMC0xLjEuMjFjLTMsMy0yLjgyLDIuMTEtMS41Myw1LjFhOS44Myw5LjgzLDAsMCwwLS41MiwxLjI2bC0xLjkuNzZhMSwxLDAsMCwwLS42My45M3YzYzAsLjgyLjUxLjg4LDIuNTMsMS42OWE5LjgzLDkuODMsMCwwLDAsLjUyLDEuMjZsLS44MSwxLjg3YTEsMSwwLDAsMCwuMjEsMS4xYzMsMywyLjExLDIuODIsNS4xLDEuNTNhOS44Myw5LjgzLDAsMCwwLDEuMjYuNTJsLjc2LDEuOWExLDEsMCwwLDAsLjkzLjYzaDNhMSwxLDAsMCwwLC45My0uNjNsLjc2LTEuOUE5LjgzLDkuODMsMCwwLDAsMzYuNDUsMjdsMS44Ny44MWExLDEsMCwwLDAsMS4xLS4yMWMzLTMsMi44Mi0yLjExLDEuNTMtNS4xYTkuODMsOS44MywwLDAsMCwuNTItMS4yNmwxLjktLjc2QTEsMSwwLDAsMCw0NCwxOS41di0zQTEsMSwwLDAsMCw0My4zNywxNS41N1pNNDIsMTguODJjLTEuNTUuNjItMi4xMi43LTIuMywxLjM1LS44MiwyLjg5LTEuNDIsMS4xMS0uMDUsNC4zMmwtMS4xNiwxLjE2Yy0xLjUtLjY0LTItMS0yLjU4LS42OC0yLjYyLDEuNDgtMS43Ny0uMjYtMy4wOSwzSDMxLjE4Yy0uNjItMS41My0uNy0yLjEyLTEuMzUtMi4zMS0yLjktLjgxLTEuMDgtMS40Mi00LjMyLDBsLTEuMTYtMS4xNmMuNzctMS44LDEtMiwuNjgtMi41OC0xLjQ4LTIuNjMuMjYtMS43Ny0zLTMuMDlWMTcuMThjMS41NS0uNjIsMi4xMi0uNywyLjMtMS4zNS44My0yLjksMS40My0xLjEuMDUtNC4zMmwxLjE2LTEuMTZjMS41Mi42NSwyLDEsMi41OC42OCwyLjYyLTEuNDgsMS43Ny4yNiwzLjA5LTNoMS42NGMuNjIsMS41My43LDIuMTIsMS4zNSwyLjMxLDIuOS44MSwxLjA4LDEuNDIsNC4zMiwwbDEuMTYsMS4xNmMtLjc3LDEuOC0xLDItLjY4LDIuNTgsMS40OCwyLjYzLS4yNiwxLjc3LDMsMy4wOVoiLz48cGF0aCBkPSJNMzUuNzMsMTkuNDdhNCw0LDAsMCwwLTUuMi01LjIsMSwxLDAsMCwxLS43Mi0xLjg2LDYsNiwwLDAsMSw3Ljc4LDcuNzhBMSwxLDAsMCwxLDM1LjczLDE5LjQ3WiIvPjxwYXRoIGQ9Ik0yNi40MSwxNS44MWExLDEsMCwwLDEsMS44Ni43Miw0LDQsMCwwLDAsNS4yLDUuMiwxLDEsMCwwLDEsLjcyLDEuODZBNiw2LDAsMCwxLDI2LjQxLDE1LjgxWiIvPjxwYXRoIGQ9Ik0xMC4wOCwzMS4zOGMuMS4yNiwwLC4xNiwyLjIxLDIuMzNhMSwxLDAsMCwwLDEuNDItMS40MkMxMy4yOSwzMS44NywxMS42NiwzMiwyNSwzMmExLDEsMCwwLDAsMC0yYy0xMy4zNCwwLTExLjcxLjEzLTExLjI5LS4yOWExLDEsMCwwLDAtMS40Mi0xLjQybC0yLDJBMSwxLDAsMCwwLDEwLjA4LDMxLjM4WiIvPjxwYXRoIGQ9Ik0yNS45MiwzNi42MmMtLjEtLjI2LDAtLjE2LTIuMjEtMi4zM2ExLDEsMCwwLDAtMS40MiwxLjQyYy40Mi40MiwyLjA1LjI5LTExLjI5LjI5YTEsMSwwLDAsMCwwLDJjMTMuMzQsMCwxMS43MS0uMTMsMTEuMjkuMjlhMSwxLDAsMCwwLDEuNDIsMS40MmwyLTJBMSwxLDAsMCwwLDI1LjkyLDM2LjYyWiIvPjwvZz48L3N2Zz4=;fontSize=24;fontStyle=1;spacingLeft=-30;" parent="1" vertex="1">
                    <mxGeometry x="1137" y="-70" width="83.33" height="100" as="geometry"/>
                </mxCell>
                <mxCell id="R7Ilkwoh4phyt-hekFA_-17" value="Middleware" style="shape=image;verticalLabelPosition=bottom;labelBackgroundColor=#ffffff;verticalAlign=top;aspect=fixed;imageAspect=0;image=data:image/svg+xml,PHN2ZyB4bWxucz0iaHR0cDovL3d3dy53My5vcmcvMjAwMC9zdmciIHhtbG5zOnhsaW5rPSJodHRwOi8vd3d3LnczLm9yZy8xOTk5L3hsaW5rIiBoZWlnaHQ9IjMyIiB3aWR0aD0iMzIiIGZpbGw9IiMwMDAwMDAiIHZpZXdCb3g9IjAgMCAzMiAzMiIgdmVyc2lvbj0iMS4xIiB4PSIwcHgiIHk9IjBweCI+PHRpdGxlPk1pZGRsZTwvdGl0bGU+PGRlc2M+Q3JlYXRlZCB3aXRoIFNrZXRjaC48L2Rlc2M+PGcgc3Ryb2tlPSJub25lIiBzdHJva2Utd2lkdGg9IjEiIGZpbGw9Im5vbmUiIGZpbGwtcnVsZT0iZXZlbm9kZCI+PHJlY3QgeD0iMCIgeT0iMCIgd2lkdGg9IjMyIiBoZWlnaHQ9IjMyIi8+PHBhdGggZD0iTTE0LDI0IEwxMiwyNCBMMTYsMjAgTDIwLDI0IEwxOCwyNCBMMTgsMzAgTDE0LDMwIEwxNCwyNCBaIE0yLDE0IEwzMCwxNCBMMzAsMTggTDIsMTggTDIsMTQgWiBNMTgsOCBMMjAsOCBMMTYsMTIgTDEyLDggTDE0LDggTDE0LDIgTDE4LDIgTDE4LDggWiIgZmlsbD0iIzAwMDAwMCIvPjwvZz48L3N2Zz4=;fontSize=24;fontStyle=1" parent="1" vertex="1">
                    <mxGeometry x="967" y="-60" width="100" height="100" as="geometry"/>
                </mxCell>
                <mxCell id="R7Ilkwoh4phyt-hekFA_-19" value="Hypervisor" style="shape=image;verticalLabelPosition=bottom;labelBackgroundColor=#ffffff;verticalAlign=top;aspect=fixed;imageAspect=0;image=data:image/svg+xml,PHN2ZyB4bWxucz0iaHR0cDovL3d3dy53My5vcmcvMjAwMC9zdmciIHhtbG5zOnhsaW5rPSJodHRwOi8vd3d3LnczLm9yZy8xOTk5L3hsaW5rIiBoZWlnaHQ9IjU2IiB3aWR0aD0iNTYiIGZpbGw9IiMwMDAwMDAiIHZpZXdCb3g9IjAgMCA1NiA1NiIgdmVyc2lvbj0iMS4xIiB4PSIwcHgiIHk9IjBweCI+PHRpdGxlPjAwMyAtIFZNIFNlcnZlcjwvdGl0bGU+PGRlc2M+Q3JlYXRlZCB3aXRoIFNrZXRjaC48L2Rlc2M+PGcgc3Ryb2tlPSJub25lIiBzdHJva2Utd2lkdGg9IjEiIGZpbGw9Im5vbmUiIGZpbGwtcnVsZT0iZXZlbm9kZCI+PGc+PHBhdGggZD0iTTIsMTggTDEyLDE4IiBzdHJva2U9IiMwMDAwMDAiIHN0cm9rZS13aWR0aD0iMiIgc3Ryb2tlLWxpbmVjYXA9InJvdW5kIiBzdHJva2UtbGluZWpvaW49InJvdW5kIi8+PHBhdGggZD0iTTIzLDE4IEwzMywxOCIgc3Ryb2tlPSIjMDAwMDAwIiBzdHJva2Utd2lkdGg9IjIiIHN0cm9rZS1saW5lY2FwPSJyb3VuZCIgc3Ryb2tlLWxpbmVqb2luPSJyb3VuZCIvPjxyZWN0IGZpbGw9IiMwMDAwMDAiIGZpbGwtcnVsZT0ibm9uemVybyIgeD0iOCIgeT0iNDgiIHdpZHRoPSIxMyIgaGVpZ2h0PSI0Ii8+PHJlY3QgZmlsbD0iIzAwMDAwMCIgZmlsbC1ydWxlPSJub256ZXJvIiB4PSI4IiB5PSI0MiIgd2lkdGg9IjEzIiBoZWlnaHQ9IjQiLz48Y2lyY2xlIGZpbGw9IiMwMDAwMDAiIGZpbGwtcnVsZT0ibm9uemVybyIgY3g9IjI4IiBjeT0iNDciIHI9IjEiLz48cGF0aCBkPSJNNCw0NC4xODQyNyBDNC42NDQwMjk2Myw0My45Mzg1NzYyIDUuMzU1OTcwMzcsNDMuOTM4NTc2MiA2LDQ0LjE4NDI3IEw2LDQyIEw0LDQyIEw0LDQ0LjE4NDI3IFoiIGZpbGw9IiMwMDAwMDAiIGZpbGwtcnVsZT0ibm9uemVybyIvPjxwYXRoIGQ9Ik00LDQ5LjgxNTY3IEw0LDUyIEw2LDUyIEw2LDQ5LjgxNTczIEM1LjM1NTk3MDI1LDUwLjA2MTQ0MzggNC42NDQwMTUsNTAuMDYxNDIyNSA0LDQ5LjgxNTY3IFoiIGZpbGw9IiMwMDAwMDAiIGZpbGwtcnVsZT0ibm9uemVybyIvPjxwYXRoIGQ9Ik01NSwzOCBMMSwzOCBDMC40NDgwMTIxNzcsMzguMDAwNzE2MiAwLjAwMDcxNjE4ODUwNywzOC40NDgwMTIyIDAsMzkgTDAsNTUgQzAuMDAwNzE2MTg4NTA3LDU1LjU1MTk4NzggMC40NDgwMTIxNzcsNTUuOTk5MjgzOCAxLDU2IEw1NSw1NiBDNTUuNTUxOTg3OCw1NS45OTkyODM4IDU1Ljk5OTI4MzgsNTUuNTUxOTg3OCA1Niw1NSBMNTYsMzkgQzU1Ljk5OTI4MzgsMzguNDQ4MDEyMiA1NS41NTE5ODc4LDM4LjAwMDcxNjIgNTUsMzggWiBNNTQsNTIgQzUzLjk5ODg5NzUsNTMuMTA0MTEyNSA1My4xMDQxMTI1LDUzLjk5ODg5NzUgNTIsNTQgTDQsNTQgQzIuODk1ODg3NDgsNTMuOTk4ODk3NSAyLjAwMTEwMjQ2LDUzLjEwNDExMjUgMiw1MiBMMiw0MiBDMi4wMDExMDI0Niw0MC44OTU4ODc1IDIuODk1ODg3NDgsNDAuMDAxMTAyNSA0LDQwIEw1Miw0MCBDNTMuMTA0MTEyNSw0MC4wMDExMDI1IDUzLjk5ODg5NzUsNDAuODk1ODg3NSA1NCw0MiBMNTQsNTIgWiIgZmlsbD0iIzAwMDAwMCIgZmlsbC1ydWxlPSJub256ZXJvIi8+PGNpcmNsZSBmaWxsPSIjMDAwMDAwIiBmaWxsLXJ1bGU9Im5vbnplcm8iIGN4PSI1IiBjeT0iNDciIHI9IjEiLz48cGF0aCBkPSJNMjMsNTIgTDMzLDUyIEwzMyw0MiBMMjMsNDIgTDIzLDUyIFogTTI4LDQ0IEMyOS42NTY4NTQyLDQ0IDMxLDQ1LjM0MzE0NTggMzEsNDcgQzMxLDQ4LjY1Njg1NDIgMjkuNjU2ODU0Miw1MCAyOCw1MCBDMjYuMzQzMTQ1OCw1MCAyNSw0OC42NTY4NTQyIDI1LDQ3IEMyNS4wMDE4MDc3LDQ1LjM0Mzg5NTEgMjYuMzQzODk1MSw0NC4wMDE4MDc3IDI4LDQ0IFoiIGZpbGw9IiMwMDAwMDAiIGZpbGwtcnVsZT0ibm9uemVybyIvPjxjaXJjbGUgZmlsbD0iIzAwMDAwMCIgZmlsbC1ydWxlPSJub256ZXJvIiBjeD0iNTEiIGN5PSI0NyIgcj0iMSIvPjxwYXRoIGQ9Ik01MSw1MCBDNTAuNjU4NTM4OCw0OS45OTY2MDI5IDUwLjMyMDIzMDksNDkuOTM0MjQyNiA1MCw0OS44MTU2NyBMNTAsNTIgTDUyLjAwMTQ2LDUyIEw1Mi4wMDExNiw0OS44MTUzNyBDNTEuNjgwNTc3MSw0OS45MzQxNjE0IDUxLjM0MTg2NzUsNDkuOTk2NjI0OSA1MSw1MCBaIiBmaWxsPSIjMDAwMDAwIiBmaWxsLXJ1bGU9Im5vbnplcm8iLz48cGF0aCBkPSJNNTIuMDAwMzEsNDQuMTg0MzMgTDUyLDQyIEw1MCw0MiBMNTAsNDQuMTg0MjcgQzUwLjY0NDEzNzMsNDMuOTM4NTU5OCA1MS4zNTYxODc1LDQzLjkzODU4MTIgNTIuMDAwMzEsNDQuMTg0MzMgWiIgZmlsbD0iIzAwMDAwMCIgZmlsbC1ydWxlPSJub256ZXJvIi8+PHJlY3QgZmlsbD0iIzAwMDAwMCIgZmlsbC1ydWxlPSJub256ZXJvIiB4PSIzNSIgeT0iNDgiIHdpZHRoPSIxMyIgaGVpZ2h0PSI0Ii8+PHJlY3QgZmlsbD0iIzAwMDAwMCIgZmlsbC1ydWxlPSJub256ZXJvIiB4PSIzNSIgeT0iNDIiIHdpZHRoPSIxMyIgaGVpZ2h0PSI0Ii8+PHBhdGggZD0iTTksMTcgTDUsMTcgTDUsMTUgTDksMTUgTDksMTcgWiBNNC40NDA4OTIxZS0xNiwxIEMwLjAwMDcxNjE4ODUwNywwLjQ0ODAxMjE3NyAwLjQ0ODAxMjE3NywwLjAwMDcxNjE4ODUwNyAxLDAgTDEzLDAgQzEzLjU1MTk4NzgsMC4wMDA3MTYxODg1MDcgMTMuOTk5MjgzOCwwLjQ0ODAxMjE3NyAxNCwxIEwxNCwxMiBDMTMuOTk5MjgzOCwxMi41NTE5ODc4IDEzLjU1MTk4NzgsMTIuOTk5MjgzOCAxMywxMyBMMSwxMyBDMC40NDgwMTIxNzcsMTIuOTk5MjgzOCAwLjAwMDcxNjE4ODUwNywxMi41NTE5ODc4IDAsMTIgTDQuNDQwODkyMWUtMTYsMSBaIiBmaWxsPSIjMDAwMDAwIiBmaWxsLXJ1bGU9Im5vbnplcm8iLz48cGF0aCBkPSJNMzAsMTcgTDI2LDE3IEwyNiwxNSBMMzAsMTUgTDMwLDE3IFogTTIxLDEgQzIxLjAwMDcxNjIsMC40NDgwMTIxNzcgMjEuNDQ4MDEyMiwwLjAwMDcxNjE4ODUwNyAyMiwwIEwzNCwwIEMzNC41NTE5ODc4LDAuMDAwNzE2MTg4NTA3IDM0Ljk5OTI4MzgsMC40NDgwMTIxNzcgMzUsMSBMMzUsMTIgQzM0Ljk5OTI4MzgsMTIuNTUxOTg3OCAzNC41NTE5ODc4LDEyLjk5OTI4MzggMzQsMTMgTDIyLDEzIEMyMS40NDgwMTIyLDEyLjk5OTI4MzggMjEuMDAwNzE2MiwxMi41NTE5ODc4IDIxLDEyIEwyMSwxIFoiIGZpbGw9IiMwMDAwMDAiIGZpbGwtcnVsZT0ibm9uemVybyIvPjxwYXRoIGQ9Ik01MSwxNyBMNDcsMTcgTDQ3LDE1IEw1MSwxNSBMNTEsMTcgWiBNNTYsMTIgQzU1Ljk5OTI4MzgsMTIuNTUxOTg3OCA1NS41NTE5ODc4LDEyLjk5OTI4MzggNTUsMTMgTDQzLDEzIEM0Mi40NDgwMTIyLDEyLjk5OTI4MzggNDIuMDAwNzE2MiwxMi41NTE5ODc4IDQyLDEyIEw0MiwxIEM0Mi4wMDA3MTYyLDAuNDQ4MDEyMTc3IDQyLjQ0ODAxMjIsMC4wMDA3MTYxODg1MDcgNDMsMCBMNTUsMCBDNTUuNTUxOTg3OCwwLjAwMDcxNjE4ODUwNyA1NS45OTkyODM4LDAuNDQ4MDEyMTc3IDU2LDEgTDU2LDEyIFoiIGZpbGw9IiMwMDAwMDAiIGZpbGwtcnVsZT0ibm9uemVybyIvPjxwYXRoIGQ9Ik00NCwxOCBMNTQsMTgiIHN0cm9rZT0iIzAwMDAwMCIgc3Ryb2tlLXdpZHRoPSIyIiBzdHJva2UtbGluZWNhcD0icm91bmQiIHN0cm9rZS1saW5lam9pbj0icm91bmQiLz48cG9seWxpbmUgc3Ryb2tlPSIjMDAwMDAwIiBzdHJva2Utd2lkdGg9IjIiIHN0cm9rZS1saW5lY2FwPSJyb3VuZCIgc3Ryb2tlLWxpbmVqb2luPSJyb3VuZCIgcG9pbnRzPSI3IDIyIDcgMjkgMjggMjkgMjggMzMiLz48cG9seWxpbmUgc3Ryb2tlPSIjMDAwMDAwIiBzdHJva2Utd2lkdGg9IjIiIHN0cm9rZS1saW5lY2FwPSJyb3VuZCIgc3Ryb2tlLWxpbmVqb2luPSJyb3VuZCIgcG9pbnRzPSI0OSAyMiA0OSAyOSAyOCAyOSAyOCAzMyIvPjxwYXRoIGQ9Ik0yOCwyMiBMMjgsMjkiIHN0cm9rZT0iIzAwMDAwMCIgc3Ryb2tlLXdpZHRoPSIyIiBzdHJva2UtbGluZWNhcD0icm91bmQiIHN0cm9rZS1saW5lam9pbj0icm91bmQiLz48L2c+PC9nPjwvc3ZnPg==;fontSize=24;fontStyle=1" parent="1" vertex="1">
                    <mxGeometry x="1400" y="-60" width="100" height="100" as="geometry"/>
                </mxCell>
                <mxCell id="R7Ilkwoh4phyt-hekFA_-20" value="Servers" style="shape=image;verticalLabelPosition=bottom;labelBackgroundColor=#ffffff;verticalAlign=top;aspect=fixed;imageAspect=0;image=data:image/svg+xml,PHN2ZyB4bWxucz0iaHR0cDovL3d3dy53My5vcmcvMjAwMC9zdmciIHhtbG5zOnhsaW5rPSJodHRwOi8vd3d3LnczLm9yZy8xOTk5L3hsaW5rIiBoZWlnaHQ9IjY0IiB3aWR0aD0iNDgiIGZpbGw9IiMwMDAwMDAiIHZlcnNpb249IjEuMSIgeD0iMHB4IiB5PSIwcHgiIHZpZXdCb3g9IjggMCA0OCA2NCIgc3R5bGU9ImVuYWJsZS1iYWNrZ3JvdW5kOm5ldyAwIDAgNjQgNjQ7IiB4bWw6c3BhY2U9InByZXNlcnZlIj48cGF0aCBjbGFzcz0iR3JhcGhpY194MDAyMF9TdHlsZV94MDAyMF8yIiBkPSJNNTYsMTdjMC0yLjEtMC4yLTQuMS0wLjctNi4xbC0yLTguNUM1MywxLDUxLjgsMCw1MC40LDBIMTMuNiAgYy0xLjQsMC0yLjYsMS0yLjksMi4zbC0yLDguNUM4LjIsMTIuOSw4LDE0LjksOCwxN3Y0NGMwLDEuNywxLjMsMywzLDNoNDJjMS43LDAsMy0xLjMsMy0zVjE3QzU2LDE3LDU2LDE3LDU2LDE3QzU2LDE3LDU2LDE3LDU2LDE3eiAgIE0xMi42LDIuOGMwLjEtMC41LDAuNS0wLjgsMS0wLjhoMzYuOGMwLjUsMCwwLjksMC4zLDEsMC44bDIsOC41YzAuMiwwLjksMC40LDEuOSwwLjUsMi44QzUzLjYsMTQuMSw1My4zLDE0LDUzLDE0SDExICBjLTAuMywwLTAuNiwwLjEtMC44LDAuMWMwLjEtMSwwLjMtMS45LDAuNS0yLjhMMTIuNiwyLjh6IE01Myw2MkgxMWMtMC42LDAtMS0wLjQtMS0xVjQwaDExYzAuNiwwLDEtMC40LDEtMXMtMC40LTEtMS0xSDEwVjI4aDggIGMwLjYsMCwxLTAuNCwxLTFzLTAuNC0xLTEtMWgtOHYtOWMwLTAuNiwwLjQtMSwxLTFoNDJjMC42LDAsMSwwLjQsMSwxdjlIMjdjLTAuNiwwLTEsMC40LTEsMXMwLjQsMSwxLDFoMjd2MTBIMjdjLTAuNiwwLTEsMC40LTEsMSAgczAuNCwxLDEsMWgyN3YxMEgxM2MtMC42LDAtMSwwLjQtMSwxczAuNCwxLDEsMWg0MXY5QzU0LDYxLjYsNTMuNiw2Miw1Myw2MnogTTQ4LDIzdi00YzAtMC42LDAuNC0xLDEtMXMxLDAuNCwxLDF2NCAgYzAsMC42LTAuNCwxLTEsMVM0OCwyMy42LDQ4LDIzeiBNNDQsMjN2LTRjMC0wLjYsMC40LTEsMS0xczEsMC40LDEsMXY0YzAsMC42LTAuNCwxLTEsMVM0NCwyMy42LDQ0LDIzeiBNNDAsMjN2LTRjMC0wLjYsMC40LTEsMS0xICBzMSwwLjQsMSwxdjRjMCwwLjYtMC40LDEtMSwxUzQwLDIzLjYsNDAsMjN6IE0zNiwyM3YtNGMwLTAuNiwwLjQtMSwxLTFzMSwwLjQsMSwxdjRjMCwwLjYtMC40LDEtMSwxUzM2LDIzLjYsMzYsMjN6IE0zMiwyM3YtNCAgYzAtMC42LDAuNC0xLDEtMXMxLDAuNCwxLDF2NGMwLDAuNi0wLjQsMS0xLDFTMzIsMjMuNiwzMiwyM3ogTTQ4LDM1di00YzAtMC42LDAuNC0xLDEtMXMxLDAuNCwxLDF2NGMwLDAuNi0wLjQsMS0xLDFTNDgsMzUuNiw0OCwzNSAgeiBNNDQsMzV2LTRjMC0wLjYsMC40LTEsMS0xczEsMC40LDEsMXY0YzAsMC42LTAuNCwxLTEsMVM0NCwzNS42LDQ0LDM1eiBNNDAsMzV2LTRjMC0wLjYsMC40LTEsMS0xczEsMC40LDEsMXY0YzAsMC42LTAuNCwxLTEsMSAgUzQwLDM1LjYsNDAsMzV6IE0zNiwzNXYtNGMwLTAuNiwwLjQtMSwxLTFzMSwwLjQsMSwxdjRjMCwwLjYtMC40LDEtMSwxUzM2LDM1LjYsMzYsMzV6IE0zMiwzNXYtNGMwLTAuNiwwLjQtMSwxLTFzMSwwLjQsMSwxdjQgIGMwLDAuNi0wLjQsMS0xLDFTMzIsMzUuNiwzMiwzNXogTTQ4LDQ3di00YzAtMC42LDAuNC0xLDEtMXMxLDAuNCwxLDF2NGMwLDAuNi0wLjQsMS0xLDFTNDgsNDcuNiw0OCw0N3ogTTQ0LDQ3di00YzAtMC42LDAuNC0xLDEtMSAgczEsMC40LDEsMXY0YzAsMC42LTAuNCwxLTEsMVM0NCw0Ny42LDQ0LDQ3eiBNNDAsNDd2LTRjMC0wLjYsMC40LTEsMS0xczEsMC40LDEsMXY0YzAsMC42LTAuNCwxLTEsMVM0MCw0Ny42LDQwLDQ3eiBNMzYsNDd2LTQgIGMwLTAuNiwwLjQtMSwxLTFzMSwwLjQsMSwxdjRjMCwwLjYtMC40LDEtMSwxUzM2LDQ3LjYsMzYsNDd6IE0zMiw0N3YtNGMwLTAuNiwwLjQtMSwxLTFzMSwwLjQsMSwxdjRjMCwwLjYtMC40LDEtMSwxUzMyLDQ3LjYsMzIsNDcgIHogTTUwLDU1djRjMCwwLjYtMC40LDEtMSwxcy0xLTAuNC0xLTF2LTRjMC0wLjYsMC40LTEsMS0xUzUwLDU0LjQsNTAsNTV6IE00Niw1NXY0YzAsMC42LTAuNCwxLTEsMXMtMS0wLjQtMS0xdi00YzAtMC42LDAuNC0xLDEtMSAgUzQ2LDU0LjQsNDYsNTV6IE00Miw1NXY0YzAsMC42LTAuNCwxLTEsMXMtMS0wLjQtMS0xdi00YzAtMC42LDAuNC0xLDEtMVM0Miw1NC40LDQyLDU1eiBNMzgsNTV2NGMwLDAuNi0wLjQsMS0xLDFzLTEtMC40LTEtMXYtNCAgYzAtMC42LDAuNC0xLDEtMVMzOCw1NC40LDM4LDU1eiBNMzQsNTV2NGMwLDAuNi0wLjQsMS0xLDFzLTEtMC40LTEtMXYtNGMwLTAuNiwwLjQtMSwxLTFTMzQsNTQuNCwzNCw1NXogTTM3LDVjMC0wLjYsMC40LTEsMS0xaDExICBjMC42LDAsMSwwLjQsMSwxcy0wLjQsMS0xLDFIMzhDMzcuNCw2LDM3LDUuNiwzNyw1eiBNMzcsOGMwLTAuNiwwLjQtMSwxLTFoMTFjMC42LDAsMSwwLjQsMSwxcy0wLjQsMS0xLDFIMzhDMzcuNCw5LDM3LDguNiwzNyw4eiAgIE0yMSwyMS41YzAsMC44LTAuNywxLjUtMS41LDEuNVMxOCwyMi4zLDE4LDIxLjVzMC43LTEuNSwxLjUtMS41UzIxLDIwLjcsMjEsMjEuNXogTTIyLDIxLjVjMC0wLjgsMC43LTEuNSwxLjUtMS41czEuNSwwLjcsMS41LDEuNSAgUzI0LjMsMjMsMjMuNSwyM1MyMiwyMi4zLDIyLDIxLjV6IE0xNywzMy41YzAsMC44LTAuNywxLjUtMS41LDEuNVMxNCwzNC4zLDE0LDMzLjVzMC43LTEuNSwxLjUtMS41UzE3LDMyLjcsMTcsMzMuNXogTTIxLDMzLjUgIGMwLDAuOC0wLjcsMS41LTEuNSwxLjVTMTgsMzQuMywxOCwzMy41czAuNy0xLjUsMS41LTEuNVMyMSwzMi43LDIxLDMzLjV6IE0yMiwzMy41YzAtMC44LDAuNy0xLjUsMS41LTEuNXMxLjUsMC43LDEuNSwxLjUgIFMyNC4zLDM1LDIzLjUsMzVTMjIsMzQuMywyMiwzMy41eiBNMTQsNDUuNWMwLTAuOCwwLjctMS41LDEuNS0xLjVzMS41LDAuNywxLjUsMS41UzE2LjMsNDcsMTUuNSw0N1MxNCw0Ni4zLDE0LDQ1LjV6IE0xOCw0NS41ICBjMC0wLjgsMC43LTEuNSwxLjUtMS41czEuNSwwLjcsMS41LDEuNVMyMC4zLDQ3LDE5LjUsNDdTMTgsNDYuMywxOCw0NS41eiBNMjIsNDUuNWMwLTAuOCwwLjctMS41LDEuNS0xLjVzMS41LDAuNywxLjUsMS41ICBTMjQuMyw0NywyMy41LDQ3UzIyLDQ2LjMsMjIsNDUuNXogTTE3LDU3LjVjMCwwLjgtMC43LDEuNS0xLjUsMS41UzE0LDU4LjMsMTQsNTcuNXMwLjctMS41LDEuNS0xLjVTMTcsNTYuNywxNyw1Ny41eiBNMjEsNTcuNSAgYzAsMC44LTAuNywxLjUtMS41LDEuNVMxOCw1OC4zLDE4LDU3LjVzMC43LTEuNSwxLjUtMS41UzIxLDU2LjcsMjEsNTcuNXogTTI1LDU3LjVjMCwwLjgtMC43LDEuNS0xLjUsMS41UzIyLDU4LjMsMjIsNTcuNSAgczAuNy0xLjUsMS41LTEuNVMyNSw1Ni43LDI1LDU3LjV6IE0xNywyMS41YzAsMC44LTAuNywxLjUtMS41LDEuNVMxNCwyMi4zLDE0LDIxLjVzMC43LTEuNSwxLjUtMS41UzE3LDIwLjcsMTcsMjEuNXoiLz48L3N2Zz4=;fontSize=24;fontStyle=1" parent="1" vertex="1">
                    <mxGeometry x="1533" y="-60" width="75" height="100" as="geometry"/>
                </mxCell>
                <mxCell id="R7Ilkwoh4phyt-hekFA_-21" value="Disk" style="shape=image;verticalLabelPosition=bottom;labelBackgroundColor=#ffffff;verticalAlign=top;aspect=fixed;imageAspect=0;image=data:image/svg+xml,PHN2ZyB4bWxucz0iaHR0cDovL3d3dy53My5vcmcvMjAwMC9zdmciIHhtbG5zOnhsaW5rPSJodHRwOi8vd3d3LnczLm9yZy8xOTk5L3hsaW5rIiBoZWlnaHQ9IjQ4IiB3aWR0aD0iMzcuMjg5MDYyNSIgZmlsbD0iIzAwMDAwMCIgdmVyc2lvbj0iMS4xIiB4PSIwcHgiIHk9IjBweCIgdmlld0JveD0iMTEuMzU1NDY4NzUgNiAzNy4yODkwNjI1IDQ4IiBzdHlsZT0iZW5hYmxlLWJhY2tncm91bmQ6bmV3IDAgMCA2MCA2MDsiIHhtbDpzcGFjZT0icHJlc2VydmUiPjxwYXRoIGQ9Ik00NC42NDQ1MzEzLDU0YzIuMjA2MDU0NywwLDQtMS43OTM5NDUzLDQtNFYxMGMwLTIuMjA2MDU0Ny0xLjc5Mzk0NTMtNC00LTRIMTUuMzU1NDY4OGMtMi4yMDYwNTQ3LDAtNCwxLjc5Mzk0NTMtNCw0djQwICBjMCwyLjIwNjA1NDcsMS43OTM5NDUzLDQsNCw0SDQ0LjY0NDUzMTN6IE0xMy4zNTU0Njg4LDUwVjEwYzAtMS4xMDI1MzkxLDAuODk3NDYwOS0yLDItMmgyOS4yODkwNjI1YzEuMTAyNTM5MSwwLDIsMC44OTc0NjA5LDIsMiAgdjQwYzAsMS4xMDI1MzkxLTAuODk3NDYwOSwyLTIsMkgxNS4zNTU0Njg4QzE0LjI1MjkyOTcsNTIsMTMuMzU1NDY4OCw1MS4xMDI1MzkxLDEzLjM1NTQ2ODgsNTB6Ii8+PHBhdGggZD0iTTE4LjIzNTM1MTYsMTUuNjYxMTMyOGMxLjY1NDI5NjksMCwzLTEuMzQ1NzAzMSwzLTNzLTEuMzQ1NzAzMS0zLTMtM3MtMywxLjM0NTcwMzEtMywzICBTMTYuNTgxMDU0NywxNS42NjExMzI4LDE4LjIzNTM1MTYsMTUuNjYxMTMyOHogTTE4LjIzNTM1MTYsMTEuNjYxMTMyOGMwLjU1MTc1NzgsMCwxLDAuNDQ4MjQyMiwxLDFzLTAuNDQ4MjQyMiwxLTEsMSAgcy0xLTAuNDQ4MjQyMi0xLTFTMTcuNjgzNTkzOCwxMS42NjExMzI4LDE4LjIzNTM1MTYsMTEuNjYxMTMyOHoiLz48cGF0aCBkPSJNNDEuNzY0NjQ4NCwxNS42NjExMzI4YzEuNjU0Mjk2OSwwLDMtMS4zNDU3MDMxLDMtM3MtMS4zNDU3MDMxLTMtMy0zcy0zLDEuMzQ1NzAzMS0zLDMgIFM0MC4xMTAzNTE2LDE1LjY2MTEzMjgsNDEuNzY0NjQ4NCwxNS42NjExMzI4eiBNNDEuNzY0NjQ4NCwxMS42NjExMzI4YzAuNTUxNzU3OCwwLDEsMC40NDgyNDIyLDEsMXMtMC40NDgyNDIyLDEtMSwxICBzLTEtMC40NDgyNDIyLTEtMVM0MS4yMTI4OTA2LDExLjY2MTEzMjgsNDEuNzY0NjQ4NCwxMS42NjExMzI4eiIvPjxwYXRoIGQ9Ik0xOC4yMzUzNTE2LDUwLjMzNzg5MDZjMS42NTQyOTY5LDAsMy0xLjM0NTcwMzEsMy0zcy0xLjM0NTcwMzEtMy0zLTNzLTMsMS4zNDU3MDMxLTMsMyAgUzE2LjU4MTA1NDcsNTAuMzM3ODkwNiwxOC4yMzUzNTE2LDUwLjMzNzg5MDZ6IE0xOC4yMzUzNTE2LDQ2LjMzNzg5MDZjMC41NTE3NTc4LDAsMSwwLjQ0ODI0MjIsMSwxcy0wLjQ0ODI0MjIsMS0xLDEgIHMtMS0wLjQ0ODI0MjItMS0xUzE3LjY4MzU5MzgsNDYuMzM3ODkwNiwxOC4yMzUzNTE2LDQ2LjMzNzg5MDZ6Ii8+PHBhdGggZD0iTTQxLjc2NDY0ODQsNDQuMzM3ODkwNmMtMS42NTQyOTY5LDAtMywxLjM0NTcwMzEtMywzczEuMzQ1NzAzMSwzLDMsM3MzLTEuMzQ1NzAzMSwzLTMgIFM0My40MTg5NDUzLDQ0LjMzNzg5MDYsNDEuNzY0NjQ4NCw0NC4zMzc4OTA2eiBNNDEuNzY0NjQ4NCw0OC4zMzc4OTA2Yy0wLjU1MTc1NzgsMC0xLTAuNDQ4MjQyMi0xLTFzMC40NDgyNDIyLTEsMS0xICBzMSwwLjQ0ODI0MjIsMSwxUzQyLjMxNjQwNjMsNDguMzM3ODkwNiw0MS43NjQ2NDg0LDQ4LjMzNzg5MDZ6Ii8+PHBhdGggZD0iTTE3Ljg1NzQyMTksNDIuMzg3Njk1M2MwLjgwNDY4NzUsMCwxLjYxNjIxMDktMC4yNTQ4ODI4LDIuMzAxNzU3OC0wLjc4MjIyNjZjMC4wMDA5NzY2LDAsMC4wMDA5NzY2LDAsMC4wMDA5NzY2LDAgIGMwLjA2OTg4NTMtMC4wNTM3MTA5LDAuMTQ4NjIwNi0wLjEyNjI4MTcsMC4yMjk5MTk0LTAuMjA0NTI4OGMyLjIwNDA0MDUsMy4wNzc4MTk4LDUuNzY4NDkzNyw0Ljk0ODY2OTQsOS42MTQ4MDcxLDQuOTQ4NjY5NCAgYzYuNTI4MzIwMywwLDExLjgzOTg0MzgtNS4zMTU0Mjk3LDExLjgzOTg0MzgtMTEuODQ5NjA5NHMtNS4zMTE1MjM0LTExLjg1MDU4NTktMTEuODM5ODQzOC0xMS44NTA1ODU5ICBjLTYuNTA4OTExMSwwLTExLjgwNDkzMTYsNS4yNzYxODQxLTExLjg0NTgyNTIsMTEuNzc1NjM0OGMtMS4xNzc0MjkyLDAuNDE4MDI5OC0yLjE3NTU5ODEsMC44MzQzNTA2LTIuNjEzMTU5MiwxLjE3MDY1NDMgIGMtMS42NTcyMjY2LDEuMjcxNDg0NC0xLjk3MDcwMzEsMy42NTQyOTY5LTAuNjk4MjQyMiw1LjMxMjVDMTUuNTkyNzczNCw0MS44Nzc5Mjk3LDE2LjcxODc1LDQyLjM4NzY5NTMsMTcuODU3NDIxOSw0Mi4zODc2OTUzeiAgIE0zMC4wMDQ4ODI4LDI0LjY0OTQxNDFjNS40MjU3ODEzLDAsOS44Mzk4NDM4LDQuNDE4OTQ1Myw5LjgzOTg0MzgsOS44NTA1ODU5YzAsNS40MzA2NjQxLTQuNDE0MDYyNSw5Ljg0OTYwOTQtOS44Mzk4NDM4LDkuODQ5NjA5NCAgYy0zLjM3NzA3NTIsMC02LjQ4MzgyNTctMS43NDEzOTQtOC4yNzkyMzU4LTQuNTYwOTEzMWMxLjIzMDI4NTYtMS42NjU3NzE1LDIuNjkwMDYzNS0zLjk2MjIxOTIsMy40MzgxNzE0LTUuMTYyODQxOCAgYzAuMDY2OTU1NiwyLjYxNTg0NDcsMi4yMDQ0Njc4LDQuNzI1NzA4LDQuODM2MTgxNiw0LjcyNTcwOGMyLjY3MzgyODEsMCw0Ljg0ODYzMjgtMi4xNzQ4MDQ3LDQuODQ4NjMyOC00Ljg0ODYzMjggIFMzMi42NzM4MjgxLDI5LjY1NDI5NjksMzAsMjkuNjU0Mjk2OWMtMi4wOTI5NTY1LDAtMy44NjM0NjQ0LDEuMzQwMDg3OS00LjU0MTE5ODcsMy4yMDE0MTYgIGMtMC4yNDkxNDU1LTAuMzAwODQyMy0wLjY0NTYyOTktMC40MzYzNDAzLTEuMDI2MTg0MS0wLjMzMzI1MmMtMC42MDY4NzI2LDAuMTYyNTk3Ny0yLjQwMTA2MiwwLjY1MjIyMTctNC4yMzkzMTg4LDEuMjI3NzIyMiAgQzIwLjU3ODg1NzQsMjguNjY4NzAxMiwyNC44MjcyNzA1LDI0LjY0OTQxNDEsMzAuMDA0ODgyOCwyNC42NDk0MTQxeiBNMjcuMTUxMzY3MiwzNC41MDI5Mjk3ICBjMC0xLjU3MDMxMjUsMS4yNzgzMjAzLTIuODQ4NjMyOCwyLjg0ODYzMjgtMi44NDg2MzI4czIuODQ4NjMyOCwxLjI3ODMyMDMsMi44NDg2MzI4LDIuODQ4NjMyOCAgUzMxLjU3MDMxMjUsMzcuMzUxNTYyNSwzMCwzNy4zNTE1NjI1UzI3LjE1MTM2NzIsMzYuMDczMjQyMiwyNy4xNTEzNjcyLDM0LjUwMjkyOTd6IE0xNi43NjM2NzE5LDM3LjE4MTY0MDYgIGMwLjUwOTc2NTYtMC4zOTE2MDE2LDIuOTg5MjU3OC0xLjIzMzM5ODQsNS42OTYyODkxLTIuMDI3MzQzOGMtMS40MTQwNjI1LDIuMTg5NDUzMS0yLjk2Nzc3MzQsNC40NDE0MDYzLTMuNTE3NTc4MSw0Ljg2NTIzNDQgIGMtMC43ODEyNSwwLjU5ODYzMjgtMS45MDgyMDMxLDAuNDUyMTQ4NC0yLjUwODc4OTEtMC4zMjkxMDE2QzE1LjgzMzAwNzgsMzguOTA3MjI2NiwxNS45ODA0Njg4LDM3Ljc4MjIyNjYsMTYuNzYzNjcxOSwzNy4xODE2NDA2eiIvPjwvc3ZnPg==;fontSize=24;fontStyle=1" parent="1" vertex="1">
                    <mxGeometry x="1643" y="-60" width="77.08" height="100" as="geometry"/>
                </mxCell>
                <mxCell id="R7Ilkwoh4phyt-hekFA_-22" value="Network" style="shape=image;verticalLabelPosition=bottom;labelBackgroundColor=#ffffff;verticalAlign=top;aspect=fixed;imageAspect=0;image=data:image/svg+xml,PHN2ZyB4bWxucz0iaHR0cDovL3d3dy53My5vcmcvMjAwMC9zdmciIGhlaWdodD0iNjAiIHdpZHRoPSI2MCIgZmlsbD0iIzAwMDAwMCIgdmlld0JveD0iMiAyIDYwIDYwIiB4PSIwcHgiIHk9IjBweCI+PGcgZGF0YS1uYW1lPSJjb21wdXRlciBuZXR3b3JrIj48cGF0aCBkPSJNNDEsMTZINTdhMywzLDAsMCwwLDMtM1Y1YTMsMywwLDAsMC0zLTNINDFhMywzLDAsMCwwLTMsM3Y4QTMsMywwLDAsMCw0MSwxNlpNNDAsNWExLDEsMCwwLDEsMS0xSDU3YTEsMSwwLDAsMSwxLDF2OGExLDEsMCwwLDEtMSwxSDQxYTEsMSwwLDAsMS0xLTFaIi8+PHBhdGggZD0iTTU5LDQwSDU2VjM2YTEsMSwwLDAsMC0xLTFINDIuNTc0YTEwLjc3NiwxMC43NzYsMCwwLDAsMC02SDQ5YTEsMSwwLDAsMCwxLTFWMjJoOC41YTMuMDE2LDMuMDE2LDAsMCwwLDIuODgtMi4xNmwuNDU1LTEuNTZhMSwxLDAsMCwwLS45Ni0xLjI4SDUxYTEsMSwwLDAsMC0xLDFINDhhMSwxLDAsMCwwLTEtMUgzNy4xMjVhMSwxLDAsMCwwLS45NiwxLjI4bC40NTUsMS41NkEzLjAxNiwzLjAxNiwwLDAsMCwzOS41LDIySDQ4djVINDEuNzg2YTEwLjk4LDEwLjk4LDAsMCwwLTE5LjU3MiwwSDlWMTkuOTYxYzIuNTYzLS4xOTMsNS0xLjEzNyw1LTIuOTYxVjVjMC0yLjA2MS0zLjExLTMtNi0zUzIsMi45MzksMiw1VjE3YzAsMS44MjQsMi40MzcsMi43NjgsNSwyLjk2MVYyOGExLDEsMCwwLDAsMSwxSDIxLjQyNmExMC43NzYsMTAuNzc2LDAsMCwwLDAsNkgxM2ExLDEsMCwwLDAtMSwxdjZINWEzLDMsMCwwLDAtMywzVjU1YTMsMywwLDAsMCwzLDNIOC43OTFsLS42NzYsMi43NjJBMSwxLDAsMCwwLDkuMDg3LDYyaDcuODI2YTEsMSwwLDAsMCwuOTcyLTEuMjM4TDE3LjIwOSw1OEgyMWEzLDMsMCwwLDAsMy0zVjQ1YTMsMywwLDAsMC0zLTNIMTRWMzdoOC4yMTRhMTAuOTgsMTAuOTgsMCwwLDAsMTkuNTcyLDBINTR2M0g1MWEzLDMsMCwwLDAtMywzVjU5YTMsMywwLDAsMCwzLDNoOGEzLDMsMCwwLDAsMy0zVjQzQTMsMywwLDAsMCw1OSw0MFpNNTIsMTloNy41NDJsLS4wODIuMjhhMS4wMDYsMS4wMDYsMCwwLDEtLjk2LjcySDUxQTEsMSwwLDAsMCw1MiwxOVpNMzkuNSwyMGExLjAwNiwxLjAwNiwwLDAsMS0uOTYtLjcyTDM4LjQ1OCwxOUg0NmExLDEsMCwwLDAsMSwxWk04LDRjMi4zNDgsMCwzLjcxOC42NzMsMy45NzUsMUMxMS43MTgsNS4zMjcsMTAuMzQ4LDYsOCw2UzQuMjgyLDUuMzI3LDQuMDI1LDVDNC4yODIsNC42NzMsNS42NTIsNCw4LDRaTTQsNy4zMDVBMTAuODQ0LDEwLjg0NCwwLDAsMCw4LDhhMTAuODU4LDEwLjg1OCwwLDAsMCw0LS43VjguOTUzQzExLjg1Miw5LjI1NywxMC40NjgsMTAsOCwxMGMtMi40ODQsMC0zLjg3NC0uNzU0LTQtMVptMCw0QTEwLjg0NCwxMC44NDQsMCwwLDAsOCwxMmExMC44NDYsMTAuODQ2LDAsMCwwLDQuMDA1LS43VjEyLjk1QzExLjg2MywxMy4yNTIsMTAuNDc2LDE0LDgsMTRzLTMuODc0LS43NTQtNC0xWk00LDE3di0xLjdBMTAuODQ0LDEwLjg0NCwwLDAsMCw4LDE2YTEwLjg0MiwxMC44NDIsMCwwLDAsNC4wMDgtLjd2MS42NDRDMTEuODc0LDE3LjI0NiwxMC40ODQsMTgsOCwxOFM0LjEyNiwxNy4yNDYsNCwxN1pNMTUuNjM5LDYwSDEwLjM2MWwuNDktMmg0LjNaTTIxLDU2SDVhMSwxLDAsMCwxLTEtMVY1NEgyMnYxQTEsMSwwLDAsMSwyMSw1NlptMS0xMXY3SDRWNDVhMSwxLDAsMCwxLDEtMUgyMUExLDEsMCwwLDEsMjIsNDVaTTQwLjk0MSwzMUgzOC4zMDVhMTcuNjI5LDE3LjYyOSwwLDAsMC0uNy00LjIxLDEwLjk4NywxMC45ODcsMCwwLDAsMS4xMi0uNzU2QTguOTYsOC45NiwwLDAsMSw0MC45NDEsMzFaTTMzLDIzLjI5YTUuNTI2LDUuNTI2LDAsMCwxLDIuMDY3LDIuNUE4LjksOC45LDAsMCwxLDMzLDI2LjI3M1ptMy41MjEuOTRjLjIzMi4xMzYuNDU4LjI4LjY3Ni40MzYtLjEwOS4wNzctLjIxNy4xNTctLjMyOS4yMjlDMzYuNzU3LDI0LjY2NiwzNi42NDIsMjQuNDQzLDM2LjUyMSwyNC4yM1pNMzEsMjMuMjl2Mi45ODJhOC44NDgsOC44NDgsMCwwLDEtMi4wNjctLjQ4NEE1LjUyNiw1LjUyNiwwLDAsMSwzMSwyMy4yOVpNMjcuMTMyLDI0LjljLS4xMTItLjA3Mi0uMjItLjE1Mi0uMzI5LS4yMjkuMjE4LS4xNTYuNDQ0LS4zLjY3Ni0uNDM2QzI3LjM1OCwyNC40NDMsMjcuMjQzLDI0LjY2NiwyNy4xMzIsMjQuOVpNMzEsMjguMjg3VjMxSDI3LjdhMTUuNTg0LDE1LjU4NCwwLDAsMSwuNTM5LTMuMzM5QTEwLjksMTAuOSwwLDAsMCwzMSwyOC4yODdaTTMxLDMzdjIuNzEzYTEwLjksMTAuOSwwLDAsMC0yLjc2Ni42MjZBMTUuNTg0LDE1LjU4NCwwLDAsMSwyNy43LDMzWm0wLDQuNzI4VjQwLjcxYTUuNTI2LDUuNTI2LDAsMCwxLTIuMDY3LTIuNUE4Ljg0OCw4Ljg0OCwwLDAsMSwzMSwzNy43MjhaTTI3LjQ3OSwzOS43N2MtLjIzMi0uMTM2LS40NTgtLjI4LS42NzYtLjQzNi4xMDktLjA3Ny4yMTctLjE1Ny4zMjktLjIyOUMyNy4yNDMsMzkuMzM0LDI3LjM1OCwzOS41NTcsMjcuNDc5LDM5Ljc3Wk0zMyw0MC43MVYzNy43MjdhOC45LDguOSwwLDAsMSwyLjA2Ny40ODVBNS41MjYsNS41MjYsMCwwLDEsMzMsNDAuNzFaTTM2Ljg2OCwzOS4xYy4xMTIuMDcyLjIyLjE1Mi4zMjkuMjI5LS4yMTguMTU2LS40NDQuMy0uNjc2LjQzNkMzNi42NDIsMzkuNTU3LDM2Ljc1NywzOS4zMzQsMzYuODY4LDM5LjFaTTMzLDM1LjcxM1YzM2gzLjMwNWExNS41ODQsMTUuNTg0LDAsMCwxLS41MzksMy4zMzlBMTAuOSwxMC45LDAsMCwwLDMzLDM1LjcxM1pNMzMsMzFWMjguMjg3YTEwLjksMTAuOSwwLDAsMCwyLjc2Ni0uNjI2QTE1LjU4NCwxNS41ODQsMCwwLDEsMzYuMzA1LDMxWm0tNy43Mi00Ljk2NmExMC45ODcsMTAuOTg3LDAsMCwwLDEuMTIuNzU2QTE3LjYyOSwxNy42MjksMCwwLDAsMjUuNywzMUgyMy4wNTlBOC45Niw4Ljk2LDAsMCwxLDI1LjI4LDI2LjAzNFpNMjMuMDU5LDMzSDI1LjdhMTcuNjI5LDE3LjYyOSwwLDAsMCwuNyw0LjIxLDEwLjk4NywxMC45ODcsMCwwLDAtMS4xMi43NTZBOC45Niw4Ljk2LDAsMCwxLDIzLjA1OSwzM1pNMzguNzIsMzcuOTY2YTEwLjk4NywxMC45ODcsMCwwLDAtMS4xMi0uNzU2LDE3LjYyOSwxNy42MjksMCwwLDAsLjctNC4yMWgyLjYzNkE4Ljk2LDguOTYsMCwwLDEsMzguNzIsMzcuOTY2Wk01Nyw0MmExLDEsMCwwLDEtMSwxSDU0YTEsMSwwLDAsMS0xLTFabTMsMTdhMSwxLDAsMCwxLTEsMUg1MWExLDEsMCwwLDEtMS0xVjQzYTEsMSwwLDAsMSwxLTEsMywzLDAsMCwwLDMsM2gyYTMsMywwLDAsMCwzLTMsMSwxLDAsMCwxLDEsMVoiLz48L2c+PC9zdmc+;fontSize=24;fontStyle=1" parent="1" vertex="1">
                    <mxGeometry x="1753" y="-60" width="100" height="100" as="geometry"/>
                </mxCell>
                <mxCell id="R7Ilkwoh4phyt-hekFA_-38" value="&lt;span&gt;They Manage&lt;/span&gt;" style="rounded=1;whiteSpace=wrap;html=1;fontSize=24;fillColor=#d5e8d4;strokeColor=#82b366;shadow=1;fontStyle=1" parent="1" vertex="1">
                    <mxGeometry x="380" y="134" width="1640" height="70" as="geometry"/>
                </mxCell>
                <mxCell id="R7Ilkwoh4phyt-hekFA_-40" value="You&lt;br&gt;Manage" style="rounded=1;whiteSpace=wrap;html=1;fontSize=24;fillColor=#f8cecc;strokeColor=#b85450;shadow=1;fontStyle=1" parent="1" vertex="1">
                    <mxGeometry x="206" y="135" width="164" height="70" as="geometry"/>
                </mxCell>
                <mxCell id="R7Ilkwoh4phyt-hekFA_-43" value="Configuration" style="shape=image;verticalLabelPosition=bottom;labelBackgroundColor=#ffffff;verticalAlign=top;aspect=fixed;imageAspect=0;image=data:image/svg+xml,PHN2ZyB4bWxucz0iaHR0cDovL3d3dy53My5vcmcvMjAwMC9zdmciIGhlaWdodD0iMjYiIHdpZHRoPSIyOCIgZmlsbD0iIzAwMDAwMCIgdmlld0JveD0iMiAzIDI4IDI2IiB4PSIwcHgiIHk9IjBweCI+PHRpdGxlPkFydGJvYXJkIDE1PC90aXRsZT48ZyBkYXRhLW5hbWU9IkxheWVyIDIiPjxwYXRoIGQ9Ik0yOS4yNSwxNi43NUgxNC4wNnYtMS41SDI5LjI1YS43NS43NSwwLDAsMSwwLDEuNVoiLz48cGF0aCBkPSJNNy41NiwxNi43NUgyLjc1YS43NS43NSwwLDAsMSwwLTEuNUg3LjU2WiIvPjxwYXRoIGQ9Ik0yOS4yNSw3Ljc1aC01VjYuMjVoNWEuNzUuNzUsMCwwLDEsMCwxLjVaIi8+PHBhdGggZD0iTTE3Ljc1LDcuNzVoLTE1YS43NS43NSwwLDAsMSwwLTEuNWgxNVoiLz48cGF0aCBkPSJNMTcuNzUsMjUuNzVoLTE1YS43NS43NSwwLDAsMSwwLTEuNWgxNVoiLz48cGF0aCBkPSJNMjkuMjUsMjUuNzVoLTV2LTEuNWg1YS43NS43NSwwLDAsMSwwLDEuNVoiLz48cGF0aCBkPSJNMjMuMDYsMTFIMTguOTRBMS45NCwxLjk0LDAsMCwxLDE3LDkuMDZWNC45NEExLjk0LDEuOTQsMCwwLDEsMTguOTQsM2g0LjEzQTEuOTQsMS45NCwwLDAsMSwyNSw0Ljk0VjkuMDZBMS45NCwxLjk0LDAsMCwxLDIzLjA2LDExWk0xOC45NCw0LjVhLjQ0LjQ0LDAsMCwwLS40NC40NFY5LjA2YS40NC40NCwwLDAsMCwuNDQuNDRoNC4xM2EuNDQuNDQsMCwwLDAsLjQ0LS40NFY0Ljk0YS40NC40NCwwLDAsMC0uNDQtLjQ0WiIvPjxwYXRoIGQ9Ik0yMy4wNiwyOUgxOC45NEExLjk0LDEuOTQsMCwwLDEsMTcsMjcuMDZWMjIuOTRBMS45NCwxLjk0LDAsMCwxLDE4Ljk0LDIxaDQuMTNBMS45NCwxLjk0LDAsMCwxLDI1LDIyLjk0djQuMTNBMS45NCwxLjk0LDAsMCwxLDIzLjA2LDI5Wm0tNC4xMi02LjVhLjQ0LjQ0LDAsMCwwLS40NC40NHY0LjEzYS40NC40NCwwLDAsMCwuNDQuNDRoNC4xM2EuNDQuNDQsMCwwLDAsLjQ0LS40NFYyMi45NGEuNDQuNDQsMCwwLDAtLjQ0LS40NFoiLz48cGF0aCBkPSJNMTIuODcsMjBIOC43NWExLjk0LDEuOTQsMCwwLDEtMS45NC0xLjk0VjEzLjk0QTEuOTQsMS45NCwwLDAsMSw4Ljc1LDEyaDQuMTJhMS45NCwxLjk0LDAsMCwxLDEuOTQsMS45NHY0LjEzQTEuOTQsMS45NCwwLDAsMSwxMi44NywyMFpNOC43NSwxMy41YS40NC40NCwwLDAsMC0uNDQuNDR2NC4xM2EuNDQuNDQsMCwwLDAsLjQ0LjQ0aDQuMTJhLjQ0LjQ0LDAsMCwwLC40NC0uNDRWMTMuOTRhLjQ0LjQ0LDAsMCwwLS40NC0uNDRaIi8+PC9nPjwvc3ZnPg==;fontSize=24;fontStyle=1" parent="1" vertex="1">
                    <mxGeometry x="230" y="-54.04999999999997" width="100" height="92.86" as="geometry"/>
                </mxCell>
                <mxCell id="R7Ilkwoh4phyt-hekFA_-44" value="You Manage" style="rounded=1;whiteSpace=wrap;html=1;fontSize=24;fillColor=#f8cecc;strokeColor=#b85450;shadow=1;fontStyle=1" parent="1" vertex="1">
                    <mxGeometry x="206" y="298" width="444" height="70" as="geometry"/>
                </mxCell>
                <mxCell id="R7Ilkwoh4phyt-hekFA_-45" value="&lt;span&gt;They Manage&lt;/span&gt;" style="rounded=1;whiteSpace=wrap;html=1;fontSize=24;fillColor=#d5e8d4;strokeColor=#82b366;shadow=1;fontStyle=1" parent="1" vertex="1">
                    <mxGeometry x="660" y="298" width="1360" height="70" as="geometry"/>
                </mxCell>
                <mxCell id="R7Ilkwoh4phyt-hekFA_-46" value="You Manage" style="rounded=1;whiteSpace=wrap;html=1;fontSize=24;fillColor=#f8cecc;strokeColor=#b85450;shadow=1;fontStyle=1" parent="1" vertex="1">
                    <mxGeometry x="206" y="429.65" width="594" height="70" as="geometry"/>
                </mxCell>
                <mxCell id="R7Ilkwoh4phyt-hekFA_-47" value="&lt;span&gt;They Manage&lt;/span&gt;" style="rounded=1;whiteSpace=wrap;html=1;fontSize=24;fillColor=#d5e8d4;strokeColor=#82b366;shadow=1;fontStyle=1" parent="1" vertex="1">
                    <mxGeometry x="810" y="429.65" width="1210" height="70" as="geometry"/>
                </mxCell>
                <mxCell id="R7Ilkwoh4phyt-hekFA_-57" value="Functions" style="shape=image;verticalLabelPosition=bottom;labelBackgroundColor=#ffffff;verticalAlign=top;aspect=fixed;imageAspect=0;image=data:image/svg+xml,PHN2ZyB4bWxucz0iaHR0cDovL3d3dy53My5vcmcvMjAwMC9zdmciIHhtbG5zOnhsaW5rPSJodHRwOi8vd3d3LnczLm9yZy8xOTk5L3hsaW5rIiBoZWlnaHQ9IjIxIiB3aWR0aD0iMTcuMzk5OTk5NjE4NTMwMjczIiBmaWxsPSIjMDAwMDAwIiB2aWV3Qm94PSI0LjAwMDQwMDA2NjM3NTczMiAwLjk5OTgwMDAyNjQxNjc3ODYgMTcuMzk5OTk5NjE4NTMwMjczIDIxIiB2ZXJzaW9uPSIxLjEiIHg9IjBweCIgeT0iMHB4Ij48dGl0bGU+aWNvbi9mdW5jdGlvbi1zb2xpZDwvdGl0bGU+PGRlc2M+Q3JlYXRlZCB3aXRoIFNrZXRjaC48L2Rlc2M+PGcgc3Ryb2tlPSJub25lIiBzdHJva2Utd2lkdGg9IjEiIGZpbGw9Im5vbmUiIGZpbGwtcnVsZT0iZXZlbm9kZCI+PHBhdGggZD0iTTIxLjQwMDQsMTAuNzk5OCBMMTkuNzk5NCw5LjU5OTggTDE3LjAwMDQsMTMuMzMyOCBMMTQuNTAwNCw5Ljk5OTggTDEwLjMzNzQsOS45OTk4IEwxMS43OTU0LDMuMDc3OCBDMTEuODE0NCwyLjk4NzggMTIuMDAwNCwyLjk4OTggMTIuMDAwNCwzLjA5OTggTDEyLjAwMDQsMy40OTk4IEwxNC4wMDA0LDMuNDk5OCBMMTQuMDAwNCwzLjA5OTggQzE0LjAwMDQsMS45NDE4IDEzLjA1ODQsMC45OTk4IDExLjg5MjQsMC45OTk4IEMxMC45MDQ0LDAuOTk5OCAxMC4wNDA0LDEuNzAwOCA5LjgzNzQsMi42NjY4IEw4LjI5NDQsOS45OTk4IEw2LjAwMDQsOS45OTk4IEw2LjAwMDQsMTEuOTk5OCBMNy44NzM0LDExLjk5OTggTDYuMjA1NCwxOS45MjE4IEM2LjE4NTQsMjAuMDExOCA2LjAwMDQsMjAuMDA5OCA2LjAwMDQsMTkuOTAwOCBMNi4wMDA0LDE5LjQ5OTggTDQuMDAwNCwxOS40OTk4IEw0LjAwMDQsMTkuOTAwOCBDNC4wMDA0LDIxLjA1ODggNC45NDE0LDIxLjk5OTggNi4xMDc0LDIxLjk5OTggQzcuMDk1NCwyMS45OTk4IDcuOTYwNCwyMS4yOTg4IDguMTYyNCwyMC4zMzI4IEw5LjkxNjQsMTEuOTk5OCBMMTMuNTAwNCwxMS45OTk4IEwxNS41OTk0LDE0Ljc5OTggTDE1Ljc1MDQsMTQuOTk5OCBMMTIuNTk5NCwxOS4xOTk4IEwxNC4yMDA0LDIwLjQwMDggTDE3LjAwMDQsMTYuNjY2OCBMMTkuNzk5NCwyMC40MDA4IEwyMS40MDA0LDE5LjE5OTggTDE4LjI1MDQsMTQuOTk5OCBMMjEuNDAwNCwxMC43OTk4IFoiIGZpbGw9IiMwMDAwMDAiLz48L2c+PC9zdmc+;fontSize=24;fontStyle=1" parent="1" vertex="1">
                    <mxGeometry x="404" y="-60" width="80.95" height="100" as="geometry"/>
                </mxCell>
                <mxCell id="R7Ilkwoh4phyt-hekFA_-58" value="You Manage" style="rounded=1;whiteSpace=wrap;html=1;fontSize=24;fillColor=#f8cecc;strokeColor=#b85450;shadow=1;fontStyle=1" parent="1" vertex="1">
                    <mxGeometry x="206" y="591.6" width="1024" height="70" as="geometry"/>
                </mxCell>
                <mxCell id="R7Ilkwoh4phyt-hekFA_-59" value="&lt;span&gt;They Manage&lt;/span&gt;" style="rounded=1;whiteSpace=wrap;html=1;fontSize=24;fillColor=#d5e8d4;strokeColor=#82b366;shadow=1;fontStyle=1" parent="1" vertex="1">
                    <mxGeometry x="1240" y="591.6" width="780" height="70" as="geometry"/>
                </mxCell>
                <mxCell id="R7Ilkwoh4phyt-hekFA_-61" value="You Manage" style="rounded=1;whiteSpace=wrap;html=1;fontSize=24;fillColor=#f8cecc;strokeColor=#b85450;shadow=1;fontStyle=1" parent="1" vertex="1">
                    <mxGeometry x="206" y="765" width="1164" height="70" as="geometry"/>
                </mxCell>
                <mxCell id="R7Ilkwoh4phyt-hekFA_-62" value="They Manage" style="rounded=1;whiteSpace=wrap;html=1;fontSize=24;fillColor=#d5e8d4;strokeColor=#82b366;shadow=1;fontStyle=1" parent="1" vertex="1">
                    <mxGeometry x="1380" y="765" width="640" height="70" as="geometry"/>
                </mxCell>
                <mxCell id="R7Ilkwoh4phyt-hekFA_-63" value="You Manage" style="rounded=1;whiteSpace=wrap;html=1;fontSize=24;fillColor=#f8cecc;strokeColor=#b85450;shadow=1;fontStyle=1" parent="1" vertex="1">
                    <mxGeometry x="206" y="947" width="1304" height="70" as="geometry"/>
                </mxCell>
                <mxCell id="R7Ilkwoh4phyt-hekFA_-69" value="Clusters &amp;&#10;Scaling" style="shape=image;verticalLabelPosition=bottom;labelBackgroundColor=#ffffff;verticalAlign=top;aspect=fixed;imageAspect=0;image=data:image/svg+xml,PHN2ZyB4bWxucz0iaHR0cDovL3d3dy53My5vcmcvMjAwMC9zdmciIHhtbG5zOnhsaW5rPSJodHRwOi8vd3d3LnczLm9yZy8xOTk5L3hsaW5rIiBoZWlnaHQ9Ijk2IiB3aWR0aD0iNzQuNjEyNzkyOTY4NzUiIGZpbGw9IiMwMDAwMDAiIHZpZXdCb3g9IjEzLjM4NzIwNzAzMTI1IDEgNzQuNjEyNzkyOTY4NzUgOTYiIHZlcnNpb249IjEuMSIgeD0iMHB4IiB5PSIwcHgiPjx0aXRsZT5TbGljZSAxPC90aXRsZT48ZGVzYz5DcmVhdGVkIHdpdGggU2tldGNoLjwvZGVzYz48ZGVmcz48Y2lyY2xlIGlkPSJlIiBjeD0iNTAiIGN5PSIxMCIgcj0iNyIvPjxwYXRoIGlkPSJkIiBkPSJNNzAuMDAwMDg5MiwxLjAwMDEyMDczIEM3MC4wMDAwODkyLDEuMDAwMTIwNzMgNjkuODI0OTE4NSwwLjc5NzQ0NjczOSA4NS4wMDAwNzE0LDE3LjAwMDA5ODEiLz48Y2lyY2xlIGlkPSJjIiBjeD0iODUiIGN5PSIxOCIgcj0iMyIvPjxjaXJjbGUgaWQ9ImIiIGN4PSIxOCIgY3k9IjE0IiByPSIzIi8+PHBhdGggaWQ9ImEiIGQ9Ik01Ni44OTYzODY0LDIyLjc0NDQ4MDggQzU2Ljg5NjM4NjQsMjIuNzQ0NDgwOCA2Ny41ODMxNDAzLDIzLjY4NTYwODUgNjguMzU3MTA3MiwyNC4xNzczNDc5IEM2OS4xMzEwNzQxLDI0LjY2OTA4NzMgNjkuNDQxNjA5LDI2LjM5OTAyODMgNzAuMzUxOTc2NywyNy40NTc2NDg4IEM3MS4yNjIzNDQzLDI4LjUxNjI2OTMgNzIuNjA4OTE3MiwyOS4xMjE1NjI3IDcyLjYwODkxNzIsMjkuMTIxNTYyNyBDNzIuNjA4OTE3MiwyOS4xMjE1NjI3IDc0LjU1ODAyMjMsMjkuNzExNzE0OCA3Ni4wOTI2MDQ4LDI5LjM1NzMxNTIgQzc3LjYyNzE4NzMsMjkuMDAyOTE1NiA3OC40MTU4NSwyOC4zNTc5MTc2IDc4Ljk1MTkxNzcsMjcuNjU2Njk3MyBDNzkuNDg3OTg1NCwyNi45NTU0NzcxIDgwLjc0NTM0NDUsMjMuMDk1NTIxNSA4MC43NDUzNDQ1LDIzLjA5NTUyMTUgQzgwLjc0NTM0NDUsMjMuMDk1NTIxNSA4MC43MDIzMTc5LDIxLjIyODc5NDYgODMuNTIzMDA0NywyMi43MjUxODc4IEM4Ni4zNDM2OTE1LDI0LjIyMTU4MSA4Ni4zODcyMDcsMjQuNjY5MDg3MiA4Ni4zODcyMDcsMjQuNjY5MDg3MiBDODYuMzg3MjA3LDI0LjY2OTA4NzIgODUuOTg2NTYsMjYuNTg1ODEyNyA4NS45ODY1NiwyOC4wMzMwMTUzIEM4NS45ODY1NiwyOS4zMjYxMjUgODUuODAyMjAxNiwzMC43Mjc1ODM2IDg1LjI0ODA2NDEsMzIuMDM4NzI0NCBDODQuODY0NDIxNCwzMi45NDY0NTg4IDgzLjg2Nzg3NDUsMzQuMjAwMDI4MSA4My41MjMwMDQ3LDM0LjQ2OTEyMDggQzgzLjUyMzAwNDcsMzQuNDY5MTIwNiA4Mi4zMjMxNjQ3LDM1LjQ1ODgxMDQgODEuMzg4NzU3MiwzNS44MjY5MTYzIEM4MS4yNDI2OTM5LDM1LjkxOTU1MzMgNzguMzg4ODY2NywzNi45MTk3NDU4IDc4LjM4ODg2NjcsMzYuOTE5NzQ1OCBMNzQuNTU0ODkyOSwzNy45MDIyODUxIEw2OC4yOTg5MjM1LDM4LjczODk0NzYgTDY1Ljg2OTM4NzYsNTQuOTk4ODEyNCBMNjYuMTQxNzM0LDgzLjAwNDEzMDMgQzY2LjE0MTczNCw4My4wMDQxMzAzIDY2LjcxMzE1NzMsODcuMzM2OTU5MSA2Mi42NTMwMzg3LDkxLjA0NTAwNjYgQzU4LjU5MjkyLDk0Ljc1MzA1NCA1Mi43OTU2NTgzLDk0Ljc2NzU3ODcgNTIuNzk1NjU4Myw5NC43Njc1Nzg3IEw0OS4yODQxMDEzLDY3LjM2MDk5NjQgTDQ3Ljk2NTMyMzEsOTcgQzQ3Ljk2NTMyMzEsOTcgMzcuODM2ODMxNyw5MS42OTUyMjk4IDM1LjM3NjczMTcsODkuMDI1NzU4MSBDMzIuOTE2NjMxNyw4Ni4zNTYyODY0IDMzLjIxMTM4NSw4MS4xOTUwNjk1IDMzLjIxMTM4NSw4MS4xOTUwNjk1IEwzNC4xNzg4MzIxLDUzLjg2MTkzIEwyOC45OTMxNDkzLDM3LjE3OTAyODQgQzI4Ljk5MzE0OTMsMzcuMTc5MDI4NCAyNi4zNzg1MjA3LDM2Ljg1OTg0NzUgMjMuMzAwOTI2MSwzNi4wOTU3OTAyIEMyMC4yMjMzMzE1LDM1LjMzMTczMjkgMTcuNzA3NDY5OSwzNC40NjkxMjA4IDE3LjcwNzQ2OTksMzQuNDY5MTIwOCBDMTcuNzA3NDY5OSwzNC40NjkxMjA4IDE1Ljk0ODQ1NjcsMzMuNjcwODgwOSAxNS41MDE4NjY1LDMzLjI5MjE3MDUgQzE0Ljk0NTUyMSwzMi44MjAzODcxIDE0LjA2MjIzNzEsMzEuOTUzNTY1MiAxMy43NDAyMjA3LDMwLjY3NjMwNTggQzEzLjQxODIwNDMsMjkuMzk5MDQ2NCAxMy4zODcyMDcsMjEuNzcxMzU0NyAxMy4zODcyMDcsMjEuNzcxMzU0NyBDMTMuMzg3MjA3LDIxLjc3MTM1NDcgMTQuMDEyMjU0NSwxOS45Nzc2NTIzIDE1LjkxNTUwODUsMTkuMjk2MTg4NiBDMTcuODE4NzYyNSwxOC42MTQ3MjUgMjAuMjI2NDgwMiwxOS4zMjI1NDAyIDIwLjIyNjQ4MDIsMTkuMzIyNTQwMiBMMjAuMjU5NzI4LDIyLjM4OTIwNTEgQzIwLjI1OTcyOCwyMi4zODkyMDUxIDIwLjI1OTcyOCwyNS4zODEzNTU2IDIwLjg4MDE5MTEsMjYuMTI1MDExOCBDMjAuODgwMTkxMSwyNi4xMjUwMTE4IDIxLjU2MTI4MjYsMjYuODQyNjIxOSAyMS41NjEyODI2LDI2LjgwNTkxNzggQzIxLjY5ODk1NSwyNi44MTU3MDI3IDIwLjU3NDUwOTUsMjYuNTQyMzYyMSAyMS45NzQyOTk3LDI2LjgzNTI3MjUgQzIzLjM3NDA5LDI3LjEyODE4MjkgMjUuMDIzOTQ1NywyNy4wNTIwMjI3IDI1LjAyMzk0NTcsMjcuMDUyMDIyNyBDMjUuMDIzOTQ1NywyNy4wNTIwMjI3IDI2LjY2ODM4NzEsMjcuMDc2Mzk4OCAyNy4xNzcyMzEzLDI2Ljg0MjYyMTggQzI3Ljk0OTgyNiwyNi40ODc2NzA2IDMwLjE3NzM1ODYsMjQuMjIxNTgwOSAzMC4xNzczNTg2LDI0LjIyMTU4MDkgTDMxLjYxMDM2ODksMjIuNzI1MTg3OCBDMzEuNjEwMzY4OSwyMi43MjUxODc4IDMxLjgzNTY3NDIsMjIuNTA1MTc5OCAzMi43MjIyNTczLDIyLjM4OTIwNTIgQzMzLjYwODg0MDQsMjIuMjczMjMwNiAzNC4xNzg4MzIxLDIyLjM4OTIwNTIgMzQuMTc4ODMyMSwyMi4zODkyMDUyIEwzNy4wMTc3NTY3LDIyLjM4OTIwNTIgTDQwLjI0MTE4MTgsMjIuNzI1MTg3NyBDNDAuMjQxMTgxOCwyMi43MjUxODc3IDQxLjI2NTQwMzgsMjEuNDk4MjU0OCA0My43OTYyNTQ0LDIwLjY2ODM1MjkgQzQ2LjMyNzEwNSwxOS44Mzg0NTExIDQ3LjMzMjc0MjgsMTkuNDA3NTg4NSA0OS4yODQxMDEzLDE5LjMyMjU0MDIgQzUxLjIzNTQ1OTgsMTkuMjM3NDkxOSA1MS40MDI5NzQ0LDE5LjIxNDAyNjQgNTMuNDgxOTg2OCwxOS45OTYxNTQ5IEM1NS41NjA5OTkxLDIwLjc3ODI4MzMgNTYuODk2Mzg2NCwyMi43NDQ0ODA4IDU2Ljg5NjM4NjQsMjIuNzQ0NDgwOCBaIi8+PC9kZWZzPjxnIHN0cm9rZT0ibm9uZSIgc3Ryb2tlLXdpZHRoPSIxIiBmaWxsPSJub25lIiBmaWxsLXJ1bGU9ImV2ZW5vZGQiPjxnPjxnPjxtYXNrIGZpbGw9IiMwMDAwMDAiPjx1c2UgeGxpbms6aHJlZj0iI2UiLz48L21hc2s+PHVzZSBzdHJva2U9IiMwMDAwMDAiIGZpbGw9IiMwMDAwMDAiIHhsaW5rOmhyZWY9IiNlIi8+PG1hc2sgZmlsbD0iIzAwMDAwMCI+PHVzZSB4bGluazpocmVmPSIjZCIvPjwvbWFzaz48dXNlIHN0cm9rZT0iIzAwMDAwMCIgc3Ryb2tlLWxpbmVjYXA9InNxdWFyZSIgeGxpbms6aHJlZj0iI2QiLz48bWFzayBmaWxsPSIjMDAwMDAwIj48dXNlIHhsaW5rOmhyZWY9IiNjIi8+PC9tYXNrPjx1c2Ugc3Ryb2tlPSIjMDAwMDAwIiBmaWxsPSIjMDAwMDAwIiB4bGluazpocmVmPSIjYyIvPjxtYXNrIGZpbGw9IiMwMDAwMDAiPjx1c2UgeGxpbms6aHJlZj0iI2IiLz48L21hc2s+PHVzZSBzdHJva2U9IiMwMDAwMDAiIGZpbGw9IiMwMDAwMDAiIHhsaW5rOmhyZWY9IiNiIi8+PG1hc2sgZmlsbD0iIzAwMDAwMCI+PHVzZSB4bGluazpocmVmPSIjYSIvPjwvbWFzaz48dXNlIHN0cm9rZT0iIzAwMDAwMCIgZmlsbD0iIzAwMDAwMCIgeGxpbms6aHJlZj0iI2EiLz48L2c+PC9nPjwvZz48L3N2Zz4=;fontSize=24;fontStyle=1" parent="1" vertex="1">
                    <mxGeometry x="1270" y="-70" width="78.13" height="100" as="geometry"/>
                </mxCell>
                <mxCell id="R7Ilkwoh4phyt-hekFA_-70" value="Colocation" style="shape=image;verticalLabelPosition=bottom;labelBackgroundColor=#ffffff;verticalAlign=top;aspect=fixed;imageAspect=0;image=data:image/svg+xml,PHN2ZyB4bWxucz0iaHR0cDovL3d3dy53My5vcmcvMjAwMC9zdmciIHhtbG5zOnhsaW5rPSJodHRwOi8vd3d3LnczLm9yZy8xOTk5L3hsaW5rIiBoZWlnaHQ9IjI5OS4yMTQwMTk3NzUzOTA2IiB3aWR0aD0iMjY0LjU5MjA0MTAxNTYyNSIgZmlsbD0iIzAwMDAwMCIgdmVyc2lvbj0iMS4xIiB4PSIwcHgiIHk9IjBweCIgdmlld0JveD0iLTAuMDAwMDI1NTQ0ODAxMjQ2NzI0MDkgMCAyNjQuNTkyMDQxMDE1NjI1IDI5OS4yMTQwMTk3NzUzOTA2IiBzdHlsZT0iZW5hYmxlLWJhY2tncm91bmQ6bmV3IDAgMCAyNjQuNTkyIDI5OS4yMTU7IiB4bWw6c3BhY2U9InByZXNlcnZlIj48Zz48cG9seWdvbiBwb2ludHM9IjEzNy4wOSw4IDI1Ni41OSw4IDI1Ni41OSwyNzAgMTM3LjA5LDI3MCAxMzcuMDksMjA1Ljk0NyAxMjkuMDksMjA1Ljk0NyAxMjkuMDksMjc4IDI2NC41OTIsMjc4IDI2NC41OTIsMCAgICAxMjkuMDksMCAxMjkuMDksMTE1Ljk0NyAxMzcuMDksMTE1Ljk0NyAgIi8+PHBhdGggZD0iTTI0NS41OSwxOS40MTdoLTk3LjV2MThoOTcuNVYxOS40MTd6IE0xODcuMzQsMzEuNzVoLTMyLjc1di03aDMyLjc1VjMxLjc1eiBNMjE3LjU5LDMxLjc1aC03di03aDdWMzEuNzV6IE0yMjguODQsMzEuNzUgICBoLTd2LTdoN1YzMS43NXogTTI0MC4wOSwzMS43NWgtN3YtN2g3VjMxLjc1eiIvPjxwYXRoIGQ9Ik0yNDUuNTksNjguNTY1aC05Ny41djE4aDk3LjVWNjguNTY1eiBNMTg3LjM0LDgwLjg5OWgtMzIuNzV2LTdoMzIuNzVWODAuODk5eiBNMjE3LjU5LDgwLjg5OWgtN3YtN2g3VjgwLjg5OXogICAgTTIyOC44NCw4MC44OTloLTd2LTdoN1Y4MC44OTl6IE0yNDAuMDksODAuODk5aC03di03aDdWODAuODk5eiIvPjxwYXRoIGQ9Ik0xNjkuMjksMTIzLjA0NmgxOC4wNXY3aC0xOC4wNXY1LjY2N2g3Ni4zdi0xOGgtNzYuM1YxMjMuMDQ2eiBNMjMzLjA5LDEyMy4wNDZoN3Y3aC03VjEyMy4wNDZ6IE0yMjEuODQsMTIzLjA0Nmg3djdoLTcgICBWMTIzLjA0NnogTTIxMC41OSwxMjMuMDQ2aDd2N2gtN1YxMjMuMDQ2eiIvPjxwYXRoIGQ9Ik0xNjkuMjksMTQ3LjYyMWgxOC4wNXY3aC0xOC4wNXY1LjY2Nmg3Ni4zdi0xOGgtNzYuM1YxNDcuNjIxeiBNMjMzLjA5LDE0Ny42MjFoN3Y3aC03VjE0Ny42MjF6IE0yMjEuODQsMTQ3LjYyMWg3djdoLTcgICBWMTQ3LjYyMXogTTIxMC41OSwxNDcuNjIxaDd2N2gtN1YxNDcuNjIxeiIvPjxwYXRoIGQ9Ik0xNjkuMjksMTcyLjE5NWgxOC4wNXY3aC0xOC4wNXY1LjY2Nmg3Ni4zdi0xOGgtNzYuM1YxNzIuMTk1eiBNMjMzLjA5LDE3Mi4xOTVoN3Y3aC03VjE3Mi4xOTV6IE0yMjEuODQsMTcyLjE5NWg3djdoLTcgICBWMTcyLjE5NXogTTIxMC41OSwxNzIuMTk1aDd2N2gtN1YxNzIuMTk1eiIvPjxwYXRoIGQ9Ik0xNjkuMjksMTk2Ljc2OWgxOC4wNXY3aC0xOC4wNXYyLjE3OGgtMjEuMnYzLjQ4OGg5Ny41di0xOGgtNzYuM1YxOTYuNzY5eiBNMjMzLjA5LDE5Ni43NjloN3Y3aC03VjE5Ni43Njl6ICAgIE0yMjEuODQsMTk2Ljc2OWg3djdoLTdWMTk2Ljc2OXogTTIxMC41OSwxOTYuNzY5aDd2N2gtN1YxOTYuNzY5eiIvPjxwYXRoIGQ9Ik0xNDguMDksMjM0LjAwOWg5Ny41di0xOGgtOTcuNVYyMzQuMDA5eiBNMjMzLjA5LDIyMS4zNDJoN3Y3aC03VjIyMS4zNDJ6IE0yMjEuODQsMjIxLjM0Mmg3djdoLTdWMjIxLjM0MnogICAgTTIxMC41OSwyMjEuMzQyaDd2N2gtN1YyMjEuMzQyeiBNMTU0LjU5LDIyMS4zNDJoMzIuNzV2N2gtMzIuNzVWMjIxLjM0MnoiLz48cGF0aCBkPSJNMTQ4LjA5LDI1OC41ODNoOTcuNXYtMThoLTk3LjVWMjU4LjU4M3ogTTIzMy4wOSwyNDUuOTE3aDd2N2gtN1YyNDUuOTE3eiBNMjIxLjg0LDI0NS45MTdoN3Y3aC03VjI0NS45MTd6ICAgIE0yMTAuNTksMjQ1LjkxN2g3djdoLTdWMjQ1LjkxN3ogTTE1NC41OSwyNDUuOTE3aDMyLjc1djdoLTMyLjc1VjI0NS45MTd6Ii8+PHBhdGggZD0iTTk3LjI0NCwxNTQuOTQ4aDAuMDA0aDAuMDk4YzAuMTg0LDAsMC4zNTktMC4wMDIsMC41MzMtMC4wMDR2LTIwLjI5Nmg0OS42NjJsMC4wMDIsMzAuOTk4aC0zNS44NzcgICBjLTAuMTcsMS45NDctMC45MDgsMy44MDEtMi4xNTgsNS4zNjFjLTAuOTgxLDEuMjIyLTIuMjEyLDIuMTY4LTMuNTk0LDIuODA3aDQ5LjEzdi00LjY2NmgtM3YtMzlIOTMuMzc3djI0LjU3OSAgIEM5NC41OTYsMTU0Ljg2OSw5NS45MjYsMTU0Ljk0OCw5Ny4yNDQsMTU0Ljk0OHoiLz48cG9seWdvbiBwb2ludHM9IjE1OS44NzgsMTc4Ljk4MSA3Ny42ODYsMTc4Ljk4MSA3Ny42ODYsMTg4Ljg1MSA3Ny42ODYsMTkwLjQ4MSAxNTkuODc4LDE5MC40ODEgICIvPjxwYXRoIGQ9Ik0xMDkuMTM3LDE1OC4wNjNjMC42NjQsMC43MzksMS4yMTcsMS41ODEsMS42NCwyLjVoMzEuOTM0di02Ljc1aC0zOS43NXYxLjAyM2MxLjMyNiwwLjE2NiwyLjU3MiwwLjU5LDMuNjg4LDEuMjI2aDIyLjMxMiAgIHYySDEwOS4xMzd6Ii8+PHBhdGggZD0iTTc0LjYzOSw5My41MzJjMC0xMi40MjYtMTAuMDc0LTIyLjUtMjIuNS0yMi41Yy0xMi40MjQsMC0yMi40OTgsMTAuMDc0LTIyLjQ5OCwyMi41YzAsNi45MDEsMy4xMDksMTMuMDcyLDgsMTcuMTk5aDI4Ljk5OCAgIEM3MS41MjksMTA2LjYwNCw3NC42MzksMTAwLjQzMyw3NC42MzksOTMuNTMyeiIvPjxwYXRoIGQ9Ik0xOS41OTQsMTUxLjIyNmMtMS45NTctMS41MTUtMi43ODctMi44MjItMy4yMDItMy44NTVsLTAuMDAxLDBjLTAuMDAyLTAuMDA0LTAuMDAyLTAuMDA3LTAuMDA0LTAuMDExICAgYy0wLjI2Ni0wLjY5NC0wLjM4NS0xLjM1LTAuMzg5LTIuMTMxYy0wLjAxLTEuMzgzLDAuNDU5LTMuMjE3LDEuNTI1LTUuMjI3YzAuOTYzLTEuODU5LDIuNDMtMy43OTUsNC4wNy01LjUxNHYxNTIuMzYzICAgYzAsNi44Myw1LjUzNywxMi4zNjMsMTIuMzYzLDEyLjM2M2M2LjgyOCwwLDEyLjM2My01LjUzMywxMi4zNjMtMTIuMzYzdi05MC4yNzFoNC42MzV2OTAuMjcxYzAsNi44Myw1LjUzNywxMi4zNjMsMTIuMzYzLDEyLjM2MyAgIGM2LjgyOCwwLDEyLjM2NS01LjUzMywxMi4zNjUtMTIuMzYzVjE2Ni4wOWMzLjM4MSwzLjM3MSw3LjM5Myw0LjgxLDEwLjkzMiw1LjcwMWM0LjAyOSwwLjk2Myw3LjgxNiwxLjE0NywxMC43MzEsMS4xNTcgICBjMi45NzUtMC4wMDIsNS4wMTktMC4yMjMsNS4yMy0wLjI0NmM0LjM5NC0wLjQ4Miw3LjU2My00LjQzNCw3LjA4LTguODI1Yy0wLjQ4NC00LjM5Mi00LjQzOC03LjU2Mi04LjgzLTcuMDc4ICAgYy0wLjE4LDAuMDE3LTEuNTg2LDAuMTQ4LTMuNDgsMC4xNDhjLTIuMTA0LDAuMDA2LTQuODQtMC4xODQtNi45ODEtMC43MTFjLTIuMTk5LTAuNDg3LTMuNDQ1LTEuNC0zLjQ0OS0xLjUyMSAgIGMtMS40MS0xLjcxOS0yLjQ4LTQuNDAyLTMuMDg0LTcuODg5Yy0wLjk0NS01LjIyNS0wLjcwMy0xMS42Ny0wLjk1MS0xNy41MTJjLTAuMTg0LTIuOTczLTAuMzI4LTUuODAxLTEuNjU0LTkuMTM5ICAgYy0wLjY4OC0xLjY0NS0xLjgyNC0zLjU2MS0zLjgyMi01LjEwMmMtMS45NzUtMS41NjMtNC42ODYtMi4zNS02Ljk1My0yLjMwOWMtMC4zODksMC0wLjc2OCwwLjAzNy0xLjE0MSwwLjA5ICAgYy0wLjQzOS0wLjA3OC0wLjg5MS0wLjEyNS0xLjM1NS0wLjEyNUgyOS4zMjJjLTAuNjA2LDAtMS4xOTIsMC4wNzYtMS43NTgsMC4yMDhjLTMuMDc4LDAuNDIzLTUuNTU1LDEuNTk1LTguMTEzLDMuMDAzICAgYy00LjU1MSwyLjY0MS05LjAyOSw2LjUwNC0xMi43MzgsMTEuMzczYy0zLjY0MSw0Ljg1NS02LjY2LDEwLjgzLTYuNzEzLDE3LjkxNGMtMC4wMDQsMi41OTgsMC40NTMsNS4zMiwxLjQ3OCw3LjkzNiAgIGMwLDAsMCwwLjAwMSwwLDAuMDAxbDAsMGMyLjAwMyw1LjE5MSw2LjA5OCw5LjY2MiwxMS42ODQsMTMuMDI4YzEuOTQzLDEuMTc2LDQuMDksMi4yNDIsNi40MzIsMy4yMTdWMTUxLjIyNnoiLz48L2c+PC9zdmc+;fontSize=24;fontStyle=1" parent="1" vertex="1">
                    <mxGeometry x="75.69000000000005" y="1090" width="88.63" height="100" as="geometry"/>
                </mxCell>
                <mxCell id="R7Ilkwoh4phyt-hekFA_-71" value="Data Center" style="shape=image;verticalLabelPosition=bottom;labelBackgroundColor=#ffffff;verticalAlign=top;aspect=fixed;imageAspect=0;image=data:image/svg+xml,PHN2ZyB4bWxucz0iaHR0cDovL3d3dy53My5vcmcvMjAwMC9zdmciIGhlaWdodD0iNDg2LjAxMDc3MjcwNTA3ODEiIHdpZHRoPSI0NzQiIGZpbGw9IiMwMDAwMDAiIGRhdGEtbmFtZT0iTGF5ZXIgMSIgdmlld0JveD0iMTkgMTMgNDc0IDQ4Ni4wMTA3NzI3MDUwNzgxIiB4PSIwcHgiIHk9IjBweCI+PHRpdGxlPlNldmVyX3Jvb208L3RpdGxlPjxwYXRoIGQ9Ik0xOTgsNzFoNzhhNiw2LDAsMCwwLDYtNlYzN2E2LDYsMCwwLDAtNi02SDE5OGE2LDYsMCwwLDAtNiw2VjY1QTYsNiwwLDAsMCwxOTgsNzFabTYtMjhoNjZWNTlIMjA0WiIvPjxwYXRoIGQ9Ik00MjAuMjUsMjkwaDQ4LjU0YTYuMzkyLDYuMzkyLDAsMCwwLDYuMjEtNi4yNFYyNDguMTlhNi4zNDcsNi4zNDcsMCwwLDAtNi4yMS02LjE5SDQ2MnYtOS41MmExNy41NCwxNy41NCwwLDAsMC01LjAzMy0xMi42NTMsMTcuMDQ0LDE3LjA0NCwwLDAsMC0xMi4zNTQtNS4yNzdBMTcuNjgyLDE3LjY4MiwwLDAsMCw0MjcsMjMyLjQ4VjI0MmgtNi43NWE2LjM4Miw2LjM4MiwwLDAsMC02LjI1LDYuMTl2MzUuNTdBNi40MjcsNi40MjcsMCwwLDAsNDIwLjI1LDI5MFpNNDM5LDIzMi40OGE1Ljc2NSw1Ljc2NSwwLDAsMSw1LjcyNS01LjkzLDUuMTUzLDUuMTUzLDAsMCwxLDMuODYsMS43NjJBNS41NzIsNS41NzIsMCwwLDEsNDUwLDIzMi40OFYyNDJINDM5Wk00MjYsMjU0aDM3djI0SDQyNloiLz48cGF0aCBkPSJNNjcsNzkuOTJhNiw2LDAsMCwwLTYsNnYzLjQxYTYsNiwwLDAsMCwxMiwwVjg1LjkyQTYsNiwwLDAsMCw2Nyw3OS45MloiLz48cGF0aCBkPSJNNjcsMTAyLjMzYTYsNiwwLDAsMC02LDZWMjA3LjhhNiw2LDAsMCwwLDEyLDBWMTA4LjMzQTYsNiwwLDAsMCw2NywxMDIuMzNaIi8+PHBhdGggZD0iTTE1OC4yODIsMzMwLjFhOSw5LDAsMCwwLDUuNTE3LDEuOTI4LDguNCw4LjQsMCwwLDAsNS45MzQtMi40MzksOC42Myw4LjYzLDAsMCwwLC42NTQtMTEuNDU3LDYuMDEsNi4wMSwwLDAsMC0xLjEzLTEuMTQsOC41NTUsOC41NTUsMCwwLDAtMTIuMDc1LDEyQTYuMDMyLDYuMDMyLDAsMCwwLDE1OC4yODIsMzMwLjFaIi8+PHBhdGggZD0iTTE4Mi40ODEsMzMwLjEwN2E5LjAwOSw5LjAwOSwwLDAsMCw1LjUxMywxLjkyMSw4LjQsOC40LDAsMCwwLDUuOTQ0LTIuNDQ1LDguNjMxLDguNjMxLDAsMCwwLC42NDktMTEuNDUsNi4wMSw2LjAxLDAsMCwwLTEuMTMtMS4xNCw4LjU1OSw4LjU1OSwwLDAsMC0xMi4wOTQsMTEuOTg1QTYuMDA3LDYuMDA3LDAsMCwwLDE4Mi40ODEsMzMwLjEwN1oiLz48cGF0aCBkPSJNMjA2LjY4MSwzMzAuMTA3YTkuMDA5LDkuMDA5LDAsMCwwLDUuNTEzLDEuOTIxLDguNCw4LjQsMCwwLDAsNS45NDQtMi40NDUsOC42MzEsOC42MzEsMCwwLDAsLjY0OS0xMS40NSw2LjAxLDYuMDEsMCwwLDAtMS4xMy0xLjE0LDguNTU5LDguNTU5LDAsMCwwLTEyLjA5NCwxMS45ODVBNi4wMDcsNi4wMDcsMCwwLDAsMjA2LjY4MSwzMzAuMTA3WiIvPjxwYXRoIGQ9Ik0xNTguMjgyLDI2Mi41MzFhOSw5LDAsMCwwLDUuNTE3LDEuOTI4LDguNCw4LjQsMCwwLDAsNS45NC0yLjQ0NCw4LjYxOSw4LjYxOSwwLDAsMCwuNjQxLTExLjQ1MSw2LjAyMiw2LjAyMiwwLDAsMC0xLjExMS0xLjEyMiw4LjU1MSw4LjU1MSwwLDAsMC0xMi4wODEsMTEuOTg1QTYuMDE5LDYuMDE5LDAsMCwwLDE1OC4yODIsMjYyLjUzMVoiLz48cGF0aCBkPSJNMTgyLjQ4MSwyNjIuNTM4QTkuMDExLDkuMDExLDAsMCwwLDE4OCwyNjQuNDU5YTguNDA2LDguNDA2LDAsMCwwLDUuOTUtMi40NTEsOC42Miw4LjYyLDAsMCwwLC42MzUtMTEuNDQ0LDYuMDIyLDYuMDIyLDAsMCwwLTEuMTExLTEuMTIyLDguNTU1LDguNTU1LDAsMCwwLTEyLjEsMTEuOTc0QTYuMDIyLDYuMDIyLDAsMCwwLDE4Mi40ODEsMjYyLjUzOFoiLz48cGF0aCBkPSJNMjA2LjY4MSwyNjIuNTM4YTkuMDExLDkuMDExLDAsMCwwLDUuNTE0LDEuOTIxLDguNDA2LDguNDA2LDAsMCwwLDUuOTUtMi40NTEsOC42Miw4LjYyLDAsMCwwLC42MzUtMTEuNDQ0LDYuMDIyLDYuMDIyLDAsMCwwLTEuMTExLTEuMTIyLDguNTU1LDguNTU1LDAsMCwwLTEyLjEsMTEuOTc0QTYuMDIyLDYuMDIyLDAsMCwwLDIwNi42ODEsMjYyLjUzOFoiLz48cGF0aCBkPSJNMTU4LjI4MiwxOTQuOTcxQTksOSwwLDAsMCwxNjMuOCwxOTYuOWE4LjQsOC40LDAsMCwwLDUuOTM1LTIuNDM5QTguNjMyLDguNjMyLDAsMCwwLDE3MC4zODcsMTgzYTYuMDA3LDYuMDA3LDAsMCwwLTEuMTE4LTEuMTI5LDguNTU0LDguNTU0LDAsMCwwLTEyLjA4NywxMS45ODVBNS45NzYsNS45NzYsMCwwLDAsMTU4LjI4MiwxOTQuOTcxWiIvPjxwYXRoIGQ9Ik0xODIuNDgxLDE5NC45NzhhOS4wMTQsOS4wMTQsMCwwLDAsNS41MTMsMS45Miw4LjQsOC40LDAsMCwwLDUuOTQ0LTIuNDQ1QTguNjMyLDguNjMyLDAsMCwwLDE5NC41ODcsMTgzYTYuMDA3LDYuMDA3LDAsMCwwLTEuMTE4LTEuMTI5LDguNTU4LDguNTU4LDAsMCwwLTEyLjEwNiwxMS45NzRBNi4wMTcsNi4wMTcsMCwwLDAsMTgyLjQ4MSwxOTQuOTc4WiIvPjxwYXRoIGQ9Ik0yMDYuNjgxLDE5NC45NzhhOS4wMTIsOS4wMTIsMCwwLDAsNS41MTMsMS45Miw4LjQsOC40LDAsMCwwLDUuOTQ0LTIuNDQ1QTguNjMyLDguNjMyLDAsMCwwLDIxOC43ODcsMTgzYTYuMDA3LDYuMDA3LDAsMCwwLTEuMTE4LTEuMTI5LDguNTU4LDguNTU4LDAsMCwwLTEyLjEwNiwxMS45NzRBNi4wMTcsNi4wMTcsMCwwLDAsMjA2LjY4MSwxOTQuOTc4WiIvPjxwYXRoIGQ9Ik0zNjMuMzU3LDMxNi45OTRhOC41NTksOC41NTksMCwwLDAtMTIuMDk0LDExLjk4NCw2LjAwNyw2LjAwNywwLDAsMCwxLjExOCwxLjEyOSw5LjAwOSw5LjAwOSwwLDAsMCw1LjUxMywxLjkyMSw4LjQsOC40LDAsMCwwLDUuOTQ0LTIuNDQ1LDguNjMxLDguNjMxLDAsMCwwLC42NDktMTEuNDVBNS45NzYsNS45NzYsMCwwLDAsMzYzLjM1NywzMTYuOTk0WiIvPjxwYXRoIGQ9Ik0zNjMuMzY5LDI0OS40NDJhOC41NTUsOC41NTUsMCwwLDAtMTIuMSwxMS45NzQsNi4wMjIsNi4wMjIsMCwwLDAsMS4xMTEsMS4xMjIsOS4wMTEsOS4wMTEsMCwwLDAsNS41MTQsMS45MjEsOC40MDYsOC40MDYsMCwwLDAsNS45NS0yLjQ1MSw4LjYyLDguNjIsMCwwLDAsLjYzNS0xMS40NDRBNi4wMjIsNi4wMjIsMCwwLDAsMzYzLjM2OSwyNDkuNDQyWiIvPjxwYXRoIGQ9Ik0zNjMuMzY5LDE4MS44NzNhOC41NTgsOC41NTgsMCwwLDAtMTIuMTA2LDExLjk3NCw2LjAxNyw2LjAxNywwLDAsMCwxLjExOCwxLjEzMSw5LjAxMiw5LjAxMiwwLDAsMCw1LjUxMywxLjkyLDguNCw4LjQsMCwwLDAsNS45NDQtMi40NDVBOC42MzIsOC42MzIsMCwwLDAsMzY0LjQ4NywxODMsNi4wMDcsNi4wMDcsMCwwLDAsMzYzLjM2OSwxODEuODczWiIvPjxwYXRoIGQ9Ik00ODYuODcsMTg4SDQzOFYxOC41MWMwLTMuMzE0LTMuMTE2LTUuNTEtNi40My01LjUxSDQxLjk2QzM4LjY0NiwxMywzNiwxNS4yLDM2LDE4LjUxVjQ1N0gyNS4xM2MtMy4zMTQsMC02LjEzLDMuMTc2LTYuMTMsNi40OXYzMGMwLDMuMzE0LDIuODE2LDUuNTEsNi4xMyw1LjUxSDQ0OC40YTUuMjY5LDUuMjY5LDAsMCwwLDUuNi01LjUxdi0zMGMwLTMuMzE0LTIuMjg2LTYuNDktNS42LTYuNDlINDM4VjMxOWg0OC44N2E1Ljk2MSw1Ljk2MSwwLDAsMCw2LjEzLTUuODJWMTkzLjgyQTUuOTYxLDUuOTYxLDAsMCwwLDQ4Ni44NywxODhaTTQ4LDI1SDQyNlYxODhINDAyLjE3YTYsNiwwLDAsMC02LjE3LDUuODJWMzEzLjE4YTYsNiwwLDAsMCw2LjE3LDUuODJINDI2VjQ1N0gzODVWODQuMjVBNi4zMyw2LjMzLDAsMCwwLDM3OC44Nyw3OEgxNDkuMDU2YTYsNiwwLDAsMCwwLDEySDM3M3YxOUgzMTYuOGE1Ljg1OCw1Ljg1OCwwLDAsMC01LjgsNi4wM1Y0MjVIMjgzVjExNS4wM2E2LjE3Myw2LjE3MywwLDAsMC02LjE3LTYuMDNIMTIyLjdhNS43NzcsNS43NzcsMCwwLDAtNS43LDYuMDNWNDI1SDEwMVY5MGgxOC4xNjJhNiw2LDAsMCwwLDAtMTJIOTQuNjdDOTEuMzU2LDc4LDg5LDgwLjkzNyw4OSw4NC4yNVY0NTdINDhaTTI3MSwxNDZ2MzZIMjYxVjE2NS42N2E1LjU1LDUuNTUsMCwwLDAtNS43OS01LjY3SDE0NC4zMmMtMy4zMTQsMC02LjMyLDIuMzU2LTYuMzIsNS42N1YxODJoLTlWMTQ2Wk0xMjksMTM0VjEyMUgyNzF2MTNabTEyMCwzOHYzM0gxNTBWMTcyWk0xMzgsMTk0djE3LjE4YzAsMy4zMTQsMy4wMDYsNS44Miw2LjMyLDUuODJIMjU1LjIxYTUuNjcyLDUuNjcyLDAsMCwwLDUuNzktNS44MlYxOTRoMTB2NTZIMjYxVjIzMy4yM2E2LjAyNiw2LjAyNiwwLDAsMC01Ljc5LTYuMjNIMTQ0LjMyYTYuNDgxLDYuNDgxLDAsMCwwLTYuMzIsNi4yM1YyNTBoLTlWMTk0Wm0xMTEsNDV2MzRIMTUwVjIzOVpNMTM4LDI2MnYxNi43NWE2LjUsNi41LDAsMCwwLDYuMzIsNi4yNUgyNTUuMjFhNi4wNDQsNi4wNDQsMCwwLDAsNS43OS02LjI1VjI2MmgxMHY1NkgyNjFWMzAwLjhhNS42NTYsNS42NTYsMCwwLDAtNS43OS01LjhIMTQ0LjMyYy0zLjMxNCwwLTYuMzIsMi40ODYtNi4zMiw1LjhWMzE4aC05VjI2MlptMTExLDQ1djMzSDE1MFYzMDdaTTEzOCwzMzB2MTYuMzFjMCwzLjMxNCwzLjAwNiw1LjY5LDYuMzIsNS42OUgyNTUuMjFhNS41NjYsNS41NjYsMCwwLDAsNS43OS01LjY5VjMzMGgxMHY5NUgxMjlWMzMwWk0zNzMsNDM3djIwSDEwMVY0MzdabS01MC0xMlYzMzBoOXYxNi4zMWMwLDMuMzE0LDMuMTA2LDUuNjksNi40Miw1LjY5SDM3M3Y3M1ptMjEtODVWMzA3aDI5djMzWm0tNS41OC00NWMtMy4zMTQsMC02LjQyLDIuNDg2LTYuNDIsNS44VjMxOGgtOVYyNjJoOXYxNi43NWE2LjU5LDYuNTksMCwwLDAsNi40Miw2LjI1SDM3M3YxMFpNMzQ0LDI3M1YyMzloMjl2MzRabS01LjU4LTQ2YTYuNTcyLDYuNTcyLDAsMCwwLTYuNDIsNi4yM1YyNTBoLTlWMTk0aDl2MTcuMThjMCwzLjMxNCwzLjEwNiw1LjgyLDYuNDIsNS44MkgzNzN2MTBaTTM0NCwyMDVWMTcyaDI5djMzWm0tNS41OC00NWMtMy4zMTQsMC02LjQyLDIuMzU2LTYuNDIsNS42N1YxODJoLTlWMTQ1aDUwdjE1Wk0zMjMsMTMzVjEyMWg1MHYxMlpNNDQyLDQ2OXYxOEgzMVY0NjlabTM5LTE2Mkg0MDhWMjAwaDczWiIvPjwvc3ZnPg==;fontSize=24;fontStyle=1" parent="1" vertex="1">
                    <mxGeometry x="1892" y="-61.190000000000005" width="97.53" height="100" as="geometry"/>
                </mxCell>
                <mxCell id="R7Ilkwoh4phyt-hekFA_-74" value="You Manage" style="rounded=1;whiteSpace=wrap;html=1;fontSize=24;fillColor=#f8cecc;strokeColor=#b85450;shadow=1;fontStyle=1" parent="1" vertex="1">
                    <mxGeometry x="206" y="1105" width="1654" height="70" as="geometry"/>
                </mxCell>
                <mxCell id="R7Ilkwoh4phyt-hekFA_-78" value="You Manage" style="rounded=1;whiteSpace=wrap;html=1;fontSize=24;fillColor=#f8cecc;strokeColor=#b85450;shadow=1;fontStyle=1" parent="1" vertex="1">
                    <mxGeometry x="206" y="1265" width="1814" height="70" as="geometry"/>
                </mxCell>
                <mxCell id="R7Ilkwoh4phyt-hekFA_-79" value="Hardware" style="shape=image;verticalLabelPosition=bottom;labelBackgroundColor=#ffffff;verticalAlign=top;aspect=fixed;imageAspect=0;image=data:image/svg+xml,PHN2ZyB4bWxucz0iaHR0cDovL3d3dy53My5vcmcvMjAwMC9zdmciIHhtbG5zOnhsaW5rPSJodHRwOi8vd3d3LnczLm9yZy8xOTk5L3hsaW5rIiBoZWlnaHQ9IjY0IiB3aWR0aD0iNDgiIGZpbGw9IiMwMDAwMDAiIHZlcnNpb249IjEuMSIgeD0iMHB4IiB5PSIwcHgiIHZpZXdCb3g9IjggMCA0OCA2NCIgc3R5bGU9ImVuYWJsZS1iYWNrZ3JvdW5kOm5ldyAwIDAgNjQgNjQ7IiB4bWw6c3BhY2U9InByZXNlcnZlIj48cGF0aCBjbGFzcz0iR3JhcGhpY194MDAyMF9TdHlsZV94MDAyMF8yIiBkPSJNNTYsMTdjMC0yLjEtMC4yLTQuMS0wLjctNi4xbC0yLTguNUM1MywxLDUxLjgsMCw1MC40LDBIMTMuNiAgYy0xLjQsMC0yLjYsMS0yLjksMi4zbC0yLDguNUM4LjIsMTIuOSw4LDE0LjksOCwxN3Y0NGMwLDEuNywxLjMsMywzLDNoNDJjMS43LDAsMy0xLjMsMy0zVjE3QzU2LDE3LDU2LDE3LDU2LDE3QzU2LDE3LDU2LDE3LDU2LDE3eiAgIE0xMi42LDIuOGMwLjEtMC41LDAuNS0wLjgsMS0wLjhoMzYuOGMwLjUsMCwwLjksMC4zLDEsMC44bDIsOC41YzAuMiwwLjksMC40LDEuOSwwLjUsMi44QzUzLjYsMTQuMSw1My4zLDE0LDUzLDE0SDExICBjLTAuMywwLTAuNiwwLjEtMC44LDAuMWMwLjEtMSwwLjMtMS45LDAuNS0yLjhMMTIuNiwyLjh6IE01Myw2MkgxMWMtMC42LDAtMS0wLjQtMS0xVjQwaDExYzAuNiwwLDEtMC40LDEtMXMtMC40LTEtMS0xSDEwVjI4aDggIGMwLjYsMCwxLTAuNCwxLTFzLTAuNC0xLTEtMWgtOHYtOWMwLTAuNiwwLjQtMSwxLTFoNDJjMC42LDAsMSwwLjQsMSwxdjlIMjdjLTAuNiwwLTEsMC40LTEsMXMwLjQsMSwxLDFoMjd2MTBIMjdjLTAuNiwwLTEsMC40LTEsMSAgczAuNCwxLDEsMWgyN3YxMEgxM2MtMC42LDAtMSwwLjQtMSwxczAuNCwxLDEsMWg0MXY5QzU0LDYxLjYsNTMuNiw2Miw1Myw2MnogTTQ4LDIzdi00YzAtMC42LDAuNC0xLDEtMXMxLDAuNCwxLDF2NCAgYzAsMC42LTAuNCwxLTEsMVM0OCwyMy42LDQ4LDIzeiBNNDQsMjN2LTRjMC0wLjYsMC40LTEsMS0xczEsMC40LDEsMXY0YzAsMC42LTAuNCwxLTEsMVM0NCwyMy42LDQ0LDIzeiBNNDAsMjN2LTRjMC0wLjYsMC40LTEsMS0xICBzMSwwLjQsMSwxdjRjMCwwLjYtMC40LDEtMSwxUzQwLDIzLjYsNDAsMjN6IE0zNiwyM3YtNGMwLTAuNiwwLjQtMSwxLTFzMSwwLjQsMSwxdjRjMCwwLjYtMC40LDEtMSwxUzM2LDIzLjYsMzYsMjN6IE0zMiwyM3YtNCAgYzAtMC42LDAuNC0xLDEtMXMxLDAuNCwxLDF2NGMwLDAuNi0wLjQsMS0xLDFTMzIsMjMuNiwzMiwyM3ogTTQ4LDM1di00YzAtMC42LDAuNC0xLDEtMXMxLDAuNCwxLDF2NGMwLDAuNi0wLjQsMS0xLDFTNDgsMzUuNiw0OCwzNSAgeiBNNDQsMzV2LTRjMC0wLjYsMC40LTEsMS0xczEsMC40LDEsMXY0YzAsMC42LTAuNCwxLTEsMVM0NCwzNS42LDQ0LDM1eiBNNDAsMzV2LTRjMC0wLjYsMC40LTEsMS0xczEsMC40LDEsMXY0YzAsMC42LTAuNCwxLTEsMSAgUzQwLDM1LjYsNDAsMzV6IE0zNiwzNXYtNGMwLTAuNiwwLjQtMSwxLTFzMSwwLjQsMSwxdjRjMCwwLjYtMC40LDEtMSwxUzM2LDM1LjYsMzYsMzV6IE0zMiwzNXYtNGMwLTAuNiwwLjQtMSwxLTFzMSwwLjQsMSwxdjQgIGMwLDAuNi0wLjQsMS0xLDFTMzIsMzUuNiwzMiwzNXogTTQ4LDQ3di00YzAtMC42LDAuNC0xLDEtMXMxLDAuNCwxLDF2NGMwLDAuNi0wLjQsMS0xLDFTNDgsNDcuNiw0OCw0N3ogTTQ0LDQ3di00YzAtMC42LDAuNC0xLDEtMSAgczEsMC40LDEsMXY0YzAsMC42LTAuNCwxLTEsMVM0NCw0Ny42LDQ0LDQ3eiBNNDAsNDd2LTRjMC0wLjYsMC40LTEsMS0xczEsMC40LDEsMXY0YzAsMC42LTAuNCwxLTEsMVM0MCw0Ny42LDQwLDQ3eiBNMzYsNDd2LTQgIGMwLTAuNiwwLjQtMSwxLTFzMSwwLjQsMSwxdjRjMCwwLjYtMC40LDEtMSwxUzM2LDQ3LjYsMzYsNDd6IE0zMiw0N3YtNGMwLTAuNiwwLjQtMSwxLTFzMSwwLjQsMSwxdjRjMCwwLjYtMC40LDEtMSwxUzMyLDQ3LjYsMzIsNDcgIHogTTUwLDU1djRjMCwwLjYtMC40LDEtMSwxcy0xLTAuNC0xLTF2LTRjMC0wLjYsMC40LTEsMS0xUzUwLDU0LjQsNTAsNTV6IE00Niw1NXY0YzAsMC42LTAuNCwxLTEsMXMtMS0wLjQtMS0xdi00YzAtMC42LDAuNC0xLDEtMSAgUzQ2LDU0LjQsNDYsNTV6IE00Miw1NXY0YzAsMC42LTAuNCwxLTEsMXMtMS0wLjQtMS0xdi00YzAtMC42LDAuNC0xLDEtMVM0Miw1NC40LDQyLDU1eiBNMzgsNTV2NGMwLDAuNi0wLjQsMS0xLDFzLTEtMC40LTEtMXYtNCAgYzAtMC42LDAuNC0xLDEtMVMzOCw1NC40LDM4LDU1eiBNMzQsNTV2NGMwLDAuNi0wLjQsMS0xLDFzLTEtMC40LTEtMXYtNGMwLTAuNiwwLjQtMSwxLTFTMzQsNTQuNCwzNCw1NXogTTM3LDVjMC0wLjYsMC40LTEsMS0xaDExICBjMC42LDAsMSwwLjQsMSwxcy0wLjQsMS0xLDFIMzhDMzcuNCw2LDM3LDUuNiwzNyw1eiBNMzcsOGMwLTAuNiwwLjQtMSwxLTFoMTFjMC42LDAsMSwwLjQsMSwxcy0wLjQsMS0xLDFIMzhDMzcuNCw5LDM3LDguNiwzNyw4eiAgIE0yMSwyMS41YzAsMC44LTAuNywxLjUtMS41LDEuNVMxOCwyMi4zLDE4LDIxLjVzMC43LTEuNSwxLjUtMS41UzIxLDIwLjcsMjEsMjEuNXogTTIyLDIxLjVjMC0wLjgsMC43LTEuNSwxLjUtMS41czEuNSwwLjcsMS41LDEuNSAgUzI0LjMsMjMsMjMuNSwyM1MyMiwyMi4zLDIyLDIxLjV6IE0xNywzMy41YzAsMC44LTAuNywxLjUtMS41LDEuNVMxNCwzNC4zLDE0LDMzLjVzMC43LTEuNSwxLjUtMS41UzE3LDMyLjcsMTcsMzMuNXogTTIxLDMzLjUgIGMwLDAuOC0wLjcsMS41LTEuNSwxLjVTMTgsMzQuMywxOCwzMy41czAuNy0xLjUsMS41LTEuNVMyMSwzMi43LDIxLDMzLjV6IE0yMiwzMy41YzAtMC44LDAuNy0xLjUsMS41LTEuNXMxLjUsMC43LDEuNSwxLjUgIFMyNC4zLDM1LDIzLjUsMzVTMjIsMzQuMywyMiwzMy41eiBNMTQsNDUuNWMwLTAuOCwwLjctMS41LDEuNS0xLjVzMS41LDAuNywxLjUsMS41UzE2LjMsNDcsMTUuNSw0N1MxNCw0Ni4zLDE0LDQ1LjV6IE0xOCw0NS41ICBjMC0wLjgsMC43LTEuNSwxLjUtMS41czEuNSwwLjcsMS41LDEuNVMyMC4zLDQ3LDE5LjUsNDdTMTgsNDYuMywxOCw0NS41eiBNMjIsNDUuNWMwLTAuOCwwLjctMS41LDEuNS0xLjVzMS41LDAuNywxLjUsMS41ICBTMjQuMyw0NywyMy41LDQ3UzIyLDQ2LjMsMjIsNDUuNXogTTE3LDU3LjVjMCwwLjgtMC43LDEuNS0xLjUsMS41UzE0LDU4LjMsMTQsNTcuNXMwLjctMS41LDEuNS0xLjVTMTcsNTYuNywxNyw1Ny41eiBNMjEsNTcuNSAgYzAsMC44LTAuNywxLjUtMS41LDEuNVMxOCw1OC4zLDE4LDU3LjVzMC43LTEuNSwxLjUtMS41UzIxLDU2LjcsMjEsNTcuNXogTTI1LDU3LjVjMCwwLjgtMC43LDEuNS0xLjUsMS41UzIyLDU4LjMsMjIsNTcuNSAgczAuNy0xLjUsMS41LTEuNVMyNSw1Ni43LDI1LDU3LjV6IE0xNywyMS41YzAsMC44LTAuNywxLjUtMS41LDEuNVMxNCwyMi4zLDE0LDIxLjVzMC43LTEuNSwxLjUtMS41UzE3LDIwLjcsMTcsMjEuNXoiLz48L3N2Zz4=;fontSize=24;fontStyle=1" parent="1" vertex="1">
                    <mxGeometry x="82.5" y="1250" width="75" height="100" as="geometry"/>
                </mxCell>
                <mxCell id="R7Ilkwoh4phyt-hekFA_-80" value="Hosting" style="shape=image;verticalLabelPosition=bottom;labelBackgroundColor=#ffffff;verticalAlign=top;aspect=fixed;imageAspect=0;image=data:image/svg+xml,PHN2ZyB4bWxucz0iaHR0cDovL3d3dy53My5vcmcvMjAwMC9zdmciIHhtbG5zOnhsaW5rPSJodHRwOi8vd3d3LnczLm9yZy8xOTk5L3hsaW5rIiBoZWlnaHQ9IjE2MiIgd2lkdGg9IjE2MiIgZmlsbD0iIzAwMDAwMCIgdmVyc2lvbj0iMS4xIiB4PSIwcHgiIHk9IjBweCIgdmlld0JveD0iMSAxIDE2MiAxNjIiIGVuYWJsZS1iYWNrZ3JvdW5kPSJuZXcgMCAwIDE2NCAxNjQiIHhtbDpzcGFjZT0icHJlc2VydmUiPjxnPjxnPjxwYXRoIGQ9Ik03OS43LDE0Ni4zYzAtMC42LTAuNC0xLTEtMUg1NC41Yy0wLjYsMC0xLDAuNC0xLDFjMCwwLjYsMC40LDEsMSwxaDI0LjJDNzkuMiwxNDcuMyw3OS43LDE0Ni44LDc5LjcsMTQ2LjN6Ii8+PC9nPjxnPjxwYXRoIGQ9Ik04Ny42LDE0Ni4zYzAtMC42LTAuNC0xLTEtMWgtNGMtMC42LDAtMSwwLjQtMSwxYzAsMC42LDAuNCwxLDEsMWg0Qzg3LjEsMTQ3LjMsODcuNiwxNDYuOCw4Ny42LDE0Ni4zeiIvPjwvZz48Zz48cGF0aCBkPSJNOTAsMTQ3LjNoMi42YzAuNiwwLDEtMC40LDEtMWMwLTAuNi0wLjQtMS0xLTFIOTBjLTAuNiwwLTEsMC40LTEsMUM4OSwxNDYuOCw4OS40LDE0Ny4zLDkwLDE0Ny4zeiIvPjwvZz48Zz48cGF0aCBkPSJNMTA5LjUsMTUwLjJIODUuM2MtMC42LDAtMSwwLjQtMSwxczAuNCwxLDEsMWgyNC4yYzAuNiwwLDEtMC40LDEtMVMxMTAuMSwxNTAuMiwxMDkuNSwxNTAuMnoiLz48L2c+PGc+PHBhdGggZD0iTTgxLjQsMTUwLjJoLTRjLTAuNiwwLTEsMC40LTEsMXMwLjQsMSwxLDFoNGMwLjYsMCwxLTAuNCwxLTFTODIsMTUwLjIsODEuNCwxNTAuMnoiLz48L2c+PGc+PHBhdGggZD0iTTc0LDE1MC4yaC0yLjZjLTAuNiwwLTEsMC40LTEsMXMwLjQsMSwxLDFINzRjMC42LDAsMS0wLjQsMS0xUzc0LjYsMTUwLjIsNzQsMTUwLjJ6Ii8+PC9nPjxnPjxwYXRoIGQ9Ik05OS44LDE5SDY0LjJjLTAuNiwwLTEsMC40LTEsMXY3LjVjMCwwLjYsMC40LDEsMSwxaDM1LjZjMC42LDAsMS0wLjQsMS0xVjIwQzEwMC44LDE5LjQsMTAwLjMsMTksOTkuOCwxOXogTTk4LjgsMjYuNSAgICBINjUuMlYyMWgzMy42VjI2LjV6Ii8+PC9nPjxnPjxwYXRoIGQ9Ik05OS44LDMyLjhINjQuMmMtMC42LDAtMSwwLjQtMSwxdjcuNWMwLDAuNiwwLjQsMSwxLDFoMzUuNmMwLjYsMCwxLTAuNCwxLTF2LTcuNUMxMDAuOCwzMy4zLDEwMC4zLDMyLjgsOTkuOCwzMi44eiAgICAgTTk4LjgsNDAuM0g2NS4ydi01LjVoMzMuNlY0MC4zeiIvPjwvZz48Zz48cGF0aCBkPSJNNjcuNCw0Ni4yYy0wLjYsMC0xLDAuNC0xLDF2MzMuM2MwLDAuNiwwLjQsMSwxLDFjMC42LDAsMS0wLjQsMS0xVjQ3LjJDNjguNCw0Ni42LDY3LjksNDYuMiw2Ny40LDQ2LjJ6Ii8+PC9nPjxnPjxwYXRoIGQ9Ik03Mi4zLDQ2LjJjLTAuNiwwLTEsMC40LTEsMXYzMy4zYzAsMC42LDAuNCwxLDEsMWMwLjYsMCwxLTAuNCwxLTFWNDcuMkM3My4zLDQ2LjYsNzIuOCw0Ni4yLDcyLjMsNDYuMnoiLz48L2c+PGc+PHBhdGggZD0iTTc4LjEsODAuNFY0Ny4yYzAtMC42LTAuNC0xLTEtMWMtMC42LDAtMSwwLjQtMSwxdjMzLjNjMCwwLjYsMC40LDEsMSwxQzc3LjcsODEuNCw3OC4xLDgxLDc4LjEsODAuNHoiLz48L2c+PGc+PHBhdGggZD0iTTgzLDgwLjRWNDcuMmMwLTAuNi0wLjQtMS0xLTFzLTEsMC40LTEsMXYzMy4zYzAsMC42LDAuNCwxLDEsMVM4Myw4MSw4Myw4MC40eiIvPjwvZz48Zz48cGF0aCBkPSJNODYuOSw0Ni4yYy0wLjYsMC0xLDAuNC0xLDF2MzMuM2MwLDAuNiwwLjQsMSwxLDFjMC42LDAsMS0wLjQsMS0xVjQ3LjJDODcuOSw0Ni42LDg3LjQsNDYuMiw4Ni45LDQ2LjJ6Ii8+PC9nPjxnPjxwYXRoIGQ9Ik05MS43LDQ2LjJjLTAuNiwwLTEsMC40LTEsMXYzMy4zYzAsMC42LDAuNCwxLDEsMWMwLjYsMCwxLTAuNCwxLTFWNDcuMkM5Mi43LDQ2LjYsOTIuMyw0Ni4yLDkxLjcsNDYuMnoiLz48L2c+PGc+PHBhdGggZD0iTTk2LjYsNDYuMmMtMC42LDAtMSwwLjQtMSwxdjMzLjNjMCwwLjYsMC40LDEsMSwxYzAuNiwwLDEtMC40LDEtMVY0Ny4yQzk3LjYsNDYuNiw5Ny4yLDQ2LjIsOTYuNiw0Ni4yeiIvPjwvZz48Zz48cGF0aCBkPSJNODIsODUuNGMtMi44LDAtNS4xLDIuMy01LjEsNS4xYzAsMi44LDIuMyw1LjEsNS4xLDUuMXM1LjEtMi4zLDUuMS01LjFDODcuMSw4Ny43LDg0LjgsODUuNCw4Miw4NS40eiBNODIsOTMuNiAgICBjLTEuNywwLTMuMS0xLjQtMy4xLTMuMWMwLTEuNywxLjQtMy4xLDMuMS0zLjFzMy4xLDEuNCwzLjEsMy4xQzg1LjEsOTIuMiw4My43LDkzLjYsODIsOTMuNnoiLz48L2c+PGc+PHBhdGggZD0iTTEyMi4xLDM1LjdjLTAuNiwwLTEsMC40LTEsMXY2LjFjMCwwLjYsMC40LDEsMSwxaDI4LjhjMC42LDAsMS0wLjQsMS0xdi02LjFjMC0wLjYtMC40LTEtMS0xSDEyMi4xeiBNMTQ5LjksNDEuOGgtMjYuOCAgICB2LTQuMWgyNi44VjQxLjh6Ii8+PC9nPjxnPjxwYXRoIGQ9Ik0xNTAuOSw0Ni45aC0yOC44Yy0wLjYsMC0xLDAuNC0xLDFWNTRjMCwwLjYsMC40LDEsMSwxaDI4LjhjMC42LDAsMS0wLjQsMS0xdi02LjFDMTUxLjksNDcuNCwxNTEuNCw0Ni45LDE1MC45LDQ2Ljl6ICAgICBNMTQ5LjksNTNoLTI2Ljh2LTQuMWgyNi44VjUzeiIvPjwvZz48Zz48cGF0aCBkPSJNMTI0LjYsNTcuN2MtMC42LDAtMSwwLjQtMSwxdjI2LjljMCwwLjYsMC40LDEsMSwxYzAuNiwwLDEtMC40LDEtMVY1OC43QzEyNS42LDU4LjIsMTI1LjIsNTcuNywxMjQuNiw1Ny43eiIvPjwvZz48Zz48cGF0aCBkPSJNMTI4LjYsNTcuN2MtMC42LDAtMSwwLjQtMSwxdjI2LjljMCwwLjYsMC40LDEsMSwxYzAuNiwwLDEtMC40LDEtMVY1OC43QzEyOS42LDU4LjIsMTI5LjEsNTcuNywxMjguNiw1Ny43eiIvPjwvZz48Zz48cGF0aCBkPSJNMTMzLjUsODUuN1Y1OC43YzAtMC42LTAuNC0xLTEtMWMtMC42LDAtMSwwLjQtMSwxdjI2LjljMCwwLjYsMC40LDEsMSwxQzEzMy4xLDg2LjcsMTMzLjUsODYuMiwxMzMuNSw4NS43eiIvPjwvZz48Zz48cGF0aCBkPSJNMTM3LjUsODUuN1Y1OC43YzAtMC42LTAuNC0xLTEtMWMtMC42LDAtMSwwLjQtMSwxdjI2LjljMCwwLjYsMC40LDEsMSwxQzEzNyw4Ni43LDEzNy41LDg2LjIsMTM3LjUsODUuN3oiLz48L2c+PGc+PHBhdGggZD0iTTE0MC40LDU3LjdjLTAuNiwwLTEsMC40LTEsMXYyNi45YzAsMC42LDAuNCwxLDEsMWMwLjYsMCwxLTAuNCwxLTFWNTguN0MxNDEuNCw1OC4yLDE0MSw1Ny43LDE0MC40LDU3Ljd6Ii8+PC9nPjxnPjxwYXRoIGQ9Ik0xNDQuNCw1Ny43Yy0wLjYsMC0xLDAuNC0xLDF2MjYuOWMwLDAuNiwwLjQsMSwxLDFjMC42LDAsMS0wLjQsMS0xVjU4LjdDMTQ1LjQsNTguMiwxNDQuOSw1Ny43LDE0NC40LDU3Ljd6Ii8+PC9nPjxnPjxwYXRoIGQ9Ik0xNDguMyw1Ny43Yy0wLjYsMC0xLDAuNC0xLDF2MjYuOWMwLDAuNiwwLjQsMSwxLDFjMC42LDAsMS0wLjQsMS0xVjU4LjdDMTQ5LjMsNTguMiwxNDguOSw1Ny43LDE0OC4zLDU3Ljd6Ii8+PC9nPjxnPjxwYXRoIGQ9Ik0xMzYuNSw4OS41Yy0yLjQsMC00LjMsMS45LTQuMyw0LjNjMCwyLjQsMS45LDQuMyw0LjMsNC4zYzIuNCwwLDQuMy0xLjksNC4zLTQuM0MxNDAuOCw5MS40LDEzOC45LDg5LjUsMTM2LjUsODkuNXogICAgIE0xMzYuNSw5Ni4xYy0xLjMsMC0yLjMtMS0yLjMtMi4zYzAtMS4zLDEtMi4zLDIuMy0yLjNjMS4zLDAsMi4zLDEsMi4zLDIuM0MxMzguOCw5NS4xLDEzNy44LDk2LjEsMTM2LjUsOTYuMXoiLz48L2c+PGc+PHBhdGggZD0iTTEzLjEsNDMuOGgyOC44YzAuNiwwLDEtMC40LDEtMXYtNi4xYzAtMC42LTAuNC0xLTEtMUgxMy4xYy0wLjYsMC0xLDAuNC0xLDF2Ni4xQzEyLjEsNDMuMywxMi42LDQzLjgsMTMuMSw0My44eiAgICAgTTE0LjEsMzcuN2gyNi44djQuMUgxNC4xVjM3Ljd6Ii8+PC9nPjxnPjxwYXRoIGQ9Ik0xMy4xLDU1aDI4LjhjMC42LDAsMS0wLjQsMS0xdi02LjFjMC0wLjYtMC40LTEtMS0xSDEzLjFjLTAuNiwwLTEsMC40LTEsMVY1NEMxMi4xLDU0LjUsMTIuNiw1NSwxMy4xLDU1eiBNMTQuMSw0OC45ICAgIGgyNi44VjUzSDE0LjFWNDguOXoiLz48L2c+PGc+PHBhdGggZD0iTTE1LjcsNTcuN2MtMC42LDAtMSwwLjQtMSwxdjI2LjljMCwwLjYsMC40LDEsMSwxYzAuNiwwLDEtMC40LDEtMVY1OC43QzE2LjcsNTguMiwxNi4yLDU3LjcsMTUuNyw1Ny43eiIvPjwvZz48Zz48cGF0aCBkPSJNMTkuNiw1Ny43Yy0wLjYsMC0xLDAuNC0xLDF2MjYuOWMwLDAuNiwwLjQsMSwxLDFjMC42LDAsMS0wLjQsMS0xVjU4LjdDMjAuNiw1OC4yLDIwLjIsNTcuNywxOS42LDU3Ljd6Ii8+PC9nPjxnPjxwYXRoIGQ9Ik0yNC42LDg1LjdWNTguN2MwLTAuNi0wLjQtMS0xLTFjLTAuNiwwLTEsMC40LTEsMXYyNi45YzAsMC42LDAuNCwxLDEsMUMyNC4xLDg2LjcsMjQuNiw4Ni4yLDI0LjYsODUuN3oiLz48L2c+PGc+PHBhdGggZD0iTTI4LjUsODUuN1Y1OC43YzAtMC42LTAuNC0xLTEtMWMtMC42LDAtMSwwLjQtMSwxdjI2LjljMCwwLjYsMC40LDEsMSwxQzI4LjEsODYuNywyOC41LDg2LjIsMjguNSw4NS43eiIvPjwvZz48Zz48cGF0aCBkPSJNMzEuNSw1Ny43Yy0wLjYsMC0xLDAuNC0xLDF2MjYuOWMwLDAuNiwwLjQsMSwxLDFjMC42LDAsMS0wLjQsMS0xVjU4LjdDMzIuNSw1OC4yLDMyLDU3LjcsMzEuNSw1Ny43eiIvPjwvZz48Zz48cGF0aCBkPSJNMzUuNCw1Ny43Yy0wLjYsMC0xLDAuNC0xLDF2MjYuOWMwLDAuNiwwLjQsMSwxLDFjMC42LDAsMS0wLjQsMS0xVjU4LjdDMzYuNCw1OC4yLDM2LDU3LjcsMzUuNCw1Ny43eiIvPjwvZz48Zz48cGF0aCBkPSJNMzkuNCw1Ny43Yy0wLjYsMC0xLDAuNC0xLDF2MjYuOWMwLDAuNiwwLjQsMSwxLDFjMC42LDAsMS0wLjQsMS0xVjU4LjdDNDAuNCw1OC4yLDM5LjksNTcuNywzOS40LDU3Ljd6Ii8+PC9nPjxnPjxwYXRoIGQ9Ik0yNy41LDg5LjVjLTIuNCwwLTQuMywxLjktNC4zLDQuM2MwLDAuNywwLjIsMS40LDAuNSwyYzAuNywxLjQsMi4yLDIuMywzLjgsMi4zYzIuNCwwLDQuMy0xLjksNC4zLTQuMyAgICBDMzEuOSw5MS40LDI5LjksODkuNSwyNy41LDg5LjV6IE0yNy41LDk2LjFjLTAuOSwwLTEuNi0wLjUtMi4xLTEuM2MtMC4yLTAuMy0wLjMtMC43LTAuMy0xLjFjMC0xLjMsMS0yLjMsMi4zLTIuMyAgICBjMS4zLDAsMi4zLDEsMi4zLDIuM0MyOS45LDk1LjEsMjguOCw5Ni4xLDI3LjUsOTYuMXoiLz48L2c+PGc+PHBhdGggZD0iTTE0NS4xLDEzMi44QzE1Ni42LDExOC40LDE2MywxMDAuNCwxNjMsODJjMC0xMC4yLTEuOS0yMC01LjUtMjkuNFYzMi41YzAtMS42LTEuMy0yLjktMi45LTIuOWgtMTAuOCAgICBDMTI4LjQsMTEuNCwxMDUuOSwxLDgyLDFTMzUuNiwxMS40LDIwLjIsMjkuNkg5LjRjLTEuNiwwLTIuOSwxLjMtMi45LDIuOXYyMC4xQzIuOSw2MiwxLDcxLjgsMSw4MmMwLDE4LjQsNi40LDM2LjQsMTcuOSw1MC44ICAgIGMwLjUsMy41LDMuMSw2LjMsNi41LDcuMkM0MC42LDE1NC44LDYwLjcsMTYzLDgyLDE2M3M0MS40LTguMiw1Ni42LTIzLjFDMTQyLDEzOS4xLDE0NC42LDEzNi4zLDE0NS4xLDEzMi44eiBNMTM3LjUsMTA5aDE3LjEgICAgYzAuNywwLDEuNC0wLjMsMS45LTAuN2MtMi43LDcuNi02LjYsMTQuOC0xMS41LDIxLjNjLTAuOC0zLjgtMy45LTYuNC03LjUtNi45VjEwOXogTTE2MSw4MmMwLDcuOS0xLjIsMTUuOC0zLjUsMjMuM1Y1OC43ICAgIEMxNTkuOCw2Ni4yLDE2MSw3NCwxNjEsODJ6IE0xNTUuNSwzMi41djczLjZjMCwwLjUtMC40LDAuOS0wLjksMC45aC0zNi4zYy0wLjUsMC0wLjktMC40LTAuOS0wLjlWMzIuNWMwLTAuNSwwLjQtMC45LDAuOS0wLjkgICAgYzkuMiwwLDI3LDAsMzYuMywwQzE1NS4xLDMxLjYsMTU1LjUsMzIsMTU1LjUsMzIuNXogTTgyLDNjMjIuNywwLDQ0LjEsOS43LDU5LjEsMjYuNmgtMjIuOGMtMS42LDAtMi45LDEuMy0yLjksMi45djczLjYgICAgYzAsMS42LDEuMywyLjksMi45LDIuOWgxNy4xdjEzLjhjLTMuOSwwLjUtNy4yLDMuNS03LjcsNy43SDkwLjdjLTAuNS00LTMuNy03LjItNy43LTcuN1YxMDloMjEuNGMxLjgsMCwzLjMtMS41LDMuMy0zLjNWMTQuOCAgICBjMC0xLjgtMS41LTMuMy0zLjMtMy4zSDU5LjZjLTEuOCwwLTMuMywxLjUtMy4zLDMuM3Y5MC45YzAsMS44LDEuNSwzLjMsMy4zLDMuM0g4MXYxMy44Yy00LDAuNS03LjIsMy43LTcuNyw3LjdIMzYuMiAgICBjLTAuNS00LjEtMy43LTcuMi03LjctNy43VjEwOWgxNy4xYzEuNiwwLDIuOS0xLjMsMi45LTIuOVYzMi41YzAtMS42LTEuMy0yLjktMi45LTIuOUgyMi45QzM3LjksMTIuNyw1OS4zLDMsODIsM3ogTTM2LjIsMTMyLjUgICAgaDM3LjFjMC4zLDIuMywxLjQsNC4zLDMuMSw1LjhIMzMuMUMzNC44LDEzNi44LDM2LDEzNC44LDM2LjIsMTMyLjV6IE03NS4yLDEzMS41YzAtMy43LDMtNi44LDYuOC02LjhzNi44LDMsNi44LDYuOCAgICBjMCwzLjctMyw2LjgtNi44LDYuOFM3NS4yLDEzNS4yLDc1LjIsMTMxLjV6IE01OS42LDEwN2MtMC43LDAtMS4zLTAuNi0xLjMtMS4zVjE0LjhjMC0wLjcsMC42LTEuMywxLjMtMS4zaDQ0LjggICAgYzAuNywwLDEuMywwLjYsMS4zLDEuM3Y5MC45YzAsMC43LTAuNiwxLjMtMS4zLDEuM0g1OS42eiBNOTAuNywxMzIuNWgzNy4xYzAuMywyLjMsMS40LDQuMywzLjEsNS44SDg3LjYgICAgQzg5LjMsMTM2LjgsOTAuNCwxMzQuOCw5MC43LDEzMi41eiBNMTksMTI5LjZjLTQuOS02LjUtOC44LTEzLjctMTEuNS0yMS4zYzAuNSwwLjQsMS4yLDAuNywxLjksMC43aDE3LjF2MTMuOCAgICBDMjIuOSwxMjMuMiwxOS44LDEyNS44LDE5LDEyOS42eiBNOC41LDMyLjVjMC0wLjUsMC40LTAuOSwwLjktMC45aDM2LjNjMC41LDAsMC45LDAuNCwwLjksMC45djczLjZjMCwwLjUtMC40LDAuOS0wLjksMC45SDkuNCAgICBjLTAuNSwwLTAuOS0wLjQtMC45LTAuOVYzMi41eiBNNi41LDU4Ljd2NDYuNUM0LjIsOTcuOCwzLDg5LjksMyw4MkMzLDc0LDQuMiw2Ni4yLDYuNSw1OC43eiBNMjAuOCwxMzEuNWMwLTMuOSwzLjItNi43LDYuNy02LjggICAgYzAsMCwwLDAsMCwwYzAsMCwwLDAsMCwwYzMuNiwwLDYuNywzLDYuNyw2LjhjMCwzLjctMyw2LjgtNi44LDYuOEMyMy44LDEzOC4yLDIwLjgsMTM1LjIsMjAuOCwxMzEuNXogTTI4LjYsMTQwLjJoMTA2LjggICAgQzEyMC44LDE1My42LDEwMS45LDE2MSw4MiwxNjFTNDMuMiwxNTMuNiwyOC42LDE0MC4yeiBNMTM2LjUsMTM4LjJjLTMuNywwLTYuOC0zLTYuOC02LjhjMC0zLjksMy4yLTYuNyw2LjctNi44YzAsMCwwLDAsMCwwICAgIGMwLDAsMCwwLDAsMGMzLjYsMCw2LjcsMyw2LjcsNi44QzE0My4yLDEzNS4yLDE0MC4yLDEzOC4yLDEzNi41LDEzOC4yeiIvPjwvZz48L2c+PC9zdmc+;fontSize=24;fontStyle=1" parent="1" vertex="1">
                    <mxGeometry x="70" y="932" width="100" height="100" as="geometry"/>
                </mxCell>
                <mxCell id="R7Ilkwoh4phyt-hekFA_-81" value="They Manage" style="rounded=1;whiteSpace=wrap;html=1;fontSize=24;fillColor=#d5e8d4;strokeColor=#82b366;shadow=1;fontStyle=1" parent="1" vertex="1">
                    <mxGeometry x="1520" y="947" width="500" height="70" as="geometry"/>
                </mxCell>
                <mxCell id="R7Ilkwoh4phyt-hekFA_-82" value="They Manage" style="rounded=1;whiteSpace=wrap;html=1;fontSize=24;fillColor=#d5e8d4;strokeColor=#82b366;shadow=1;fontStyle=1" parent="1" vertex="1">
                    <mxGeometry x="1870" y="1105" width="150" height="70" as="geometry"/>
                </mxCell>
            </root>
        </mxGraphModel>
    </diagram>
</mxfile>
